<ttFont>
    <TTGlyph name="A" xMin="-12" yMin="-8" xMax="634" yMax="653">
      <contour>
        <pt x="552" y="132" on="1"/>
        <pt x="563" y="97" on="0"/>
        <pt x="596" y="66" on="0"/>
        <pt x="630" y="63" on="1"/>
        <pt x="634" y="56" on="1"/>
        <pt x="627" y="-3" on="1"/>
        <pt x="604" y="-3" on="0"/>
        <pt x="582" y="-2" on="1"/>
        <pt x="563" y="-1" on="0"/>
        <pt x="521" y="0" on="0"/>
        <pt x="504" y="0" on="1"/>
        <pt x="472" y="0" on="0"/>
        <pt x="410" y="-2" on="0"/>
        <pt x="387" y="-4" on="1"/>
        <pt x="359" y="-6" on="0"/>
        <pt x="335" y="-8" on="1"/>
        <pt x="329" y="0" on="1"/>
        <pt x="334" y="60" on="1"/>
        <pt x="358" y="62" on="0"/>
        <pt x="389" y="67" on="0"/>
        <pt x="405" y="75" on="0"/>
        <pt x="411" y="88" on="0"/>
        <pt x="411" y="97" on="1"/>
        <pt x="411" y="107" on="0"/>
        <pt x="406" y="130" on="1"/>
        <pt x="386" y="206" on="1"/>
        <pt x="366" y="207" on="0"/>
        <pt x="312" y="207" on="0"/>
        <pt x="295" y="207" on="1"/>
        <pt x="271" y="207" on="0"/>
        <pt x="218" y="202" on="0"/>
        <pt x="200" y="200" on="1"/>
        <pt x="175" y="125" on="1"/>
        <pt x="169" y="104" on="0"/>
        <pt x="169" y="94" on="1"/>
        <pt x="169" y="77" on="0"/>
        <pt x="189" y="64" on="0"/>
        <pt x="215" y="64" on="1"/>
        <pt x="258" y="64" on="1"/>
        <pt x="262" y="57" on="1"/>
        <pt x="255" y="-6" on="1"/>
        <pt x="231" y="-5" on="0"/>
        <pt x="206" y="-3" on="1"/>
        <pt x="184" y="-2" on="0"/>
        <pt x="133" y="0" on="0"/>
        <pt x="109" y="0" on="1"/>
        <pt x="89" y="0" on="0"/>
        <pt x="45" y="-1" on="0"/>
        <pt x="28" y="-2" on="1"/>
        <pt x="7" y="-3" on="0"/>
        <pt x="-12" y="-3" on="1"/>
        <pt x="-4" y="64" on="1"/>
        <pt x="19" y="68" on="0"/>
        <pt x="49" y="97" on="0"/>
        <pt x="61" y="130" on="1"/>
        <pt x="239" y="637" on="1"/>
        <pt x="398" y="653" on="1"/>
        <pt x="409" y="648" on="1"/>
        <pt x="435" y="548" on="0"/>
        <pt x="461" y="453" on="1"/>
        <pt x="472" y="412" on="0"/>
        <pt x="495" y="326" on="0"/>
        <pt x="519" y="241" on="0"/>
        <pt x="542" y="163" on="0"/>
      </contour>
      <contour>
        <pt x="224" y="286" on="1"/>
        <pt x="294" y="286" on="1"/>
        <pt x="311" y="286" on="0"/>
        <pt x="352" y="288" on="0"/>
        <pt x="368" y="290" on="1"/>
        <pt x="310" y="510" on="1"/>
        <pt x="296" y="510" on="1"/>
      </contour>
    </TTGlyph>
    <TTGlyph name="AE" xMin="-4" yMin="-8" xMax="848" yMax="654">
      <contour>
        <pt x="319" y="60" on="1"/>
        <pt x="344" y="62" on="0"/>
        <pt x="377" y="69" on="0"/>
        <pt x="395" y="79" on="0"/>
        <pt x="402" y="96" on="0"/>
        <pt x="402" y="108" on="1"/>
        <pt x="402" y="120" on="0"/>
        <pt x="400" y="143" on="0"/>
        <pt x="398" y="157" on="1"/>
        <pt x="386" y="249" on="1"/>
        <pt x="299" y="238" on="1"/>
        <pt x="215" y="222" on="1"/>
        <pt x="170" y="125" on="1"/>
        <pt x="159" y="100" on="0"/>
        <pt x="159" y="88" on="1"/>
        <pt x="159" y="74" on="0"/>
        <pt x="182" y="64" on="0"/>
        <pt x="214" y="64" on="1"/>
        <pt x="247" y="59" on="1"/>
        <pt x="241" y="-6" on="1"/>
        <pt x="241" y="-6" on="0"/>
        <pt x="204" y="-4" on="0"/>
        <pt x="153" y="-2" on="0"/>
        <pt x="96" y="0" on="0"/>
        <pt x="75" y="0" on="1"/>
        <pt x="63" y="0" on="0"/>
        <pt x="37" y="-1" on="0"/>
        <pt x="26" y="-2" on="1"/>
        <pt x="13" y="-3" on="0"/>
        <pt x="1" y="-3" on="1"/>
        <pt x="-4" y="57" on="1"/>
        <pt x="5" y="59" on="0"/>
        <pt x="39" y="98" on="0"/>
        <pt x="56" y="130" on="1"/>
        <pt x="264" y="555" on="1"/>
        <pt x="262" y="568" on="0"/>
        <pt x="250" y="577" on="0"/>
        <pt x="239" y="577" on="1"/>
        <pt x="234" y="577" on="0"/>
        <pt x="224" y="576" on="0"/>
        <pt x="219" y="576" on="1"/>
        <pt x="214" y="575" on="0"/>
        <pt x="208" y="575" on="1"/>
        <pt x="202" y="584" on="1"/>
        <pt x="210" y="645" on="1"/>
        <pt x="243" y="644" on="0"/>
        <pt x="282" y="643" on="1"/>
        <pt x="315" y="642" on="0"/>
        <pt x="402" y="642" on="0"/>
        <pt x="452" y="642" on="1"/>
        <pt x="567" y="642" on="0"/>
        <pt x="735" y="649" on="0"/>
        <pt x="772" y="654" on="1"/>
        <pt x="780" y="643" on="1"/>
        <pt x="774" y="617" on="0"/>
        <pt x="770" y="587" on="1"/>
        <pt x="766" y="561" on="0"/>
        <pt x="759" y="496" on="0"/>
        <pt x="757" y="461" on="1"/>
        <pt x="666" y="455" on="1"/>
        <pt x="666" y="463" on="0"/>
        <pt x="667" y="470" on="1"/>
        <pt x="667" y="476" on="0"/>
        <pt x="668" y="490" on="0"/>
        <pt x="668" y="495" on="1"/>
        <pt x="668" y="516" on="0"/>
        <pt x="659" y="540" on="0"/>
        <pt x="632" y="554" on="0"/>
        <pt x="581" y="558" on="0"/>
        <pt x="539" y="558" on="1"/>
        <pt x="505" y="558" on="0"/>
        <pt x="487" y="548" on="0"/>
        <pt x="486" y="531" on="1"/>
        <pt x="512" y="349" on="1"/>
        <pt x="608" y="361" on="1"/>
        <pt x="704" y="380" on="1"/>
        <pt x="715" y="370" on="1"/>
        <pt x="702" y="286" on="1"/>
        <pt x="611" y="279" on="1"/>
        <pt x="523" y="269" on="1"/>
        <pt x="543" y="146" on="1"/>
        <pt x="549" y="110" on="0"/>
        <pt x="581" y="78" on="0"/>
        <pt x="613" y="78" on="1"/>
        <pt x="655" y="78" on="0"/>
        <pt x="707" y="86" on="0"/>
        <pt x="737" y="110" on="0"/>
        <pt x="751" y="155" on="0"/>
        <pt x="756" y="193" on="1"/>
        <pt x="841" y="200" on="1"/>
        <pt x="848" y="190" on="1"/>
        <pt x="843" y="163" on="0"/>
        <pt x="838" y="133" on="1"/>
        <pt x="833" y="107" on="0"/>
        <pt x="824" y="40" on="0"/>
        <pt x="820" y="4" on="1"/>
        <pt x="811" y="-7" on="1"/>
        <pt x="811" y="-7" on="0"/>
        <pt x="755" y="-5" on="0"/>
        <pt x="668" y="-2" on="0"/>
        <pt x="565" y="0" on="0"/>
        <pt x="517" y="0" on="1"/>
        <pt x="479" y="0" on="1"/>
        <pt x="448" y="0" on="0"/>
        <pt x="392" y="-2" on="0"/>
        <pt x="369" y="-4" on="1"/>
        <pt x="343" y="-6" on="0"/>
        <pt x="320" y="-8" on="1"/>
        <pt x="315" y="0" on="1"/>
      </contour>
      <contour>
        <pt x="317" y="321" on="1"/>
        <pt x="379" y="329" on="1"/>
        <pt x="356" y="510" on="1"/>
        <pt x="341" y="510" on="1"/>
        <pt x="252" y="317" on="1"/>
      </contour>
    </TTGlyph>
    <TTGlyph name="AEacute" xMin="-4" yMin="-8" xMax="848" yMax="912">
      <component glyphName="AE" x="0" y="0" flags="0x204"/>
      <component glyphName="acute" x="303" y="175" flags="0x4"/>
    </TTGlyph>
    <TTGlyph name="Aacute" xMin="-12" yMin="-8" xMax="634" yMax="857">
      <component glyphName="A" x="0" y="0" flags="0x204"/>
      <component glyphName="acute.cap" x="132" y="0" flags="0x4"/>
    </TTGlyph>
    <TTGlyph name="Abreve" xMin="-12" yMin="-8" xMax="634" yMax="848">
      <component glyphName="A" x="0" y="0" flags="0x204"/>
      <component glyphName="breve.cap" x="118" y="0" flags="0x4"/>
    </TTGlyph>
    <TTGlyph name="Acircumflex" xMin="-12" yMin="-8" xMax="634" yMax="877">
      <component glyphName="A" x="0" y="0" flags="0x204"/>
      <component glyphName="circumflex.cap" x="119" y="0" flags="0x4"/>
    </TTGlyph>
    <TTGlyph name="Adieresis" xMin="-12" yMin="-8" xMax="634" yMax="834">
      <component glyphName="A" x="0" y="0" flags="0x204"/>
      <component glyphName="dieresis.cap" x="119" y="0" flags="0x4"/>
    </TTGlyph>
    <TTGlyph name="Agrave" xMin="-12" yMin="-8" xMax="634" yMax="857">
      <component glyphName="A" x="0" y="0" flags="0x204"/>
      <component glyphName="grave.cap" x="125" y="0" flags="0x4"/>
    </TTGlyph>
    <TTGlyph name="Amacron" xMin="-12" yMin="-8" xMax="634" yMax="800">
      <component glyphName="A" x="0" y="0" flags="0x204"/>
      <component glyphName="macron.cap" x="118" y="0" flags="0x4"/>
    </TTGlyph>
    <TTGlyph name="Aogonek" xMin="-12" yMin="-241" xMax="634" yMax="653">
      <contour>
        <pt x="633" y="-175" on="1"/>
        <pt x="618" y="-190" on="0"/>
        <pt x="601" y="-202" on="1"/>
        <pt x="587" y="-213" on="0"/>
        <pt x="550" y="-235" on="0"/>
        <pt x="531" y="-241" on="1"/>
        <pt x="477" y="-241" on="0"/>
        <pt x="412" y="-193" on="0"/>
        <pt x="412" y="-150" on="1"/>
        <pt x="412" y="-116" on="0"/>
        <pt x="458" y="-46" on="0"/>
        <pt x="503" y="0" on="1"/>
        <pt x="471" y="0" on="0"/>
        <pt x="410" y="-2" on="0"/>
        <pt x="387" y="-4" on="1"/>
        <pt x="360" y="-6" on="0"/>
        <pt x="335" y="-8" on="1"/>
        <pt x="329" y="0" on="1"/>
        <pt x="334" y="60" on="1"/>
        <pt x="358" y="62" on="0"/>
        <pt x="389" y="67" on="0"/>
        <pt x="405" y="75" on="0"/>
        <pt x="411" y="88" on="0"/>
        <pt x="411" y="97" on="1"/>
        <pt x="411" y="107" on="0"/>
        <pt x="406" y="130" on="1"/>
        <pt x="386" y="206" on="1"/>
        <pt x="366" y="207" on="0"/>
        <pt x="312" y="207" on="0"/>
        <pt x="295" y="207" on="1"/>
        <pt x="271" y="207" on="0"/>
        <pt x="218" y="202" on="0"/>
        <pt x="200" y="200" on="1"/>
        <pt x="175" y="125" on="1"/>
        <pt x="169" y="104" on="0"/>
        <pt x="169" y="94" on="1"/>
        <pt x="169" y="77" on="0"/>
        <pt x="189" y="64" on="0"/>
        <pt x="215" y="64" on="1"/>
        <pt x="258" y="64" on="1"/>
        <pt x="262" y="57" on="1"/>
        <pt x="255" y="-6" on="1"/>
        <pt x="231" y="-5" on="0"/>
        <pt x="206" y="-3" on="1"/>
        <pt x="184" y="-2" on="0"/>
        <pt x="133" y="0" on="0"/>
        <pt x="109" y="0" on="1"/>
        <pt x="89" y="0" on="0"/>
        <pt x="45" y="-1" on="0"/>
        <pt x="28" y="-2" on="1"/>
        <pt x="7" y="-3" on="0"/>
        <pt x="-12" y="-3" on="1"/>
        <pt x="-4" y="64" on="1"/>
        <pt x="19" y="68" on="0"/>
        <pt x="49" y="97" on="0"/>
        <pt x="61" y="130" on="1"/>
        <pt x="239" y="637" on="1"/>
        <pt x="398" y="653" on="1"/>
        <pt x="409" y="648" on="1"/>
        <pt x="435" y="548" on="0"/>
        <pt x="461" y="453" on="1"/>
        <pt x="472" y="412" on="0"/>
        <pt x="495" y="326" on="0"/>
        <pt x="519" y="241" on="0"/>
        <pt x="542" y="163" on="0"/>
        <pt x="552" y="132" on="1"/>
        <pt x="563" y="97" on="0"/>
        <pt x="596" y="66" on="0"/>
        <pt x="630" y="63" on="1"/>
        <pt x="634" y="56" on="1"/>
        <pt x="627" y="-3" on="1"/>
        <pt x="618" y="-3" on="0"/>
        <pt x="607" y="-2" on="1"/>
        <pt x="598" y="-1" on="0"/>
        <pt x="574" y="-1" on="0"/>
        <pt x="562" y="0" on="1"/>
        <pt x="524" y="-46" on="0"/>
        <pt x="493" y="-98" on="0"/>
        <pt x="493" y="-122" on="1"/>
        <pt x="493" y="-143" on="0"/>
        <pt x="520" y="-170" on="0"/>
        <pt x="543" y="-170" on="1"/>
        <pt x="556" y="-170" on="0"/>
        <pt x="581" y="-163" on="0"/>
        <pt x="592" y="-158" on="1"/>
        <pt x="604" y="-153" on="0"/>
        <pt x="615" y="-146" on="1"/>
      </contour>
      <contour>
        <pt x="224" y="286" on="1"/>
        <pt x="294" y="286" on="1"/>
        <pt x="311" y="286" on="0"/>
        <pt x="352" y="288" on="0"/>
        <pt x="368" y="290" on="1"/>
        <pt x="310" y="510" on="1"/>
        <pt x="296" y="510" on="1"/>
      </contour>
    </TTGlyph>
    <TTGlyph name="Aring" xMin="-12" yMin="-8" xMax="634" yMax="864">
      <component glyphName="A" x="0" y="0" flags="0x204"/>
      <component glyphName="ring.cap" x="119" y="0" flags="0x4"/>
    </TTGlyph>
    <TTGlyph name="Aringacute" xMin="-12" yMin="-8" xMax="634" yMax="977">
      <contour>
        <pt x="552" y="132" on="1"/>
        <pt x="563" y="97" on="0"/>
        <pt x="596" y="66" on="0"/>
        <pt x="630" y="63" on="1"/>
        <pt x="634" y="56" on="1"/>
        <pt x="627" y="-3" on="1"/>
        <pt x="604" y="-3" on="0"/>
        <pt x="582" y="-2" on="1"/>
        <pt x="563" y="-1" on="0"/>
        <pt x="521" y="0" on="0"/>
        <pt x="504" y="0" on="1"/>
        <pt x="472" y="0" on="0"/>
        <pt x="410" y="-2" on="0"/>
        <pt x="387" y="-4" on="1"/>
        <pt x="359" y="-6" on="0"/>
        <pt x="335" y="-8" on="1"/>
        <pt x="329" y="0" on="1"/>
        <pt x="334" y="60" on="1"/>
        <pt x="358" y="62" on="0"/>
        <pt x="389" y="67" on="0"/>
        <pt x="405" y="75" on="0"/>
        <pt x="411" y="88" on="0"/>
        <pt x="411" y="97" on="1"/>
        <pt x="411" y="107" on="0"/>
        <pt x="406" y="130" on="1"/>
        <pt x="386" y="206" on="1"/>
        <pt x="366" y="207" on="0"/>
        <pt x="312" y="207" on="0"/>
        <pt x="295" y="207" on="1"/>
        <pt x="271" y="207" on="0"/>
        <pt x="218" y="202" on="0"/>
        <pt x="200" y="200" on="1"/>
        <pt x="175" y="125" on="1"/>
        <pt x="169" y="104" on="0"/>
        <pt x="169" y="94" on="1"/>
        <pt x="169" y="77" on="0"/>
        <pt x="189" y="64" on="0"/>
        <pt x="215" y="64" on="1"/>
        <pt x="258" y="64" on="1"/>
        <pt x="262" y="57" on="1"/>
        <pt x="255" y="-6" on="1"/>
        <pt x="231" y="-5" on="0"/>
        <pt x="206" y="-3" on="1"/>
        <pt x="184" y="-2" on="0"/>
        <pt x="133" y="0" on="0"/>
        <pt x="109" y="0" on="1"/>
        <pt x="89" y="0" on="0"/>
        <pt x="45" y="-1" on="0"/>
        <pt x="28" y="-2" on="1"/>
        <pt x="7" y="-3" on="0"/>
        <pt x="-12" y="-3" on="1"/>
        <pt x="-4" y="64" on="1"/>
        <pt x="19" y="68" on="0"/>
        <pt x="49" y="97" on="0"/>
        <pt x="61" y="130" on="1"/>
        <pt x="239" y="637" on="1"/>
        <pt x="398" y="653" on="1"/>
        <pt x="409" y="648" on="1"/>
        <pt x="435" y="548" on="0"/>
        <pt x="461" y="453" on="1"/>
        <pt x="472" y="412" on="0"/>
        <pt x="495" y="326" on="0"/>
        <pt x="519" y="241" on="0"/>
        <pt x="542" y="163" on="0"/>
      </contour>
      <contour>
        <pt x="224" y="286" on="1"/>
        <pt x="294" y="286" on="1"/>
        <pt x="311" y="286" on="0"/>
        <pt x="352" y="288" on="0"/>
        <pt x="368" y="290" on="1"/>
        <pt x="310" y="510" on="1"/>
        <pt x="296" y="510" on="1"/>
      </contour>
      <contour>
        <pt x="328" y="721" on="1"/>
        <pt x="338" y="721" on="0"/>
        <pt x="364" y="732" on="0"/>
        <pt x="364" y="753" on="1"/>
        <pt x="364" y="770" on="0"/>
        <pt x="343" y="791" on="0"/>
        <pt x="323" y="791" on="1"/>
        <pt x="287" y="791" on="0"/>
        <pt x="287" y="759" on="1"/>
        <pt x="287" y="738" on="0"/>
        <pt x="315" y="721" on="0"/>
      </contour>
      <contour>
        <pt x="322" y="673" on="1"/>
        <pt x="283" y="673" on="0"/>
        <pt x="242" y="718" on="0"/>
        <pt x="242" y="755" on="1"/>
        <pt x="242" y="792" on="0"/>
        <pt x="290" y="841" on="0"/>
        <pt x="329" y="841" on="1"/>
        <pt x="372" y="841" on="0"/>
        <pt x="409" y="792" on="0"/>
        <pt x="409" y="762" on="1"/>
        <pt x="409" y="727" on="0"/>
        <pt x="364" y="673" on="0"/>
      </contour>
      <contour>
        <pt x="444" y="892" on="1"/>
        <pt x="413" y="885" on="0"/>
        <pt x="379" y="875" on="1"/>
        <pt x="350" y="867" on="0"/>
        <pt x="276" y="845" on="0"/>
        <pt x="238" y="833" on="1"/>
        <pt x="226" y="841" on="1"/>
        <pt x="214" y="884" on="1"/>
        <pt x="250" y="900" on="0"/>
        <pt x="322" y="932" on="0"/>
        <pt x="351" y="946" on="1"/>
        <pt x="384" y="962" on="0"/>
        <pt x="415" y="977" on="1"/>
        <pt x="426" y="973" on="1"/>
        <pt x="449" y="903" on="1"/>
      </contour>
    </TTGlyph>
    <TTGlyph name="Atilde" xMin="-12" yMin="-8" xMax="634" yMax="853">
      <component glyphName="A" x="0" y="0" flags="0x204"/>
      <component glyphName="tilde.cap" x="119" y="0" flags="0x4"/>
    </TTGlyph>
    <TTGlyph name="B" xMin="36" yMin="-10" xMax="592" yMax="647">
      <contour>
        <pt x="183" y="0" on="1"/>
        <pt x="161" y="0" on="0"/>
        <pt x="111" y="-3" on="0"/>
        <pt x="88" y="-5" on="1"/>
        <pt x="62" y="-8" on="0"/>
        <pt x="36" y="-10" on="1"/>
        <pt x="44" y="58" on="1"/>
        <pt x="87" y="65" on="0"/>
        <pt x="117" y="98" on="0"/>
        <pt x="117" y="137" on="1"/>
        <pt x="118" y="527" on="1"/>
        <pt x="118" y="555" on="0"/>
        <pt x="104" y="577" on="0"/>
        <pt x="85" y="577" on="1"/>
        <pt x="80" y="577" on="0"/>
        <pt x="68" y="576" on="0"/>
        <pt x="63" y="576" on="1"/>
        <pt x="57" y="575" on="0"/>
        <pt x="51" y="575" on="1"/>
        <pt x="45" y="583" on="1"/>
        <pt x="54" y="644" on="1"/>
        <pt x="84" y="643" on="0"/>
        <pt x="110" y="643" on="1"/>
        <pt x="133" y="642" on="0"/>
        <pt x="179" y="642" on="0"/>
        <pt x="193" y="642" on="1"/>
        <pt x="206" y="642" on="0"/>
        <pt x="257" y="643" on="0"/>
        <pt x="283" y="644" on="1"/>
        <pt x="313" y="645" on="0"/>
        <pt x="346" y="647" on="1"/>
        <pt x="450" y="647" on="0"/>
        <pt x="558" y="568" on="0"/>
        <pt x="558" y="492" on="1"/>
        <pt x="558" y="439" on="0"/>
        <pt x="499" y="364" on="0"/>
        <pt x="451" y="339" on="1"/>
        <pt x="511" y="323" on="0"/>
        <pt x="592" y="251" on="0"/>
        <pt x="592" y="190" on="1"/>
        <pt x="592" y="145" on="0"/>
        <pt x="555" y="71" on="0"/>
        <pt x="487" y="18" on="0"/>
        <pt x="390" y="-10" on="0"/>
        <pt x="331" y="-10" on="1"/>
        <pt x="317" y="-10" on="0"/>
        <pt x="278" y="-6" on="0"/>
        <pt x="237" y="-3" on="0"/>
        <pt x="198" y="0" on="0"/>
      </contour>
      <contour>
        <pt x="251" y="280" on="1"/>
        <pt x="247" y="135" on="1"/>
        <pt x="247" y="103" on="0"/>
        <pt x="290" y="76" on="0"/>
        <pt x="341" y="76" on="1"/>
        <pt x="390" y="76" on="0"/>
        <pt x="444" y="128" on="0"/>
        <pt x="444" y="176" on="1"/>
        <pt x="444" y="258" on="0"/>
        <pt x="343" y="281" on="1"/>
      </contour>
      <contour>
        <pt x="253" y="369" on="1"/>
        <pt x="275" y="366" on="0"/>
        <pt x="293" y="364" on="1"/>
        <pt x="309" y="362" on="0"/>
        <pt x="340" y="360" on="0"/>
        <pt x="348" y="360" on="1"/>
        <pt x="367" y="368" on="0"/>
        <pt x="382" y="382" on="1"/>
        <pt x="395" y="394" on="0"/>
        <pt x="417" y="435" on="0"/>
        <pt x="417" y="466" on="1"/>
        <pt x="417" y="517" on="0"/>
        <pt x="350" y="564" on="0"/>
        <pt x="279" y="564" on="1"/>
        <pt x="269" y="564" on="0"/>
        <pt x="262" y="557" on="0"/>
        <pt x="261" y="546" on="1"/>
        <pt x="259" y="525" on="0"/>
        <pt x="257" y="477" on="0"/>
        <pt x="255" y="429" on="0"/>
        <pt x="253" y="385" on="0"/>
      </contour>
    </TTGlyph>
    <TTGlyph name="C" xMin="28" yMin="-12" xMax="575" yMax="654">
      <contour>
        <pt x="325" y="-12" on="1"/>
        <pt x="256" y="-12" on="0"/>
        <pt x="146" y="32" on="0"/>
        <pt x="69" y="113" on="0"/>
        <pt x="28" y="230" on="0"/>
        <pt x="28" y="304" on="1"/>
        <pt x="28" y="384" on="0"/>
        <pt x="77" y="513" on="0"/>
        <pt x="168" y="605" on="0"/>
        <pt x="298" y="654" on="0"/>
        <pt x="378" y="654" on="1"/>
        <pt x="410" y="654" on="0"/>
        <pt x="477" y="646" on="0"/>
        <pt x="505" y="641" on="1"/>
        <pt x="538" y="636" on="0"/>
        <pt x="569" y="629" on="1"/>
        <pt x="575" y="616" on="1"/>
        <pt x="569" y="591" on="0"/>
        <pt x="564" y="561" on="1"/>
        <pt x="559" y="535" on="0"/>
        <pt x="551" y="467" on="0"/>
        <pt x="549" y="427" on="1"/>
        <pt x="450" y="420" on="1"/>
        <pt x="450" y="428" on="0"/>
        <pt x="451" y="437" on="1"/>
        <pt x="451" y="445" on="0"/>
        <pt x="452" y="463" on="0"/>
        <pt x="452" y="473" on="1"/>
        <pt x="452" y="517" on="0"/>
        <pt x="400" y="557" on="0"/>
        <pt x="343" y="557" on="1"/>
        <pt x="265" y="557" on="0"/>
        <pt x="184" y="448" on="0"/>
        <pt x="184" y="338" on="1"/>
        <pt x="184" y="215" on="0"/>
        <pt x="272" y="82" on="0"/>
        <pt x="350" y="82" on="1"/>
        <pt x="404" y="82" on="0"/>
        <pt x="464" y="147" on="0"/>
        <pt x="476" y="220" on="1"/>
        <pt x="575" y="227" on="1"/>
        <pt x="570" y="197" on="0"/>
        <pt x="566" y="165" on="1"/>
        <pt x="562" y="138" on="0"/>
        <pt x="556" y="71" on="0"/>
        <pt x="555" y="40" on="1"/>
        <pt x="545" y="28" on="1"/>
        <pt x="515" y="17" on="0"/>
        <pt x="481" y="8" on="1"/>
        <pt x="451" y="0" on="0"/>
        <pt x="372" y="-12" on="0"/>
      </contour>
    </TTGlyph>
    <TTGlyph name="Cacute" xMin="28" yMin="-12" xMax="575" yMax="857">
      <component glyphName="C" x="0" y="0" flags="0x204"/>
      <component glyphName="acute.cap" x="163" y="0" flags="0x4"/>
    </TTGlyph>
    <TTGlyph name="Ccaron" xMin="28" yMin="-12" xMax="575" yMax="865">
      <component glyphName="C" x="0" y="0" flags="0x204"/>
      <component glyphName="caron.cap" x="148" y="0" flags="0x4"/>
    </TTGlyph>
    <TTGlyph name="Ccedilla" xMin="28" yMin="-237" xMax="575" yMax="654">
      <contour>
        <pt x="301" y="-11" on="1"/>
        <pt x="173" y="-3" on="0"/>
        <pt x="28" y="162" on="0"/>
        <pt x="28" y="304" on="1"/>
        <pt x="28" y="384" on="0"/>
        <pt x="77" y="513" on="0"/>
        <pt x="168" y="605" on="0"/>
        <pt x="298" y="654" on="0"/>
        <pt x="378" y="654" on="1"/>
        <pt x="410" y="654" on="0"/>
        <pt x="477" y="646" on="0"/>
        <pt x="505" y="641" on="1"/>
        <pt x="538" y="636" on="0"/>
        <pt x="569" y="629" on="1"/>
        <pt x="575" y="616" on="1"/>
        <pt x="569" y="591" on="0"/>
        <pt x="564" y="561" on="1"/>
        <pt x="559" y="535" on="0"/>
        <pt x="551" y="467" on="0"/>
        <pt x="549" y="427" on="1"/>
        <pt x="450" y="420" on="1"/>
        <pt x="450" y="428" on="0"/>
        <pt x="451" y="437" on="1"/>
        <pt x="451" y="445" on="0"/>
        <pt x="452" y="463" on="0"/>
        <pt x="452" y="473" on="1"/>
        <pt x="452" y="517" on="0"/>
        <pt x="400" y="557" on="0"/>
        <pt x="343" y="557" on="1"/>
        <pt x="265" y="557" on="0"/>
        <pt x="184" y="448" on="0"/>
        <pt x="184" y="338" on="1"/>
        <pt x="184" y="215" on="0"/>
        <pt x="272" y="82" on="0"/>
        <pt x="350" y="82" on="1"/>
        <pt x="404" y="82" on="0"/>
        <pt x="464" y="147" on="0"/>
        <pt x="476" y="220" on="1"/>
        <pt x="575" y="227" on="1"/>
        <pt x="570" y="197" on="0"/>
        <pt x="566" y="165" on="1"/>
        <pt x="562" y="138" on="0"/>
        <pt x="556" y="71" on="0"/>
        <pt x="555" y="40" on="1"/>
        <pt x="545" y="28" on="1"/>
        <pt x="520" y="18" on="0"/>
        <pt x="490" y="10" on="1"/>
        <pt x="464" y="3" on="0"/>
        <pt x="394" y="-9" on="0"/>
        <pt x="352" y="-11" on="1"/>
        <pt x="343" y="-44" on="1"/>
        <pt x="357" y="-52" on="0"/>
        <pt x="391" y="-73" on="0"/>
        <pt x="420" y="-98" on="0"/>
        <pt x="439" y="-126" on="0"/>
        <pt x="439" y="-141" on="1"/>
        <pt x="439" y="-161" on="0"/>
        <pt x="417" y="-196" on="0"/>
        <pt x="379" y="-222" on="0"/>
        <pt x="331" y="-237" on="0"/>
        <pt x="306" y="-237" on="1"/>
        <pt x="293" y="-237" on="0"/>
        <pt x="266" y="-231" on="0"/>
        <pt x="243" y="-220" on="0"/>
        <pt x="228" y="-204" on="0"/>
        <pt x="228" y="-194" on="1"/>
        <pt x="228" y="-188" on="0"/>
        <pt x="235" y="-172" on="0"/>
        <pt x="246" y="-155" on="0"/>
        <pt x="259" y="-138" on="0"/>
        <pt x="265" y="-131" on="1"/>
        <pt x="274" y="-131" on="1"/>
        <pt x="275" y="-159" on="0"/>
        <pt x="303" y="-187" on="0"/>
        <pt x="326" y="-187" on="1"/>
        <pt x="343" y="-187" on="0"/>
        <pt x="366" y="-171" on="0"/>
        <pt x="366" y="-157" on="1"/>
        <pt x="366" y="-148" on="0"/>
        <pt x="350" y="-130" on="0"/>
        <pt x="326" y="-112" on="0"/>
        <pt x="295" y="-94" on="0"/>
        <pt x="280" y="-86" on="1"/>
      </contour>
    </TTGlyph>
    <TTGlyph name="Ccircumflex" xMin="28" yMin="-12" xMax="575" yMax="904">
      <component glyphName="C" x="0" y="0" flags="0x204"/>
      <component glyphName="circumflex" x="142" y="174" flags="0x4"/>
    </TTGlyph>
    <TTGlyph name="Cdotaccent" xMin="28" yMin="-12" xMax="575" yMax="854">
      <component glyphName="C" x="0" y="0" flags="0x204"/>
      <component glyphName="dotaccent.cap" x="150" y="0" flags="0x4"/>
    </TTGlyph>
    <TTGlyph name="D" xMin="38" yMin="-12" xMax="665" yMax="647">
      <contour>
        <pt x="318" y="-12" on="1"/>
        <pt x="291" y="-9" on="0"/>
        <pt x="264" y="-6" on="1"/>
        <pt x="241" y="-4" on="0"/>
        <pt x="188" y="0" on="0"/>
        <pt x="167" y="0" on="1"/>
        <pt x="147" y="0" on="0"/>
        <pt x="103" y="-3" on="0"/>
        <pt x="83" y="-5" on="1"/>
        <pt x="60" y="-8" on="0"/>
        <pt x="38" y="-10" on="1"/>
        <pt x="45" y="58" on="1"/>
        <pt x="88" y="66" on="0"/>
        <pt x="117" y="101" on="0"/>
        <pt x="117" y="143" on="1"/>
        <pt x="118" y="522" on="1"/>
        <pt x="118" y="554" on="0"/>
        <pt x="105" y="576" on="0"/>
        <pt x="86" y="576" on="1"/>
        <pt x="81" y="576" on="0"/>
        <pt x="70" y="575" on="0"/>
        <pt x="65" y="575" on="1"/>
        <pt x="59" y="574" on="0"/>
        <pt x="53" y="574" on="1"/>
        <pt x="47" y="583" on="1"/>
        <pt x="55" y="645" on="1"/>
        <pt x="80" y="644" on="0"/>
        <pt x="104" y="643" on="1"/>
        <pt x="124" y="642" on="0"/>
        <pt x="168" y="642" on="0"/>
        <pt x="183" y="642" on="1"/>
        <pt x="200" y="642" on="0"/>
        <pt x="254" y="643" on="0"/>
        <pt x="280" y="644" on="1"/>
        <pt x="310" y="645" on="0"/>
        <pt x="342" y="647" on="1"/>
        <pt x="418" y="647" on="0"/>
        <pt x="538" y="606" on="0"/>
        <pt x="621" y="529" on="0"/>
        <pt x="665" y="417" on="0"/>
        <pt x="665" y="347" on="1"/>
        <pt x="665" y="268" on="0"/>
        <pt x="614" y="136" on="0"/>
        <pt x="522" y="41" on="0"/>
        <pt x="394" y="-12" on="0"/>
      </contour>
      <contour>
        <pt x="289" y="560" on="1"/>
        <pt x="272" y="560" on="0"/>
        <pt x="261" y="550" on="0"/>
        <pt x="260" y="536" on="1"/>
        <pt x="254" y="409" on="0"/>
        <pt x="247" y="213" on="0"/>
        <pt x="247" y="146" on="1"/>
        <pt x="247" y="125" on="0"/>
        <pt x="254" y="97" on="0"/>
        <pt x="273" y="81" on="0"/>
        <pt x="305" y="75" on="0"/>
        <pt x="330" y="75" on="1"/>
        <pt x="418" y="75" on="0"/>
        <pt x="508" y="195" on="0"/>
        <pt x="508" y="316" on="1"/>
        <pt x="508" y="444" on="0"/>
        <pt x="401" y="560" on="0"/>
      </contour>
    </TTGlyph>
    <TTGlyph name="Dcaron" xMin="38" yMin="-12" xMax="665" yMax="865">
      <component glyphName="D" x="0" y="0" flags="0x204"/>
      <component glyphName="caron.cap" x="140" y="0" flags="0x4"/>
    </TTGlyph>
    <TTGlyph name="Dcroat" xMin="8" yMin="-12" xMax="680" yMax="647">
      <contour>
        <pt x="333" y="-12" on="1"/>
        <pt x="305" y="-9" on="0"/>
        <pt x="278" y="-6" on="1"/>
        <pt x="255" y="-4" on="0"/>
        <pt x="202" y="0" on="0"/>
        <pt x="181" y="0" on="1"/>
        <pt x="161" y="0" on="0"/>
        <pt x="116" y="-3" on="0"/>
        <pt x="97" y="-5" on="1"/>
        <pt x="74" y="-8" on="0"/>
        <pt x="53" y="-10" on="1"/>
        <pt x="60" y="58" on="1"/>
        <pt x="82" y="62" on="0"/>
        <pt x="111" y="74" on="0"/>
        <pt x="126" y="96" on="0"/>
        <pt x="132" y="133" on="0"/>
        <pt x="132" y="162" on="1"/>
        <pt x="132" y="286" on="1"/>
        <pt x="16" y="286" on="1"/>
        <pt x="8" y="293" on="1"/>
        <pt x="18" y="353" on="1"/>
        <pt x="132" y="353" on="1"/>
        <pt x="132" y="522" on="1"/>
        <pt x="132" y="554" on="0"/>
        <pt x="120" y="576" on="0"/>
        <pt x="101" y="576" on="1"/>
        <pt x="96" y="576" on="0"/>
        <pt x="85" y="575" on="0"/>
        <pt x="80" y="575" on="1"/>
        <pt x="74" y="574" on="0"/>
        <pt x="68" y="574" on="1"/>
        <pt x="62" y="583" on="1"/>
        <pt x="70" y="645" on="1"/>
        <pt x="95" y="644" on="0"/>
        <pt x="119" y="643" on="1"/>
        <pt x="139" y="642" on="0"/>
        <pt x="183" y="642" on="0"/>
        <pt x="198" y="642" on="1"/>
        <pt x="213" y="642" on="0"/>
        <pt x="266" y="643" on="0"/>
        <pt x="292" y="644" on="1"/>
        <pt x="322" y="645" on="0"/>
        <pt x="356" y="647" on="1"/>
        <pt x="431" y="647" on="0"/>
        <pt x="551" y="606" on="0"/>
        <pt x="635" y="528" on="0"/>
        <pt x="680" y="417" on="0"/>
        <pt x="680" y="347" on="1"/>
        <pt x="680" y="268" on="0"/>
        <pt x="629" y="136" on="0"/>
        <pt x="537" y="41" on="0"/>
        <pt x="409" y="-12" on="0"/>
      </contour>
      <contour>
        <pt x="266" y="353" on="1"/>
        <pt x="391" y="355" on="1"/>
        <pt x="397" y="346" on="1"/>
        <pt x="391" y="286" on="1"/>
        <pt x="264" y="286" on="1"/>
        <pt x="262" y="146" on="1"/>
        <pt x="262" y="125" on="0"/>
        <pt x="269" y="97" on="0"/>
        <pt x="288" y="81" on="0"/>
        <pt x="320" y="75" on="0"/>
        <pt x="345" y="75" on="1"/>
        <pt x="433" y="75" on="0"/>
        <pt x="522" y="195" on="0"/>
        <pt x="522" y="316" on="1"/>
        <pt x="522" y="444" on="0"/>
        <pt x="415" y="560" on="0"/>
        <pt x="303" y="560" on="1"/>
        <pt x="286" y="560" on="0"/>
        <pt x="275" y="550" on="0"/>
        <pt x="274" y="536" on="1"/>
      </contour>
    </TTGlyph>
    <TTGlyph name="Delta" xMin="10" yMin="0" xMax="581" yMax="654">
      <contour>
        <pt x="10" y="13" on="1"/>
        <pt x="229" y="637" on="1"/>
        <pt x="389" y="654" on="1"/>
        <pt x="398" y="654" on="1"/>
        <pt x="427" y="541" on="0"/>
        <pt x="458" y="427" on="1"/>
        <pt x="471" y="378" on="0"/>
        <pt x="501" y="271" on="0"/>
        <pt x="532" y="162" on="0"/>
        <pt x="565" y="55" on="0"/>
        <pt x="581" y="7" on="1"/>
        <pt x="573" y="0" on="1"/>
        <pt x="20" y="0" on="1"/>
      </contour>
      <contour>
        <pt x="286" y="519" on="1"/>
        <pt x="152" y="95" on="1"/>
        <pt x="408" y="95" on="1"/>
        <pt x="301" y="519" on="1"/>
      </contour>
    </TTGlyph>
    <TTGlyph name="E" xMin="36" yMin="-10" xMax="559" yMax="654">
      <contour>
        <pt x="247" y="139" on="1"/>
        <pt x="247" y="119" on="0"/>
        <pt x="251" y="95" on="0"/>
        <pt x="264" y="83" on="0"/>
        <pt x="290" y="79" on="0"/>
        <pt x="311" y="79" on="1"/>
        <pt x="357" y="79" on="0"/>
        <pt x="414" y="86" on="0"/>
        <pt x="447" y="110" on="0"/>
        <pt x="462" y="155" on="0"/>
        <pt x="467" y="193" on="1"/>
        <pt x="552" y="200" on="1"/>
        <pt x="559" y="190" on="1"/>
        <pt x="554" y="163" on="0"/>
        <pt x="549" y="133" on="1"/>
        <pt x="544" y="107" on="0"/>
        <pt x="535" y="40" on="0"/>
        <pt x="531" y="4" on="1"/>
        <pt x="522" y="-7" on="1"/>
        <pt x="467" y="-6" on="0"/>
        <pt x="412" y="-4" on="1"/>
        <pt x="364" y="-2" on="0"/>
        <pt x="257" y="0" on="0"/>
        <pt x="210" y="0" on="1"/>
        <pt x="176" y="0" on="0"/>
        <pt x="114" y="-3" on="0"/>
        <pt x="90" y="-5" on="1"/>
        <pt x="62" y="-8" on="0"/>
        <pt x="36" y="-10" on="1"/>
        <pt x="44" y="58" on="1"/>
        <pt x="86" y="64" on="0"/>
        <pt x="116" y="100" on="0"/>
        <pt x="116" y="144" on="1"/>
        <pt x="117" y="523" on="1"/>
        <pt x="117" y="555" on="0"/>
        <pt x="104" y="577" on="0"/>
        <pt x="84" y="577" on="1"/>
        <pt x="79" y="577" on="0"/>
        <pt x="70" y="576" on="0"/>
        <pt x="65" y="576" on="1"/>
        <pt x="60" y="575" on="0"/>
        <pt x="54" y="575" on="1"/>
        <pt x="47" y="584" on="1"/>
        <pt x="55" y="645" on="1"/>
        <pt x="86" y="644" on="0"/>
        <pt x="119" y="643" on="1"/>
        <pt x="147" y="642" on="0"/>
        <pt x="211" y="642" on="0"/>
        <pt x="240" y="642" on="1"/>
        <pt x="452" y="642" on="0"/>
        <pt x="544" y="654" on="1"/>
        <pt x="552" y="643" on="1"/>
        <pt x="546" y="617" on="0"/>
        <pt x="542" y="587" on="1"/>
        <pt x="538" y="561" on="0"/>
        <pt x="531" y="496" on="0"/>
        <pt x="529" y="461" on="1"/>
        <pt x="437" y="455" on="1"/>
        <pt x="437" y="463" on="0"/>
        <pt x="438" y="470" on="1"/>
        <pt x="438" y="476" on="0"/>
        <pt x="439" y="490" on="0"/>
        <pt x="439" y="495" on="1"/>
        <pt x="439" y="516" on="0"/>
        <pt x="431" y="540" on="0"/>
        <pt x="405" y="554" on="0"/>
        <pt x="355" y="558" on="0"/>
        <pt x="313" y="558" on="1"/>
        <pt x="295" y="558" on="0"/>
        <pt x="275" y="556" on="0"/>
        <pt x="264" y="549" on="0"/>
        <pt x="260" y="536" on="0"/>
        <pt x="260" y="525" on="1"/>
        <pt x="253" y="370" on="1"/>
        <pt x="269" y="370" on="0"/>
        <pt x="324" y="369" on="0"/>
        <pt x="346" y="369" on="1"/>
        <pt x="358" y="369" on="0"/>
        <pt x="397" y="371" on="0"/>
        <pt x="416" y="373" on="1"/>
        <pt x="438" y="375" on="0"/>
        <pt x="462" y="377" on="1"/>
        <pt x="470" y="368" on="1"/>
        <pt x="456" y="282" on="1"/>
        <pt x="433" y="282" on="0"/>
        <pt x="410" y="283" on="1"/>
        <pt x="390" y="284" on="0"/>
        <pt x="345" y="285" on="0"/>
        <pt x="326" y="285" on="1"/>
        <pt x="303" y="285" on="0"/>
        <pt x="263" y="281" on="0"/>
        <pt x="250" y="279" on="1"/>
        <pt x="248" y="224" on="0"/>
        <pt x="247" y="159" on="0"/>
      </contour>
    </TTGlyph>
    <TTGlyph name="Eacute" xMin="36" yMin="-10" xMax="559" yMax="857">
      <component glyphName="E" x="0" y="0" flags="0x204"/>
      <component glyphName="acute.cap" x="133" y="0" flags="0x4"/>
    </TTGlyph>
    <TTGlyph name="Ebreve" xMin="36" yMin="-10" xMax="559" yMax="880">
      <component glyphName="E" x="0" y="0" flags="0x204"/>
      <component glyphName="breve" x="128" y="170" flags="0x4"/>
    </TTGlyph>
    <TTGlyph name="Ecaron" xMin="36" yMin="-10" xMax="559" yMax="865">
      <component glyphName="E" x="0" y="0" flags="0x204"/>
      <component glyphName="caron.cap" x="119" y="0" flags="0x4"/>
    </TTGlyph>
    <TTGlyph name="Ecircumflex" xMin="36" yMin="-10" xMax="559" yMax="877">
      <component glyphName="E" x="0" y="0" flags="0x204"/>
      <component glyphName="circumflex.cap" x="120" y="0" flags="0x4"/>
    </TTGlyph>
    <TTGlyph name="Edieresis" xMin="36" yMin="-10" xMax="559" yMax="834">
      <component glyphName="E" x="0" y="0" flags="0x204"/>
      <component glyphName="dieresis.cap" x="119" y="0" flags="0x4"/>
    </TTGlyph>
    <TTGlyph name="Edotaccent" xMin="36" yMin="-10" xMax="559" yMax="854">
      <component glyphName="E" x="0" y="0" flags="0x204"/>
      <component glyphName="dotaccent.cap" x="120" y="0" flags="0x4"/>
    </TTGlyph>
    <TTGlyph name="Egrave" xMin="36" yMin="-10" xMax="559" yMax="857">
      <component glyphName="E" x="0" y="0" flags="0x204"/>
      <component glyphName="grave.cap" x="111" y="0" flags="0x4"/>
    </TTGlyph>
    <TTGlyph name="Emacron" xMin="36" yMin="-10" xMax="559" yMax="800">
      <component glyphName="E" x="0" y="0" flags="0x204"/>
      <component glyphName="macron.cap" x="118" y="0" flags="0x4"/>
    </TTGlyph>
    <TTGlyph name="Eng" xMin="36" yMin="-163" xMax="710" yMax="648">
      <contour>
        <pt x="155" y="642" on="1"/>
        <pt x="167" y="642" on="0"/>
        <pt x="200" y="643" on="0"/>
        <pt x="215" y="644" on="1"/>
        <pt x="233" y="645" on="0"/>
        <pt x="251" y="646" on="1"/>
        <pt x="296" y="572" on="0"/>
        <pt x="391" y="423" on="0"/>
        <pt x="431" y="363" on="1"/>
        <pt x="478" y="293" on="0"/>
        <pt x="523" y="228" on="1"/>
        <pt x="532" y="228" on="1"/>
        <pt x="531" y="536" on="1"/>
        <pt x="531" y="559" on="0"/>
        <pt x="515" y="579" on="0"/>
        <pt x="498" y="579" on="1"/>
        <pt x="493" y="579" on="0"/>
        <pt x="481" y="578" on="0"/>
        <pt x="476" y="578" on="1"/>
        <pt x="463" y="578" on="1"/>
        <pt x="459" y="584" on="1"/>
        <pt x="467" y="646" on="1"/>
        <pt x="494" y="645" on="0"/>
        <pt x="519" y="644" on="1"/>
        <pt x="540" y="643" on="0"/>
        <pt x="583" y="642" on="0"/>
        <pt x="595" y="642" on="1"/>
        <pt x="612" y="642" on="0"/>
        <pt x="652" y="643" on="0"/>
        <pt x="669" y="645" on="1"/>
        <pt x="689" y="646" on="0"/>
        <pt x="710" y="648" on="1"/>
        <pt x="705" y="582" on="1"/>
        <pt x="670" y="577" on="0"/>
        <pt x="642" y="549" on="0"/>
        <pt x="641" y="519" on="1"/>
        <pt x="631" y="86" on="1"/>
        <pt x="629" y="36" on="0"/>
        <pt x="606" y="-41" on="0"/>
        <pt x="559" y="-102" on="0"/>
        <pt x="485" y="-147" on="0"/>
        <pt x="434" y="-163" on="1"/>
        <pt x="407" y="-123" on="1"/>
        <pt x="410" y="-112" on="1"/>
        <pt x="453" y="-86" on="0"/>
        <pt x="498" y="-33" on="0"/>
        <pt x="508" y="4" on="1"/>
        <pt x="451" y="93" on="0"/>
        <pt x="351" y="246" on="0"/>
        <pt x="313" y="303" on="1"/>
        <pt x="268" y="370" on="0"/>
        <pt x="230" y="425" on="1"/>
        <pt x="221" y="425" on="1"/>
        <pt x="219" y="108" on="1"/>
        <pt x="220" y="82" on="0"/>
        <pt x="234" y="63" on="0"/>
        <pt x="254" y="63" on="1"/>
        <pt x="258" y="63" on="0"/>
        <pt x="273" y="63" on="0"/>
        <pt x="280" y="64" on="1"/>
        <pt x="288" y="64" on="0"/>
        <pt x="297" y="65" on="1"/>
        <pt x="302" y="59" on="1"/>
        <pt x="293" y="-4" on="1"/>
        <pt x="269" y="-3" on="0"/>
        <pt x="244" y="-2" on="1"/>
        <pt x="222" y="-1" on="0"/>
        <pt x="171" y="0" on="0"/>
        <pt x="148" y="0" on="1"/>
        <pt x="133" y="0" on="0"/>
        <pt x="97" y="-2" on="0"/>
        <pt x="81" y="-4" on="1"/>
        <pt x="63" y="-6" on="0"/>
        <pt x="45" y="-8" on="1"/>
        <pt x="53" y="57" on="1"/>
        <pt x="85" y="61" on="0"/>
        <pt x="111" y="93" on="0"/>
        <pt x="113" y="133" on="1"/>
        <pt x="125" y="519" on="1"/>
        <pt x="125" y="534" on="0"/>
        <pt x="118" y="555" on="0"/>
        <pt x="100" y="569" on="0"/>
        <pt x="68" y="578" on="0"/>
        <pt x="43" y="581" on="1"/>
        <pt x="36" y="591" on="1"/>
        <pt x="43" y="647" on="1"/>
        <pt x="65" y="645" on="0"/>
        <pt x="85" y="644" on="1"/>
        <pt x="102" y="643" on="0"/>
        <pt x="141" y="642" on="0"/>
      </contour>
    </TTGlyph>
    <TTGlyph name="Eogonek" xMin="36" yMin="-241" xMax="559" yMax="654">
      <contour>
        <pt x="556" y="-175" on="1"/>
        <pt x="541" y="-190" on="0"/>
        <pt x="524" y="-202" on="1"/>
        <pt x="510" y="-213" on="0"/>
        <pt x="473" y="-235" on="0"/>
        <pt x="454" y="-241" on="1"/>
        <pt x="400" y="-241" on="0"/>
        <pt x="335" y="-193" on="0"/>
        <pt x="335" y="-150" on="1"/>
        <pt x="335" y="-117" on="0"/>
        <pt x="380" y="-48" on="0"/>
        <pt x="423" y="-3" on="1"/>
        <pt x="375" y="-1" on="0"/>
        <pt x="259" y="0" on="0"/>
        <pt x="210" y="0" on="1"/>
        <pt x="176" y="0" on="0"/>
        <pt x="114" y="-3" on="0"/>
        <pt x="90" y="-5" on="1"/>
        <pt x="62" y="-8" on="0"/>
        <pt x="36" y="-10" on="1"/>
        <pt x="44" y="58" on="1"/>
        <pt x="86" y="64" on="0"/>
        <pt x="116" y="100" on="0"/>
        <pt x="116" y="144" on="1"/>
        <pt x="117" y="523" on="1"/>
        <pt x="117" y="555" on="0"/>
        <pt x="104" y="577" on="0"/>
        <pt x="84" y="577" on="1"/>
        <pt x="79" y="577" on="0"/>
        <pt x="70" y="576" on="0"/>
        <pt x="65" y="576" on="1"/>
        <pt x="60" y="575" on="0"/>
        <pt x="54" y="575" on="1"/>
        <pt x="47" y="584" on="1"/>
        <pt x="55" y="645" on="1"/>
        <pt x="86" y="644" on="0"/>
        <pt x="119" y="643" on="1"/>
        <pt x="147" y="642" on="0"/>
        <pt x="211" y="642" on="0"/>
        <pt x="240" y="642" on="1"/>
        <pt x="452" y="642" on="0"/>
        <pt x="544" y="654" on="1"/>
        <pt x="552" y="643" on="1"/>
        <pt x="546" y="617" on="0"/>
        <pt x="542" y="587" on="1"/>
        <pt x="538" y="561" on="0"/>
        <pt x="531" y="496" on="0"/>
        <pt x="529" y="461" on="1"/>
        <pt x="437" y="455" on="1"/>
        <pt x="437" y="463" on="0"/>
        <pt x="438" y="470" on="1"/>
        <pt x="438" y="476" on="0"/>
        <pt x="439" y="490" on="0"/>
        <pt x="439" y="495" on="1"/>
        <pt x="439" y="516" on="0"/>
        <pt x="431" y="540" on="0"/>
        <pt x="405" y="554" on="0"/>
        <pt x="355" y="558" on="0"/>
        <pt x="313" y="558" on="1"/>
        <pt x="295" y="558" on="0"/>
        <pt x="275" y="556" on="0"/>
        <pt x="264" y="549" on="0"/>
        <pt x="260" y="536" on="0"/>
        <pt x="260" y="525" on="1"/>
        <pt x="253" y="370" on="1"/>
        <pt x="269" y="370" on="0"/>
        <pt x="324" y="369" on="0"/>
        <pt x="346" y="369" on="1"/>
        <pt x="358" y="369" on="0"/>
        <pt x="397" y="371" on="0"/>
        <pt x="416" y="373" on="1"/>
        <pt x="438" y="375" on="0"/>
        <pt x="462" y="377" on="1"/>
        <pt x="470" y="368" on="1"/>
        <pt x="456" y="282" on="1"/>
        <pt x="433" y="282" on="0"/>
        <pt x="410" y="283" on="1"/>
        <pt x="390" y="284" on="0"/>
        <pt x="345" y="285" on="0"/>
        <pt x="326" y="285" on="1"/>
        <pt x="303" y="285" on="0"/>
        <pt x="263" y="281" on="0"/>
        <pt x="250" y="279" on="1"/>
        <pt x="248" y="224" on="0"/>
        <pt x="247" y="159" on="0"/>
        <pt x="247" y="139" on="1"/>
        <pt x="247" y="119" on="0"/>
        <pt x="251" y="95" on="0"/>
        <pt x="264" y="83" on="0"/>
        <pt x="290" y="79" on="0"/>
        <pt x="311" y="79" on="1"/>
        <pt x="357" y="79" on="0"/>
        <pt x="414" y="86" on="0"/>
        <pt x="447" y="110" on="0"/>
        <pt x="462" y="155" on="0"/>
        <pt x="467" y="193" on="1"/>
        <pt x="552" y="200" on="1"/>
        <pt x="559" y="190" on="1"/>
        <pt x="554" y="163" on="0"/>
        <pt x="549" y="133" on="1"/>
        <pt x="544" y="107" on="0"/>
        <pt x="535" y="40" on="0"/>
        <pt x="531" y="4" on="1"/>
        <pt x="522" y="-7" on="1"/>
        <pt x="517" y="-6" on="0"/>
        <pt x="511" y="-6" on="1"/>
        <pt x="506" y="-6" on="0"/>
        <pt x="490" y="-6" on="0"/>
        <pt x="481" y="-5" on="1"/>
        <pt x="445" y="-48" on="0"/>
        <pt x="416" y="-98" on="0"/>
        <pt x="416" y="-122" on="1"/>
        <pt x="416" y="-143" on="0"/>
        <pt x="443" y="-170" on="0"/>
        <pt x="466" y="-170" on="1"/>
        <pt x="479" y="-170" on="0"/>
        <pt x="504" y="-163" on="0"/>
        <pt x="515" y="-158" on="1"/>
        <pt x="527" y="-153" on="0"/>
        <pt x="538" y="-146" on="1"/>
      </contour>
    </TTGlyph>
    <TTGlyph name="Eth" xMin="8" yMin="-12" xMax="680" yMax="647">
      <contour>
        <pt x="333" y="-12" on="1"/>
        <pt x="305" y="-9" on="0"/>
        <pt x="278" y="-6" on="1"/>
        <pt x="255" y="-4" on="0"/>
        <pt x="202" y="0" on="0"/>
        <pt x="181" y="0" on="1"/>
        <pt x="161" y="0" on="0"/>
        <pt x="116" y="-3" on="0"/>
        <pt x="97" y="-5" on="1"/>
        <pt x="74" y="-8" on="0"/>
        <pt x="53" y="-10" on="1"/>
        <pt x="60" y="58" on="1"/>
        <pt x="82" y="62" on="0"/>
        <pt x="111" y="74" on="0"/>
        <pt x="126" y="96" on="0"/>
        <pt x="132" y="133" on="0"/>
        <pt x="132" y="162" on="1"/>
        <pt x="132" y="286" on="1"/>
        <pt x="16" y="286" on="1"/>
        <pt x="8" y="293" on="1"/>
        <pt x="18" y="353" on="1"/>
        <pt x="132" y="353" on="1"/>
        <pt x="132" y="522" on="1"/>
        <pt x="132" y="554" on="0"/>
        <pt x="120" y="576" on="0"/>
        <pt x="101" y="576" on="1"/>
        <pt x="96" y="576" on="0"/>
        <pt x="85" y="575" on="0"/>
        <pt x="80" y="575" on="1"/>
        <pt x="74" y="574" on="0"/>
        <pt x="68" y="574" on="1"/>
        <pt x="62" y="583" on="1"/>
        <pt x="70" y="645" on="1"/>
        <pt x="95" y="644" on="0"/>
        <pt x="119" y="643" on="1"/>
        <pt x="139" y="642" on="0"/>
        <pt x="183" y="642" on="0"/>
        <pt x="198" y="642" on="1"/>
        <pt x="213" y="642" on="0"/>
        <pt x="266" y="643" on="0"/>
        <pt x="292" y="644" on="1"/>
        <pt x="322" y="645" on="0"/>
        <pt x="356" y="647" on="1"/>
        <pt x="431" y="647" on="0"/>
        <pt x="551" y="606" on="0"/>
        <pt x="635" y="528" on="0"/>
        <pt x="680" y="417" on="0"/>
        <pt x="680" y="347" on="1"/>
        <pt x="680" y="268" on="0"/>
        <pt x="629" y="136" on="0"/>
        <pt x="537" y="41" on="0"/>
        <pt x="409" y="-12" on="0"/>
      </contour>
      <contour>
        <pt x="266" y="353" on="1"/>
        <pt x="391" y="355" on="1"/>
        <pt x="397" y="346" on="1"/>
        <pt x="391" y="286" on="1"/>
        <pt x="264" y="286" on="1"/>
        <pt x="262" y="146" on="1"/>
        <pt x="262" y="125" on="0"/>
        <pt x="269" y="97" on="0"/>
        <pt x="288" y="81" on="0"/>
        <pt x="320" y="75" on="0"/>
        <pt x="345" y="75" on="1"/>
        <pt x="433" y="75" on="0"/>
        <pt x="522" y="195" on="0"/>
        <pt x="522" y="316" on="1"/>
        <pt x="522" y="444" on="0"/>
        <pt x="415" y="560" on="0"/>
        <pt x="303" y="560" on="1"/>
        <pt x="286" y="560" on="0"/>
        <pt x="275" y="550" on="0"/>
        <pt x="274" y="536" on="1"/>
      </contour>
    </TTGlyph>
    <TTGlyph name="Euro" xMin="5" yMin="-9" xMax="533" yMax="509">
      <contour>
        <pt x="377" y="214" on="1"/>
        <pt x="373" y="166" on="1"/>
        <pt x="225" y="165" on="1"/>
        <pt x="256" y="68" on="0"/>
        <pt x="346" y="68" on="1"/>
        <pt x="390" y="68" on="0"/>
        <pt x="438" y="117" on="0"/>
        <pt x="448" y="174" on="1"/>
        <pt x="532" y="180" on="1"/>
        <pt x="529" y="157" on="0"/>
        <pt x="525" y="131" on="1"/>
        <pt x="522" y="109" on="0"/>
        <pt x="516" y="56" on="0"/>
        <pt x="515" y="31" on="1"/>
        <pt x="507" y="22" on="1"/>
        <pt x="484" y="13" on="0"/>
        <pt x="455" y="6" on="1"/>
        <pt x="430" y="0" on="0"/>
        <pt x="363" y="-9" on="0"/>
        <pt x="325" y="-9" on="1"/>
        <pt x="229" y="-9" on="0"/>
        <pt x="107" y="82" on="0"/>
        <pt x="88" y="165" on="1"/>
        <pt x="12" y="165" on="1"/>
        <pt x="5" y="172" on="1"/>
        <pt x="12" y="219" on="1"/>
        <pt x="80" y="219" on="1"/>
        <pt x="80" y="237" on="1"/>
        <pt x="80" y="248" on="0"/>
        <pt x="81" y="268" on="0"/>
        <pt x="82" y="279" on="1"/>
        <pt x="12" y="279" on="1"/>
        <pt x="5" y="286" on="1"/>
        <pt x="12" y="333" on="1"/>
        <pt x="94" y="333" on="1"/>
        <pt x="120" y="416" on="0"/>
        <pt x="263" y="509" on="0"/>
        <pt x="369" y="509" on="1"/>
        <pt x="395" y="509" on="0"/>
        <pt x="451" y="503" on="0"/>
        <pt x="474" y="499" on="1"/>
        <pt x="501" y="495" on="0"/>
        <pt x="527" y="490" on="1"/>
        <pt x="533" y="479" on="1"/>
        <pt x="528" y="460" on="0"/>
        <pt x="524" y="436" on="1"/>
        <pt x="520" y="416" on="0"/>
        <pt x="512" y="362" on="0"/>
        <pt x="510" y="330" on="1"/>
        <pt x="427" y="325" on="1"/>
        <pt x="427" y="338" on="1"/>
        <pt x="427" y="344" on="0"/>
        <pt x="428" y="358" on="0"/>
        <pt x="428" y="366" on="1"/>
        <pt x="428" y="400" on="0"/>
        <pt x="385" y="430" on="0"/>
        <pt x="340" y="430" on="1"/>
        <pt x="241" y="430" on="0"/>
        <pt x="219" y="333" on="1"/>
        <pt x="370" y="337" on="1"/>
        <pt x="377" y="328" on="1"/>
        <pt x="373" y="280" on="1"/>
        <pt x="212" y="279" on="1"/>
        <pt x="212" y="264" on="1"/>
        <pt x="212" y="252" on="0"/>
        <pt x="213" y="230" on="0"/>
        <pt x="214" y="219" on="1"/>
        <pt x="218" y="219" on="1"/>
        <pt x="370" y="223" on="1"/>
      </contour>
    </TTGlyph>
    <TTGlyph name="F" xMin="36" yMin="-11" xMax="528" yMax="654">
      <contour>
        <pt x="247" y="142" on="1"/>
        <pt x="247" y="104" on="0"/>
        <pt x="264" y="78" on="0"/>
        <pt x="290" y="78" on="1"/>
        <pt x="299" y="78" on="0"/>
        <pt x="322" y="79" on="0"/>
        <pt x="332" y="80" on="1"/>
        <pt x="343" y="81" on="0"/>
        <pt x="355" y="83" on="1"/>
        <pt x="364" y="73" on="1"/>
        <pt x="353" y="-4" on="1"/>
        <pt x="323" y="-3" on="0"/>
        <pt x="294" y="-2" on="1"/>
        <pt x="269" y="-1" on="0"/>
        <pt x="216" y="0" on="0"/>
        <pt x="197" y="0" on="1"/>
        <pt x="168" y="0" on="0"/>
        <pt x="111" y="-4" on="0"/>
        <pt x="88" y="-6" on="1"/>
        <pt x="61" y="-9" on="0"/>
        <pt x="36" y="-11" on="1"/>
        <pt x="44" y="57" on="1"/>
        <pt x="86" y="65" on="0"/>
        <pt x="116" y="100" on="0"/>
        <pt x="116" y="144" on="1"/>
        <pt x="117" y="523" on="1"/>
        <pt x="117" y="555" on="0"/>
        <pt x="104" y="577" on="0"/>
        <pt x="84" y="577" on="1"/>
        <pt x="79" y="577" on="0"/>
        <pt x="70" y="576" on="0"/>
        <pt x="65" y="576" on="1"/>
        <pt x="60" y="575" on="0"/>
        <pt x="54" y="575" on="1"/>
        <pt x="47" y="584" on="1"/>
        <pt x="55" y="645" on="1"/>
        <pt x="86" y="644" on="0"/>
        <pt x="119" y="643" on="1"/>
        <pt x="147" y="642" on="0"/>
        <pt x="211" y="642" on="0"/>
        <pt x="240" y="642" on="1"/>
        <pt x="334" y="642" on="0"/>
        <pt x="477" y="648" on="0"/>
        <pt x="521" y="654" on="1"/>
        <pt x="528" y="643" on="1"/>
        <pt x="524" y="616" on="0"/>
        <pt x="520" y="586" on="1"/>
        <pt x="517" y="560" on="0"/>
        <pt x="510" y="495" on="0"/>
        <pt x="508" y="460" on="1"/>
        <pt x="417" y="454" on="1"/>
        <pt x="417" y="462" on="0"/>
        <pt x="418" y="470" on="1"/>
        <pt x="418" y="477" on="0"/>
        <pt x="419" y="490" on="0"/>
        <pt x="419" y="495" on="1"/>
        <pt x="419" y="515" on="0"/>
        <pt x="412" y="540" on="0"/>
        <pt x="389" y="553" on="0"/>
        <pt x="347" y="558" on="0"/>
        <pt x="313" y="558" on="1"/>
        <pt x="295" y="558" on="0"/>
        <pt x="275" y="556" on="0"/>
        <pt x="264" y="549" on="0"/>
        <pt x="260" y="536" on="0"/>
        <pt x="260" y="525" on="1"/>
        <pt x="253" y="353" on="1"/>
        <pt x="346" y="352" on="1"/>
        <pt x="357" y="352" on="0"/>
        <pt x="393" y="354" on="0"/>
        <pt x="410" y="356" on="1"/>
        <pt x="429" y="358" on="0"/>
        <pt x="451" y="360" on="1"/>
        <pt x="459" y="351" on="1"/>
        <pt x="445" y="265" on="1"/>
        <pt x="423" y="265" on="0"/>
        <pt x="402" y="266" on="1"/>
        <pt x="384" y="267" on="0"/>
        <pt x="343" y="268" on="0"/>
        <pt x="326" y="268" on="1"/>
        <pt x="303" y="268" on="0"/>
        <pt x="263" y="263" on="0"/>
        <pt x="250" y="261" on="1"/>
      </contour>
    </TTGlyph>
    <TTGlyph name="G" xMin="28" yMin="-12" xMax="605" yMax="654">
      <contour>
        <pt x="605" y="293" on="1"/>
        <pt x="592" y="284" on="0"/>
        <pt x="576" y="263" on="0"/>
        <pt x="567" y="227" on="0"/>
        <pt x="564" y="171" on="0"/>
        <pt x="564" y="128" on="1"/>
        <pt x="564" y="99" on="0"/>
        <pt x="567" y="55" on="0"/>
        <pt x="571" y="41" on="1"/>
        <pt x="562" y="28" on="1"/>
        <pt x="534" y="17" on="0"/>
        <pt x="498" y="8" on="1"/>
        <pt x="467" y="0" on="0"/>
        <pt x="380" y="-12" on="0"/>
        <pt x="326" y="-12" on="1"/>
        <pt x="257" y="-12" on="0"/>
        <pt x="147" y="32" on="0"/>
        <pt x="69" y="113" on="0"/>
        <pt x="28" y="230" on="0"/>
        <pt x="28" y="304" on="1"/>
        <pt x="28" y="385" on="0"/>
        <pt x="77" y="515" on="0"/>
        <pt x="169" y="606" on="0"/>
        <pt x="301" y="654" on="0"/>
        <pt x="384" y="654" on="1"/>
        <pt x="417" y="654" on="0"/>
        <pt x="487" y="646" on="0"/>
        <pt x="516" y="641" on="1"/>
        <pt x="549" y="636" on="0"/>
        <pt x="582" y="629" on="1"/>
        <pt x="589" y="616" on="1"/>
        <pt x="583" y="592" on="0"/>
        <pt x="578" y="563" on="1"/>
        <pt x="573" y="538" on="0"/>
        <pt x="565" y="471" on="0"/>
        <pt x="563" y="432" on="1"/>
        <pt x="464" y="426" on="1"/>
        <pt x="464" y="433" on="0"/>
        <pt x="465" y="442" on="1"/>
        <pt x="466" y="450" on="0"/>
        <pt x="467" y="469" on="0"/>
        <pt x="467" y="480" on="1"/>
        <pt x="467" y="522" on="0"/>
        <pt x="418" y="557" on="0"/>
        <pt x="360" y="557" on="1"/>
        <pt x="270" y="557" on="0"/>
        <pt x="183" y="450" on="0"/>
        <pt x="183" y="338" on="1"/>
        <pt x="183" y="213" on="0"/>
        <pt x="270" y="82" on="0"/>
        <pt x="351" y="82" on="1"/>
        <pt x="373" y="82" on="0"/>
        <pt x="408" y="90" on="0"/>
        <pt x="421" y="95" on="1"/>
        <pt x="436" y="100" on="0"/>
        <pt x="447" y="108" on="1"/>
        <pt x="447" y="201" on="1"/>
        <pt x="447" y="230" on="0"/>
        <pt x="430" y="249" on="0"/>
        <pt x="403" y="249" on="1"/>
        <pt x="352" y="249" on="1"/>
        <pt x="346" y="257" on="1"/>
        <pt x="357" y="329" on="1"/>
        <pt x="366" y="329" on="0"/>
        <pt x="396" y="328" on="0"/>
        <pt x="434" y="328" on="0"/>
        <pt x="475" y="327" on="0"/>
        <pt x="496" y="327" on="1"/>
        <pt x="515" y="327" on="0"/>
        <pt x="551" y="328" on="0"/>
        <pt x="580" y="330" on="0"/>
        <pt x="598" y="332" on="0"/>
        <pt x="598" y="332" on="1"/>
      </contour>
    </TTGlyph>
    <TTGlyph name="Gbreve" xMin="28" yMin="-12" xMax="605" yMax="862">
      <component glyphName="G" x="0" y="0" flags="0x204"/>
      <component glyphName="breve.cap" x="155" y="14" flags="0x4"/>
    </TTGlyph>
    <TTGlyph name="Gcircumflex" xMin="28" yMin="-12" xMax="605" yMax="904">
      <component glyphName="G" x="0" y="0" flags="0x204"/>
      <component glyphName="circumflex" x="149" y="174" flags="0x4"/>
    </TTGlyph>
    <TTGlyph name="Gcommaaccent" xMin="28" yMin="-318" xMax="605" yMax="654">
      <component glyphName="G" x="0" y="0" flags="0x204"/>
      <component glyphName="commaaccent" x="143" y="0" flags="0x4"/>
    </TTGlyph>
    <TTGlyph name="Gdotaccent" xMin="28" yMin="-12" xMax="605" yMax="854">
      <component glyphName="G" x="0" y="0" flags="0x204"/>
      <component glyphName="dotaccent.cap" x="157" y="0" flags="0x4"/>
    </TTGlyph>
    <TTGlyph name="H" xMin="37" yMin="-9" xMax="712" yMax="649">
      <contour>
        <pt x="641" y="528" on="1"/>
        <pt x="639" y="485" on="0"/>
        <pt x="634" y="380" on="0"/>
        <pt x="631" y="273" on="0"/>
        <pt x="629" y="172" on="0"/>
        <pt x="629" y="133" on="1"/>
        <pt x="629" y="94" on="0"/>
        <pt x="647" y="66" on="0"/>
        <pt x="671" y="66" on="1"/>
        <pt x="677" y="66" on="0"/>
        <pt x="690" y="66" on="0"/>
        <pt x="695" y="67" on="1"/>
        <pt x="701" y="68" on="0"/>
        <pt x="707" y="69" on="1"/>
        <pt x="712" y="61" on="1"/>
        <pt x="703" y="-3" on="1"/>
        <pt x="680" y="-3" on="0"/>
        <pt x="654" y="-2" on="1"/>
        <pt x="632" y="-1" on="0"/>
        <pt x="580" y="0" on="0"/>
        <pt x="557" y="0" on="1"/>
        <pt x="542" y="0" on="0"/>
        <pt x="495" y="-1" on="0"/>
        <pt x="472" y="-1" on="1"/>
        <pt x="446" y="-2" on="0"/>
        <pt x="418" y="-2" on="1"/>
        <pt x="426" y="64" on="1"/>
        <pt x="447" y="64" on="0"/>
        <pt x="475" y="73" on="0"/>
        <pt x="491" y="94" on="0"/>
        <pt x="498" y="129" on="0"/>
        <pt x="498" y="156" on="1"/>
        <pt x="498" y="283" on="1"/>
        <pt x="457" y="283" on="1"/>
        <pt x="440" y="283" on="0"/>
        <pt x="404" y="284" on="0"/>
        <pt x="390" y="284" on="1"/>
        <pt x="379" y="284" on="0"/>
        <pt x="334" y="281" on="0"/>
        <pt x="310" y="279" on="1"/>
        <pt x="282" y="276" on="0"/>
        <pt x="250" y="274" on="1"/>
        <pt x="248" y="133" on="1"/>
        <pt x="248" y="92" on="0"/>
        <pt x="263" y="65" on="0"/>
        <pt x="286" y="65" on="1"/>
        <pt x="293" y="65" on="0"/>
        <pt x="306" y="65" on="0"/>
        <pt x="311" y="66" on="1"/>
        <pt x="317" y="67" on="0"/>
        <pt x="322" y="68" on="1"/>
        <pt x="327" y="61" on="1"/>
        <pt x="318" y="-3" on="1"/>
        <pt x="294" y="-3" on="0"/>
        <pt x="271" y="-2" on="1"/>
        <pt x="251" y="-1" on="0"/>
        <pt x="210" y="0" on="0"/>
        <pt x="196" y="0" on="1"/>
        <pt x="173" y="0" on="0"/>
        <pt x="118" y="-2" on="0"/>
        <pt x="70" y="-5" on="0"/>
        <pt x="37" y="-8" on="0"/>
        <pt x="37" y="-9" on="1"/>
        <pt x="44" y="56" on="1"/>
        <pt x="66" y="60" on="0"/>
        <pt x="94" y="72" on="0"/>
        <pt x="110" y="91" on="0"/>
        <pt x="116" y="119" on="0"/>
        <pt x="116" y="140" on="1"/>
        <pt x="117" y="525" on="1"/>
        <pt x="117" y="557" on="0"/>
        <pt x="103" y="577" on="0"/>
        <pt x="81" y="577" on="1"/>
        <pt x="76" y="577" on="0"/>
        <pt x="66" y="576" on="0"/>
        <pt x="61" y="576" on="1"/>
        <pt x="50" y="576" on="1"/>
        <pt x="45" y="584" on="1"/>
        <pt x="53" y="643" on="1"/>
        <pt x="75" y="642" on="0"/>
        <pt x="97" y="642" on="1"/>
        <pt x="172" y="642" on="1"/>
        <pt x="191" y="642" on="0"/>
        <pt x="244" y="643" on="0"/>
        <pt x="267" y="645" on="1"/>
        <pt x="294" y="647" on="0"/>
        <pt x="323" y="649" on="1"/>
        <pt x="318" y="582" on="1"/>
        <pt x="299" y="579" on="0"/>
        <pt x="276" y="571" on="0"/>
        <pt x="264" y="556" on="0"/>
        <pt x="259" y="531" on="0"/>
        <pt x="258" y="511" on="1"/>
        <pt x="252" y="368" on="1"/>
        <pt x="380" y="366" on="1"/>
        <pt x="416" y="366" on="0"/>
        <pt x="468" y="369" on="0"/>
        <pt x="498" y="373" on="1"/>
        <pt x="498" y="525" on="1"/>
        <pt x="498" y="556" on="0"/>
        <pt x="484" y="577" on="0"/>
        <pt x="462" y="577" on="1"/>
        <pt x="457" y="577" on="0"/>
        <pt x="447" y="576" on="0"/>
        <pt x="442" y="576" on="1"/>
        <pt x="431" y="576" on="1"/>
        <pt x="426" y="584" on="1"/>
        <pt x="434" y="643" on="1"/>
        <pt x="458" y="642" on="0"/>
        <pt x="482" y="642" on="1"/>
        <pt x="562" y="642" on="1"/>
        <pt x="579" y="642" on="0"/>
        <pt x="629" y="643" on="0"/>
        <pt x="652" y="645" on="1"/>
        <pt x="679" y="647" on="0"/>
        <pt x="709" y="649" on="1"/>
        <pt x="703" y="583" on="1"/>
        <pt x="685" y="580" on="0"/>
        <pt x="661" y="573" on="0"/>
        <pt x="648" y="561" on="0"/>
        <pt x="642" y="542" on="0"/>
      </contour>
    </TTGlyph>
    <TTGlyph name="Hbar" xMin="19" yMin="-9" xMax="727" yMax="649">
      <contour>
        <pt x="638" y="502" on="1"/>
        <pt x="655" y="502" on="0"/>
        <pt x="682" y="503" on="0"/>
        <pt x="692" y="503" on="1"/>
        <pt x="703" y="503" on="0"/>
        <pt x="713" y="504" on="1"/>
        <pt x="727" y="490" on="1"/>
        <pt x="722" y="444" on="1"/>
        <pt x="636" y="444" on="1"/>
        <pt x="634" y="405" on="0"/>
        <pt x="631" y="320" on="0"/>
        <pt x="629" y="239" on="0"/>
        <pt x="628" y="163" on="0"/>
        <pt x="628" y="133" on="1"/>
        <pt x="628" y="94" on="0"/>
        <pt x="646" y="66" on="0"/>
        <pt x="670" y="66" on="1"/>
        <pt x="676" y="66" on="0"/>
        <pt x="689" y="66" on="0"/>
        <pt x="694" y="67" on="1"/>
        <pt x="700" y="68" on="0"/>
        <pt x="706" y="69" on="1"/>
        <pt x="711" y="61" on="1"/>
        <pt x="702" y="-3" on="1"/>
        <pt x="679" y="-3" on="0"/>
        <pt x="653" y="-2" on="1"/>
        <pt x="631" y="-1" on="0"/>
        <pt x="579" y="0" on="0"/>
        <pt x="556" y="0" on="1"/>
        <pt x="541" y="0" on="0"/>
        <pt x="494" y="-1" on="0"/>
        <pt x="471" y="-1" on="1"/>
        <pt x="445" y="-2" on="0"/>
        <pt x="417" y="-2" on="1"/>
        <pt x="425" y="64" on="1"/>
        <pt x="446" y="64" on="0"/>
        <pt x="474" y="73" on="0"/>
        <pt x="490" y="94" on="0"/>
        <pt x="497" y="129" on="0"/>
        <pt x="497" y="156" on="1"/>
        <pt x="497" y="283" on="1"/>
        <pt x="456" y="283" on="1"/>
        <pt x="439" y="283" on="0"/>
        <pt x="403" y="284" on="0"/>
        <pt x="389" y="284" on="1"/>
        <pt x="378" y="284" on="0"/>
        <pt x="333" y="281" on="0"/>
        <pt x="309" y="279" on="1"/>
        <pt x="281" y="276" on="0"/>
        <pt x="249" y="274" on="1"/>
        <pt x="247" y="133" on="1"/>
        <pt x="247" y="92" on="0"/>
        <pt x="262" y="65" on="0"/>
        <pt x="285" y="65" on="1"/>
        <pt x="292" y="65" on="0"/>
        <pt x="305" y="65" on="0"/>
        <pt x="310" y="66" on="1"/>
        <pt x="316" y="67" on="0"/>
        <pt x="321" y="68" on="1"/>
        <pt x="326" y="61" on="1"/>
        <pt x="317" y="-3" on="1"/>
        <pt x="293" y="-3" on="0"/>
        <pt x="270" y="-2" on="1"/>
        <pt x="250" y="-1" on="0"/>
        <pt x="209" y="0" on="0"/>
        <pt x="195" y="0" on="1"/>
        <pt x="172" y="0" on="0"/>
        <pt x="117" y="-2" on="0"/>
        <pt x="69" y="-5" on="0"/>
        <pt x="36" y="-8" on="0"/>
        <pt x="36" y="-9" on="1"/>
        <pt x="43" y="56" on="1"/>
        <pt x="65" y="60" on="0"/>
        <pt x="93" y="72" on="0"/>
        <pt x="109" y="91" on="0"/>
        <pt x="115" y="119" on="0"/>
        <pt x="115" y="140" on="1"/>
        <pt x="116" y="442" on="1"/>
        <pt x="29" y="442" on="1"/>
        <pt x="19" y="452" on="1"/>
        <pt x="27" y="500" on="1"/>
        <pt x="38" y="499" on="0"/>
        <pt x="52" y="499" on="1"/>
        <pt x="116" y="499" on="1"/>
        <pt x="116" y="525" on="1"/>
        <pt x="116" y="557" on="0"/>
        <pt x="102" y="577" on="0"/>
        <pt x="80" y="577" on="1"/>
        <pt x="75" y="577" on="0"/>
        <pt x="65" y="576" on="0"/>
        <pt x="60" y="576" on="1"/>
        <pt x="49" y="576" on="1"/>
        <pt x="44" y="584" on="1"/>
        <pt x="52" y="643" on="1"/>
        <pt x="74" y="642" on="0"/>
        <pt x="96" y="642" on="1"/>
        <pt x="171" y="642" on="1"/>
        <pt x="190" y="642" on="0"/>
        <pt x="243" y="643" on="0"/>
        <pt x="266" y="645" on="1"/>
        <pt x="293" y="647" on="0"/>
        <pt x="322" y="649" on="1"/>
        <pt x="317" y="582" on="1"/>
        <pt x="298" y="579" on="0"/>
        <pt x="275" y="571" on="0"/>
        <pt x="263" y="556" on="0"/>
        <pt x="258" y="531" on="0"/>
        <pt x="257" y="511" on="1"/>
        <pt x="256" y="499" on="1"/>
        <pt x="399" y="499" on="1"/>
        <pt x="497" y="499" on="1"/>
        <pt x="497" y="525" on="1"/>
        <pt x="497" y="556" on="0"/>
        <pt x="483" y="577" on="0"/>
        <pt x="461" y="577" on="1"/>
        <pt x="456" y="577" on="0"/>
        <pt x="446" y="576" on="0"/>
        <pt x="441" y="576" on="1"/>
        <pt x="430" y="576" on="1"/>
        <pt x="425" y="584" on="1"/>
        <pt x="433" y="643" on="1"/>
        <pt x="457" y="642" on="0"/>
        <pt x="481" y="642" on="1"/>
        <pt x="561" y="642" on="1"/>
        <pt x="578" y="642" on="0"/>
        <pt x="628" y="643" on="0"/>
        <pt x="651" y="645" on="1"/>
        <pt x="678" y="647" on="0"/>
        <pt x="708" y="649" on="1"/>
        <pt x="702" y="583" on="1"/>
        <pt x="684" y="580" on="0"/>
        <pt x="660" y="573" on="0"/>
        <pt x="647" y="561" on="0"/>
        <pt x="641" y="542" on="0"/>
        <pt x="640" y="528" on="1"/>
      </contour>
      <contour>
        <pt x="254" y="443" on="1"/>
        <pt x="251" y="368" on="1"/>
        <pt x="379" y="366" on="1"/>
        <pt x="415" y="366" on="0"/>
        <pt x="467" y="369" on="0"/>
        <pt x="497" y="373" on="1"/>
        <pt x="497" y="443" on="1"/>
        <pt x="375" y="443" on="1"/>
      </contour>
    </TTGlyph>
    <TTGlyph name="Hcircumflex" xMin="37" yMin="-9" xMax="712" yMax="930">
      <component glyphName="H" x="0" y="0" flags="0x204"/>
      <component glyphName="circumflex" x="175" y="200" flags="0x4"/>
    </TTGlyph>
    <TTGlyph name="I" xMin="36" yMin="-9" xMax="334" yMax="649">
      <contour>
        <pt x="260" y="528" on="1"/>
        <pt x="257" y="483" on="0"/>
        <pt x="253" y="378" on="0"/>
        <pt x="250" y="272" on="0"/>
        <pt x="248" y="173" on="0"/>
        <pt x="248" y="133" on="1"/>
        <pt x="248" y="92" on="0"/>
        <pt x="263" y="65" on="0"/>
        <pt x="286" y="65" on="1"/>
        <pt x="294" y="65" on="0"/>
        <pt x="310" y="65" on="0"/>
        <pt x="316" y="66" on="1"/>
        <pt x="323" y="67" on="0"/>
        <pt x="329" y="68" on="1"/>
        <pt x="334" y="61" on="1"/>
        <pt x="325" y="-3" on="1"/>
        <pt x="295" y="-3" on="0"/>
        <pt x="267" y="-2" on="1"/>
        <pt x="243" y="-1" on="0"/>
        <pt x="193" y="0" on="0"/>
        <pt x="176" y="0" on="1"/>
        <pt x="155" y="0" on="0"/>
        <pt x="106" y="-3" on="0"/>
        <pt x="85" y="-5" on="1"/>
        <pt x="60" y="-7" on="0"/>
        <pt x="36" y="-9" on="1"/>
        <pt x="43" y="56" on="1"/>
        <pt x="87" y="65" on="0"/>
        <pt x="116" y="99" on="0"/>
        <pt x="116" y="140" on="1"/>
        <pt x="117" y="525" on="1"/>
        <pt x="117" y="556" on="0"/>
        <pt x="103" y="577" on="0"/>
        <pt x="81" y="577" on="1"/>
        <pt x="76" y="577" on="0"/>
        <pt x="63" y="576" on="0"/>
        <pt x="58" y="576" on="1"/>
        <pt x="46" y="576" on="1"/>
        <pt x="41" y="584" on="1"/>
        <pt x="48" y="643" on="1"/>
        <pt x="58" y="643" on="0"/>
        <pt x="90" y="643" on="0"/>
        <pt x="129" y="642" on="0"/>
        <pt x="170" y="642" on="0"/>
        <pt x="188" y="642" on="1"/>
        <pt x="205" y="642" on="0"/>
        <pt x="252" y="643" on="0"/>
        <pt x="275" y="645" on="1"/>
        <pt x="301" y="647" on="0"/>
        <pt x="330" y="649" on="1"/>
        <pt x="324" y="582" on="1"/>
        <pt x="286" y="577" on="0"/>
        <pt x="261" y="556" on="0"/>
      </contour>
    </TTGlyph>
    <TTGlyph name="IJ" xMin="36" yMin="-154" xMax="673" yMax="650">
      <component glyphName="I" x="0" y="0" flags="0x4"/>
      <component glyphName="J" x="365" y="0" flags="0x4"/>
    </TTGlyph>
    <TTGlyph name="Iacute" xMin="36" yMin="-9" xMax="360" yMax="857">
      <component glyphName="I" x="0" y="0" flags="0x204"/>
      <component glyphName="acute.cap" x="1" y="0" flags="0x4"/>
    </TTGlyph>
    <TTGlyph name="Ibreve" xMin="36" yMin="-9" xMax="337" yMax="880">
      <component glyphName="I" x="0" y="0" flags="0x204"/>
      <component glyphName="breve" x="-10" y="170" flags="0x4"/>
    </TTGlyph>
    <TTGlyph name="Icircumflex" xMin="20" yMin="-9" xMax="354" yMax="877">
      <component glyphName="I" x="0" y="0" flags="0x204"/>
      <component glyphName="circumflex.cap" x="-12" y="0" flags="0x4"/>
    </TTGlyph>
    <TTGlyph name="Idieresis" xMin="34" yMin="-9" xMax="339" yMax="834">
      <component glyphName="I" x="0" y="0" flags="0x204"/>
      <component glyphName="dieresis.cap" x="-12" y="0" flags="0x4"/>
    </TTGlyph>
    <TTGlyph name="Idotaccent" xMin="36" yMin="-9" xMax="334" yMax="854">
      <component glyphName="I" x="0" y="0" flags="0x204"/>
      <component glyphName="dotaccent.cap" x="-11" y="0" flags="0x4"/>
    </TTGlyph>
    <TTGlyph name="Igrave" xMin="19" yMin="-9" xMax="334" yMax="857">
      <component glyphName="I" x="0" y="0" flags="0x204"/>
      <component glyphName="grave.cap" x="-20" y="0" flags="0x4"/>
    </TTGlyph>
    <TTGlyph name="Imacron" xMin="36" yMin="-9" xMax="340" yMax="800">
      <component glyphName="I" x="0" y="0" flags="0x204"/>
      <component glyphName="macron.cap" x="-13" y="0" flags="0x4"/>
    </TTGlyph>
    <TTGlyph name="Iogonek" xMin="36" yMin="-241" xMax="345" yMax="649">
      <contour>
        <pt x="345" y="-175" on="1"/>
        <pt x="330" y="-190" on="0"/>
        <pt x="313" y="-202" on="1"/>
        <pt x="299" y="-213" on="0"/>
        <pt x="262" y="-235" on="0"/>
        <pt x="243" y="-241" on="1"/>
        <pt x="189" y="-241" on="0"/>
        <pt x="124" y="-193" on="0"/>
        <pt x="124" y="-150" on="1"/>
        <pt x="124" y="-116" on="0"/>
        <pt x="170" y="-46" on="0"/>
        <pt x="215" y="0" on="1"/>
        <pt x="176" y="0" on="1"/>
        <pt x="155" y="0" on="0"/>
        <pt x="106" y="-3" on="0"/>
        <pt x="85" y="-5" on="1"/>
        <pt x="60" y="-7" on="0"/>
        <pt x="36" y="-9" on="1"/>
        <pt x="43" y="56" on="1"/>
        <pt x="87" y="65" on="0"/>
        <pt x="116" y="99" on="0"/>
        <pt x="116" y="140" on="1"/>
        <pt x="117" y="525" on="1"/>
        <pt x="117" y="556" on="0"/>
        <pt x="103" y="577" on="0"/>
        <pt x="81" y="577" on="1"/>
        <pt x="76" y="577" on="0"/>
        <pt x="63" y="576" on="0"/>
        <pt x="58" y="576" on="1"/>
        <pt x="46" y="576" on="1"/>
        <pt x="41" y="584" on="1"/>
        <pt x="48" y="643" on="1"/>
        <pt x="58" y="643" on="0"/>
        <pt x="90" y="643" on="0"/>
        <pt x="129" y="642" on="0"/>
        <pt x="170" y="642" on="0"/>
        <pt x="188" y="642" on="1"/>
        <pt x="205" y="642" on="0"/>
        <pt x="252" y="643" on="0"/>
        <pt x="275" y="645" on="1"/>
        <pt x="301" y="647" on="0"/>
        <pt x="330" y="649" on="1"/>
        <pt x="324" y="582" on="1"/>
        <pt x="286" y="577" on="0"/>
        <pt x="261" y="556" on="0"/>
        <pt x="260" y="528" on="1"/>
        <pt x="257" y="483" on="0"/>
        <pt x="253" y="378" on="0"/>
        <pt x="250" y="272" on="0"/>
        <pt x="248" y="173" on="0"/>
        <pt x="248" y="133" on="1"/>
        <pt x="248" y="92" on="0"/>
        <pt x="263" y="65" on="0"/>
        <pt x="286" y="65" on="1"/>
        <pt x="294" y="65" on="0"/>
        <pt x="310" y="65" on="0"/>
        <pt x="316" y="66" on="1"/>
        <pt x="323" y="67" on="0"/>
        <pt x="329" y="68" on="1"/>
        <pt x="334" y="61" on="1"/>
        <pt x="325" y="-3" on="1"/>
        <pt x="317" y="-2" on="0"/>
        <pt x="309" y="-2" on="1"/>
        <pt x="301" y="-2" on="0"/>
        <pt x="284" y="-2" on="0"/>
        <pt x="273" y="-1" on="1"/>
        <pt x="235" y="-46" on="0"/>
        <pt x="205" y="-98" on="0"/>
        <pt x="205" y="-122" on="1"/>
        <pt x="205" y="-143" on="0"/>
        <pt x="232" y="-170" on="0"/>
        <pt x="255" y="-170" on="1"/>
        <pt x="268" y="-170" on="0"/>
        <pt x="293" y="-163" on="0"/>
        <pt x="304" y="-158" on="1"/>
        <pt x="316" y="-153" on="0"/>
        <pt x="327" y="-146" on="1"/>
      </contour>
    </TTGlyph>
    <TTGlyph name="Itilde" xMin="7" yMin="-9" xMax="367" yMax="889">
      <component glyphName="I" x="0" y="0" flags="0x204"/>
      <component glyphName="tilde" x="-12" y="175" flags="0x4"/>
    </TTGlyph>
    <TTGlyph name="J" xMin="10" yMin="-154" xMax="308" yMax="650">
      <contour>
        <pt x="107" y="525" on="1"/>
        <pt x="107" y="557" on="0"/>
        <pt x="94" y="577" on="0"/>
        <pt x="72" y="577" on="1"/>
        <pt x="67" y="577" on="0"/>
        <pt x="54" y="576" on="0"/>
        <pt x="47" y="575" on="1"/>
        <pt x="39" y="574" on="0"/>
        <pt x="31" y="574" on="1"/>
        <pt x="25" y="582" on="1"/>
        <pt x="33" y="642" on="1"/>
        <pt x="157" y="642" on="1"/>
        <pt x="183" y="642" on="0"/>
        <pt x="236" y="644" on="0"/>
        <pt x="258" y="646" on="1"/>
        <pt x="284" y="648" on="0"/>
        <pt x="308" y="650" on="1"/>
        <pt x="302" y="582" on="1"/>
        <pt x="286" y="579" on="0"/>
        <pt x="266" y="572" on="0"/>
        <pt x="256" y="561" on="0"/>
        <pt x="251" y="543" on="0"/>
        <pt x="250" y="528" on="1"/>
        <pt x="248" y="494" on="0"/>
        <pt x="244" y="383" on="0"/>
        <pt x="240" y="260" on="0"/>
        <pt x="238" y="142" on="0"/>
        <pt x="238" y="101" on="1"/>
        <pt x="237" y="2" on="0"/>
        <pt x="142" y="-120" on="0"/>
        <pt x="38" y="-154" on="1"/>
        <pt x="10" y="-113" on="1"/>
        <pt x="12" y="-102" on="1"/>
        <pt x="40" y="-81" on="0"/>
        <pt x="77" y="-41" on="0"/>
        <pt x="98" y="10" on="0"/>
        <pt x="107" y="76" on="0"/>
        <pt x="107" y="123" on="1"/>
      </contour>
    </TTGlyph>
    <TTGlyph name="Jcircumflex" xMin="10" yMin="-154" xMax="336" yMax="904">
      <component glyphName="J" x="0" y="0" flags="0x204"/>
      <component glyphName="circumflex" x="-24" y="174" flags="0x4"/>
    </TTGlyph>
    <TTGlyph name="K" xMin="37" yMin="-15" xMax="654" yMax="649">
      <contour>
        <pt x="117" y="525" on="1"/>
        <pt x="117" y="557" on="0"/>
        <pt x="103" y="577" on="0"/>
        <pt x="81" y="577" on="1"/>
        <pt x="76" y="577" on="0"/>
        <pt x="66" y="576" on="0"/>
        <pt x="61" y="576" on="1"/>
        <pt x="50" y="576" on="1"/>
        <pt x="45" y="584" on="1"/>
        <pt x="53" y="644" on="1"/>
        <pt x="84" y="643" on="0"/>
        <pt x="110" y="643" on="1"/>
        <pt x="133" y="642" on="0"/>
        <pt x="177" y="642" on="0"/>
        <pt x="188" y="642" on="1"/>
        <pt x="204" y="642" on="0"/>
        <pt x="251" y="643" on="0"/>
        <pt x="273" y="645" on="1"/>
        <pt x="299" y="647" on="0"/>
        <pt x="326" y="649" on="1"/>
        <pt x="320" y="582" on="1"/>
        <pt x="283" y="574" on="0"/>
        <pt x="258" y="552" on="0"/>
        <pt x="257" y="524" on="1"/>
        <pt x="248" y="133" on="1"/>
        <pt x="246" y="92" on="0"/>
        <pt x="263" y="65" on="0"/>
        <pt x="286" y="65" on="1"/>
        <pt x="294" y="65" on="0"/>
        <pt x="308" y="65" on="0"/>
        <pt x="313" y="66" on="1"/>
        <pt x="319" y="67" on="0"/>
        <pt x="325" y="68" on="1"/>
        <pt x="329" y="61" on="1"/>
        <pt x="320" y="-3" on="1"/>
        <pt x="291" y="-3" on="0"/>
        <pt x="264" y="-2" on="1"/>
        <pt x="241" y="-1" on="0"/>
        <pt x="192" y="0" on="0"/>
        <pt x="176" y="0" on="1"/>
        <pt x="155" y="0" on="0"/>
        <pt x="106" y="-1" on="0"/>
        <pt x="85" y="-2" on="1"/>
        <pt x="60" y="-3" on="0"/>
        <pt x="37" y="-3" on="1"/>
        <pt x="46" y="61" on="1"/>
        <pt x="68" y="64" on="0"/>
        <pt x="95" y="74" on="0"/>
        <pt x="110" y="92" on="0"/>
        <pt x="116" y="119" on="0"/>
        <pt x="116" y="140" on="1"/>
      </contour>
      <contour>
        <pt x="270" y="338" on="1"/>
        <pt x="417" y="498" on="1"/>
        <pt x="443" y="524" on="0"/>
        <pt x="443" y="547" on="1"/>
        <pt x="443" y="562" on="0"/>
        <pt x="419" y="576" on="0"/>
        <pt x="390" y="578" on="1"/>
        <pt x="387" y="585" on="1"/>
        <pt x="395" y="647" on="1"/>
        <pt x="419" y="645" on="0"/>
        <pt x="442" y="644" on="1"/>
        <pt x="462" y="643" on="0"/>
        <pt x="504" y="642" on="0"/>
        <pt x="520" y="642" on="1"/>
        <pt x="534" y="642" on="0"/>
        <pt x="574" y="643" on="0"/>
        <pt x="593" y="644" on="1"/>
        <pt x="614" y="645" on="0"/>
        <pt x="637" y="646" on="1"/>
        <pt x="644" y="635" on="1"/>
        <pt x="636" y="578" on="1"/>
        <pt x="620" y="572" on="0"/>
        <pt x="591" y="554" on="0"/>
        <pt x="561" y="527" on="0"/>
        <pt x="526" y="489" on="0"/>
        <pt x="505" y="464" on="1"/>
        <pt x="402" y="348" on="1"/>
        <pt x="534" y="146" on="1"/>
        <pt x="563" y="101" on="0"/>
        <pt x="614" y="61" on="0"/>
        <pt x="648" y="59" on="1"/>
        <pt x="654" y="50" on="1"/>
        <pt x="646" y="-3" on="1"/>
        <pt x="618" y="-6" on="0"/>
        <pt x="594" y="-9" on="1"/>
        <pt x="574" y="-11" on="0"/>
        <pt x="536" y="-15" on="0"/>
        <pt x="529" y="-15" on="1"/>
        <pt x="497" y="-15" on="0"/>
        <pt x="445" y="25" on="0"/>
        <pt x="418" y="69" on="1"/>
        <pt x="267" y="316" on="1"/>
      </contour>
    </TTGlyph>
    <TTGlyph name="Kcommaaccent" xMin="37" yMin="-318" xMax="654" yMax="649">
      <component glyphName="K" x="0" y="0" flags="0x204"/>
      <component glyphName="commaaccent" x="155" y="0" flags="0x4"/>
    </TTGlyph>
    <TTGlyph name="L" xMin="42" yMin="-10" xMax="530" yMax="649">
      <contour>
        <pt x="213" y="0" on="1"/>
        <pt x="179" y="0" on="0"/>
        <pt x="118" y="-3" on="0"/>
        <pt x="94" y="-5" on="1"/>
        <pt x="66" y="-8" on="0"/>
        <pt x="42" y="-10" on="1"/>
        <pt x="49" y="58" on="1"/>
        <pt x="87" y="64" on="0"/>
        <pt x="116" y="100" on="0"/>
        <pt x="116" y="144" on="1"/>
        <pt x="116" y="525" on="1"/>
        <pt x="116" y="557" on="0"/>
        <pt x="102" y="577" on="0"/>
        <pt x="80" y="577" on="1"/>
        <pt x="75" y="577" on="0"/>
        <pt x="66" y="576" on="0"/>
        <pt x="61" y="576" on="1"/>
        <pt x="50" y="576" on="1"/>
        <pt x="45" y="584" on="1"/>
        <pt x="52" y="643" on="1"/>
        <pt x="62" y="643" on="0"/>
        <pt x="94" y="643" on="0"/>
        <pt x="131" y="642" on="0"/>
        <pt x="171" y="642" on="0"/>
        <pt x="188" y="642" on="1"/>
        <pt x="205" y="642" on="0"/>
        <pt x="257" y="643" on="0"/>
        <pt x="282" y="645" on="1"/>
        <pt x="311" y="647" on="0"/>
        <pt x="343" y="649" on="1"/>
        <pt x="335" y="578" on="1"/>
        <pt x="309" y="575" on="0"/>
        <pt x="280" y="566" on="0"/>
        <pt x="265" y="550" on="0"/>
        <pt x="260" y="524" on="0"/>
        <pt x="259" y="505" on="1"/>
        <pt x="256" y="464" on="0"/>
        <pt x="252" y="374" on="0"/>
        <pt x="249" y="280" on="0"/>
        <pt x="248" y="184" on="0"/>
        <pt x="248" y="139" on="1"/>
        <pt x="248" y="120" on="0"/>
        <pt x="253" y="97" on="0"/>
        <pt x="266" y="84" on="0"/>
        <pt x="290" y="79" on="0"/>
        <pt x="310" y="79" on="1"/>
        <pt x="345" y="79" on="0"/>
        <pt x="390" y="90" on="0"/>
        <pt x="418" y="123" on="0"/>
        <pt x="433" y="183" on="0"/>
        <pt x="438" y="231" on="1"/>
        <pt x="523" y="240" on="1"/>
        <pt x="530" y="230" on="1"/>
        <pt x="524" y="198" on="0"/>
        <pt x="520" y="161" on="1"/>
        <pt x="515" y="129" on="0"/>
        <pt x="507" y="48" on="0"/>
        <pt x="503" y="3" on="1"/>
        <pt x="494" y="-8" on="1"/>
        <pt x="446" y="-6" on="0"/>
        <pt x="398" y="-4" on="1"/>
        <pt x="356" y="-2" on="0"/>
        <pt x="258" y="0" on="0"/>
      </contour>
    </TTGlyph>
    <TTGlyph name="Lacute" xMin="42" yMin="-10" xMax="530" yMax="857">
      <component glyphName="L" x="0" y="0" flags="0x204"/>
      <component glyphName="acute.cap" x="5" y="0" flags="0x4"/>
    </TTGlyph>
    <TTGlyph name="Lcaron" xMin="42" yMin="-10" xMax="530" yMax="649">
      <contour>
        <pt x="213" y="0" on="1"/>
        <pt x="179" y="0" on="0"/>
        <pt x="118" y="-3" on="0"/>
        <pt x="94" y="-5" on="1"/>
        <pt x="66" y="-8" on="0"/>
        <pt x="42" y="-10" on="1"/>
        <pt x="49" y="58" on="1"/>
        <pt x="87" y="64" on="0"/>
        <pt x="116" y="100" on="0"/>
        <pt x="116" y="144" on="1"/>
        <pt x="116" y="525" on="1"/>
        <pt x="116" y="557" on="0"/>
        <pt x="102" y="577" on="0"/>
        <pt x="80" y="577" on="1"/>
        <pt x="75" y="577" on="0"/>
        <pt x="66" y="576" on="0"/>
        <pt x="61" y="576" on="1"/>
        <pt x="50" y="576" on="1"/>
        <pt x="45" y="584" on="1"/>
        <pt x="52" y="643" on="1"/>
        <pt x="62" y="643" on="0"/>
        <pt x="94" y="643" on="0"/>
        <pt x="131" y="642" on="0"/>
        <pt x="171" y="642" on="0"/>
        <pt x="188" y="642" on="1"/>
        <pt x="205" y="642" on="0"/>
        <pt x="257" y="643" on="0"/>
        <pt x="282" y="645" on="1"/>
        <pt x="311" y="647" on="0"/>
        <pt x="343" y="649" on="1"/>
        <pt x="335" y="578" on="1"/>
        <pt x="309" y="575" on="0"/>
        <pt x="280" y="566" on="0"/>
        <pt x="265" y="550" on="0"/>
        <pt x="260" y="524" on="0"/>
        <pt x="259" y="505" on="1"/>
        <pt x="256" y="464" on="0"/>
        <pt x="252" y="374" on="0"/>
        <pt x="249" y="280" on="0"/>
        <pt x="248" y="184" on="0"/>
        <pt x="248" y="139" on="1"/>
        <pt x="248" y="120" on="0"/>
        <pt x="253" y="97" on="0"/>
        <pt x="266" y="84" on="0"/>
        <pt x="290" y="79" on="0"/>
        <pt x="310" y="79" on="1"/>
        <pt x="345" y="79" on="0"/>
        <pt x="390" y="90" on="0"/>
        <pt x="418" y="123" on="0"/>
        <pt x="433" y="183" on="0"/>
        <pt x="438" y="231" on="1"/>
        <pt x="523" y="240" on="1"/>
        <pt x="530" y="230" on="1"/>
        <pt x="524" y="198" on="0"/>
        <pt x="520" y="161" on="1"/>
        <pt x="515" y="129" on="0"/>
        <pt x="507" y="48" on="0"/>
        <pt x="503" y="3" on="1"/>
        <pt x="494" y="-8" on="1"/>
        <pt x="446" y="-6" on="0"/>
        <pt x="398" y="-4" on="1"/>
        <pt x="356" y="-2" on="0"/>
        <pt x="258" y="0" on="0"/>
      </contour>
      <contour>
        <pt x="529" y="630" on="1"/>
        <pt x="524" y="598" on="0"/>
        <pt x="518" y="562" on="1"/>
        <pt x="513" y="531" on="0"/>
        <pt x="499" y="453" on="0"/>
        <pt x="490" y="413" on="1"/>
        <pt x="442" y="394" on="1"/>
        <pt x="428" y="398" on="1"/>
        <pt x="429" y="441" on="0"/>
        <pt x="427" y="523" on="0"/>
        <pt x="425" y="555" on="1"/>
        <pt x="423" y="593" on="0"/>
        <pt x="420" y="626" on="1"/>
        <pt x="521" y="640" on="1"/>
      </contour>
    </TTGlyph>
    <TTGlyph name="Lcommaaccent" xMin="42" yMin="-318" xMax="530" yMax="649">
      <component glyphName="L" x="0" y="0" flags="0x204"/>
      <component glyphName="commaaccent" x="99" y="0" flags="0x4"/>
    </TTGlyph>
    <TTGlyph name="Ldot" xMin="42" yMin="-10" xMax="534" yMax="649">
      <component glyphName="L" x="0" y="0" flags="0x4"/>
      <component glyphName="periodcentered" x="337" y="219" flags="0x4"/>
    </TTGlyph>
    <TTGlyph name="Lslash" xMin="39" yMin="-10" xMax="542" yMax="649">
      <contour>
        <pt x="225" y="0" on="1"/>
        <pt x="191" y="0" on="0"/>
        <pt x="130" y="-3" on="0"/>
        <pt x="106" y="-5" on="1"/>
        <pt x="78" y="-8" on="0"/>
        <pt x="54" y="-10" on="1"/>
        <pt x="61" y="58" on="1"/>
        <pt x="99" y="64" on="0"/>
        <pt x="128" y="100" on="0"/>
        <pt x="128" y="144" on="1"/>
        <pt x="128" y="266" on="1"/>
        <pt x="66" y="235" on="1"/>
        <pt x="56" y="237" on="1"/>
        <pt x="39" y="299" on="1"/>
        <pt x="128" y="343" on="1"/>
        <pt x="128" y="525" on="1"/>
        <pt x="128" y="557" on="0"/>
        <pt x="114" y="577" on="0"/>
        <pt x="92" y="577" on="1"/>
        <pt x="87" y="577" on="0"/>
        <pt x="78" y="576" on="0"/>
        <pt x="73" y="576" on="1"/>
        <pt x="62" y="576" on="1"/>
        <pt x="57" y="584" on="1"/>
        <pt x="64" y="643" on="1"/>
        <pt x="74" y="643" on="0"/>
        <pt x="106" y="643" on="0"/>
        <pt x="143" y="642" on="0"/>
        <pt x="183" y="642" on="0"/>
        <pt x="200" y="642" on="1"/>
        <pt x="217" y="642" on="0"/>
        <pt x="269" y="643" on="0"/>
        <pt x="294" y="645" on="1"/>
        <pt x="323" y="647" on="0"/>
        <pt x="355" y="649" on="1"/>
        <pt x="347" y="578" on="1"/>
        <pt x="321" y="575" on="0"/>
        <pt x="292" y="566" on="0"/>
        <pt x="277" y="550" on="0"/>
        <pt x="272" y="524" on="0"/>
        <pt x="271" y="505" on="1"/>
        <pt x="266" y="454" on="0"/>
        <pt x="265" y="397" on="1"/>
        <pt x="398" y="464" on="1"/>
        <pt x="406" y="460" on="1"/>
        <pt x="423" y="399" on="1"/>
        <pt x="262" y="318" on="1"/>
        <pt x="260" y="273" on="0"/>
        <pt x="260" y="183" on="0"/>
        <pt x="260" y="139" on="1"/>
        <pt x="260" y="120" on="0"/>
        <pt x="265" y="97" on="0"/>
        <pt x="278" y="84" on="0"/>
        <pt x="302" y="79" on="0"/>
        <pt x="322" y="79" on="1"/>
        <pt x="357" y="79" on="0"/>
        <pt x="402" y="90" on="0"/>
        <pt x="430" y="123" on="0"/>
        <pt x="445" y="183" on="0"/>
        <pt x="450" y="231" on="1"/>
        <pt x="535" y="240" on="1"/>
        <pt x="542" y="230" on="1"/>
        <pt x="536" y="198" on="0"/>
        <pt x="532" y="161" on="1"/>
        <pt x="527" y="129" on="0"/>
        <pt x="519" y="48" on="0"/>
        <pt x="515" y="3" on="1"/>
        <pt x="506" y="-8" on="1"/>
        <pt x="458" y="-6" on="0"/>
        <pt x="410" y="-4" on="1"/>
        <pt x="368" y="-2" on="0"/>
        <pt x="270" y="0" on="0"/>
      </contour>
    </TTGlyph>
    <TTGlyph name="M" xMin="27" yMin="-16" xMax="816" yMax="648">
      <contour>
        <pt x="368" y="-16" on="1"/>
        <pt x="345" y="57" on="0"/>
        <pt x="301" y="193" on="0"/>
        <pt x="262" y="312" on="0"/>
        <pt x="228" y="410" on="0"/>
        <pt x="215" y="445" on="1"/>
        <pt x="207" y="445" on="1"/>
        <pt x="201" y="354" on="0"/>
        <pt x="197" y="280" on="1"/>
        <pt x="195" y="248" on="0"/>
        <pt x="192" y="187" on="0"/>
        <pt x="189" y="137" on="0"/>
        <pt x="187" y="102" on="0"/>
        <pt x="187" y="98" on="1"/>
        <pt x="187" y="65" on="0"/>
        <pt x="219" y="65" on="1"/>
        <pt x="222" y="65" on="0"/>
        <pt x="233" y="65" on="0"/>
        <pt x="238" y="66" on="1"/>
        <pt x="244" y="66" on="0"/>
        <pt x="252" y="67" on="1"/>
        <pt x="258" y="61" on="1"/>
        <pt x="247" y="-4" on="1"/>
        <pt x="223" y="-3" on="0"/>
        <pt x="200" y="-2" on="1"/>
        <pt x="180" y="-1" on="0"/>
        <pt x="140" y="0" on="0"/>
        <pt x="128" y="0" on="1"/>
        <pt x="113" y="0" on="0"/>
        <pt x="77" y="-2" on="0"/>
        <pt x="62" y="-4" on="1"/>
        <pt x="44" y="-6" on="0"/>
        <pt x="27" y="-8" on="1"/>
        <pt x="34" y="59" on="1"/>
        <pt x="63" y="63" on="0"/>
        <pt x="91" y="93" on="0"/>
        <pt x="94" y="131" on="1"/>
        <pt x="95" y="140" on="0"/>
        <pt x="102" y="203" on="0"/>
        <pt x="111" y="287" on="0"/>
        <pt x="121" y="382" on="0"/>
        <pt x="129" y="465" on="0"/>
        <pt x="134" y="524" on="0"/>
        <pt x="134" y="531" on="1"/>
        <pt x="134" y="544" on="0"/>
        <pt x="128" y="562" on="0"/>
        <pt x="111" y="573" on="0"/>
        <pt x="82" y="579" on="0"/>
        <pt x="59" y="581" on="1"/>
        <pt x="54" y="587" on="1"/>
        <pt x="63" y="647" on="1"/>
        <pt x="89" y="645" on="0"/>
        <pt x="113" y="644" on="1"/>
        <pt x="133" y="643" on="0"/>
        <pt x="176" y="642" on="0"/>
        <pt x="190" y="642" on="1"/>
        <pt x="205" y="642" on="0"/>
        <pt x="243" y="643" on="0"/>
        <pt x="260" y="644" on="1"/>
        <pt x="279" y="645" on="0"/>
        <pt x="299" y="646" on="1"/>
        <pt x="322" y="561" on="0"/>
        <pt x="367" y="414" on="0"/>
        <pt x="384" y="357" on="1"/>
        <pt x="404" y="291" on="0"/>
        <pt x="423" y="235" on="1"/>
        <pt x="431" y="235" on="1"/>
        <pt x="450" y="291" on="0"/>
        <pt x="471" y="357" on="1"/>
        <pt x="489" y="414" on="0"/>
        <pt x="536" y="560" on="0"/>
        <pt x="562" y="643" on="1"/>
        <pt x="573" y="643" on="0"/>
        <pt x="603" y="642" on="0"/>
        <pt x="636" y="641" on="0"/>
        <pt x="670" y="641" on="0"/>
        <pt x="685" y="642" on="1"/>
        <pt x="699" y="642" on="0"/>
        <pt x="734" y="644" on="0"/>
        <pt x="750" y="645" on="1"/>
        <pt x="768" y="646" on="0"/>
        <pt x="786" y="648" on="1"/>
        <pt x="790" y="644" on="1"/>
        <pt x="784" y="582" on="1"/>
        <pt x="741" y="579" on="0"/>
        <pt x="711" y="557" on="0"/>
        <pt x="711" y="529" on="1"/>
        <pt x="711" y="512" on="0"/>
        <pt x="716" y="425" on="0"/>
        <pt x="723" y="316" on="0"/>
        <pt x="731" y="201" on="0"/>
        <pt x="735" y="157" on="1"/>
        <pt x="740" y="103" on="0"/>
        <pt x="760" y="66" on="0"/>
        <pt x="783" y="66" on="1"/>
        <pt x="788" y="66" on="0"/>
        <pt x="798" y="66" on="0"/>
        <pt x="803" y="67" on="1"/>
        <pt x="807" y="67" on="0"/>
        <pt x="812" y="68" on="1"/>
        <pt x="816" y="62" on="1"/>
        <pt x="807" y="-3" on="1"/>
        <pt x="789" y="-3" on="0"/>
        <pt x="771" y="-2" on="1"/>
        <pt x="756" y="-1" on="0"/>
        <pt x="720" y="0" on="0"/>
        <pt x="705" y="0" on="1"/>
        <pt x="693" y="0" on="0"/>
        <pt x="647" y="-2" on="0"/>
        <pt x="599" y="-5" on="0"/>
        <pt x="561" y="-7" on="0"/>
        <pt x="559" y="-8" on="1"/>
        <pt x="567" y="60" on="1"/>
        <pt x="596" y="63" on="0"/>
        <pt x="622" y="86" on="0"/>
        <pt x="622" y="109" on="1"/>
        <pt x="622" y="116" on="0"/>
        <pt x="620" y="153" on="0"/>
        <pt x="617" y="203" on="0"/>
        <pt x="614" y="262" on="0"/>
        <pt x="612" y="292" on="1"/>
        <pt x="608" y="362" on="0"/>
        <pt x="602" y="445" on="1"/>
        <pt x="593" y="445" on="1"/>
        <pt x="581" y="410" on="0"/>
        <pt x="546" y="313" on="0"/>
        <pt x="506" y="196" on="0"/>
        <pt x="463" y="63" on="0"/>
        <pt x="441" y="-7" on="1"/>
      </contour>
    </TTGlyph>
    <TTGlyph name="N" xMin="34" yMin="-27" xMax="711" yMax="647">
      <contour>
        <pt x="530" y="235" on="1"/>
        <pt x="528" y="534" on="1"/>
        <pt x="527" y="557" on="0"/>
        <pt x="512" y="577" on="0"/>
        <pt x="495" y="577" on="1"/>
        <pt x="484" y="577" on="0"/>
        <pt x="464" y="576" on="0"/>
        <pt x="461" y="576" on="1"/>
        <pt x="457" y="584" on="1"/>
        <pt x="464" y="646" on="1"/>
        <pt x="488" y="645" on="0"/>
        <pt x="512" y="644" on="1"/>
        <pt x="532" y="643" on="0"/>
        <pt x="576" y="642" on="0"/>
        <pt x="593" y="642" on="1"/>
        <pt x="611" y="642" on="0"/>
        <pt x="653" y="643" on="0"/>
        <pt x="670" y="644" on="1"/>
        <pt x="690" y="645" on="0"/>
        <pt x="711" y="647" on="1"/>
        <pt x="706" y="580" on="1"/>
        <pt x="673" y="575" on="0"/>
        <pt x="644" y="547" on="0"/>
        <pt x="643" y="517" on="1"/>
        <pt x="630" y="-14" on="1"/>
        <pt x="524" y="-27" on="1"/>
        <pt x="465" y="67" on="0"/>
        <pt x="360" y="228" on="0"/>
        <pt x="320" y="288" on="1"/>
        <pt x="273" y="358" on="0"/>
        <pt x="233" y="417" on="1"/>
        <pt x="223" y="417" on="1"/>
        <pt x="222" y="109" on="1"/>
        <pt x="222" y="84" on="0"/>
        <pt x="237" y="64" on="0"/>
        <pt x="256" y="64" on="1"/>
        <pt x="260" y="64" on="0"/>
        <pt x="275" y="64" on="0"/>
        <pt x="282" y="65" on="1"/>
        <pt x="290" y="66" on="0"/>
        <pt x="299" y="67" on="1"/>
        <pt x="305" y="60" on="1"/>
        <pt x="295" y="-4" on="1"/>
        <pt x="271" y="-3" on="0"/>
        <pt x="247" y="-2" on="1"/>
        <pt x="227" y="-1" on="0"/>
        <pt x="182" y="0" on="0"/>
        <pt x="166" y="0" on="1"/>
        <pt x="146" y="0" on="0"/>
        <pt x="102" y="-2" on="0"/>
        <pt x="84" y="-4" on="1"/>
        <pt x="63" y="-6" on="0"/>
        <pt x="43" y="-8" on="1"/>
        <pt x="51" y="59" on="1"/>
        <pt x="81" y="63" on="0"/>
        <pt x="109" y="92" on="0"/>
        <pt x="110" y="122" on="1"/>
        <pt x="123" y="517" on="1"/>
        <pt x="123" y="549" on="0"/>
        <pt x="91" y="574" on="0"/>
        <pt x="42" y="579" on="1"/>
        <pt x="34" y="589" on="1"/>
        <pt x="41" y="647" on="1"/>
        <pt x="61" y="645" on="0"/>
        <pt x="81" y="644" on="1"/>
        <pt x="98" y="643" on="0"/>
        <pt x="138" y="642" on="0"/>
        <pt x="157" y="642" on="1"/>
        <pt x="173" y="642" on="0"/>
        <pt x="207" y="643" on="0"/>
        <pt x="221" y="644" on="1"/>
        <pt x="238" y="645" on="0"/>
        <pt x="253" y="646" on="1"/>
        <pt x="302" y="566" on="0"/>
        <pt x="397" y="418" on="0"/>
        <pt x="435" y="361" on="1"/>
        <pt x="479" y="294" on="0"/>
        <pt x="520" y="235" on="1"/>
      </contour>
    </TTGlyph>
    <TTGlyph name="Nacute" xMin="34" yMin="-27" xMax="711" yMax="857">
      <component glyphName="N" x="0" y="0" flags="0x204"/>
      <component glyphName="acute.cap" x="193" y="0" flags="0x4"/>
    </TTGlyph>
    <TTGlyph name="Ncaron" xMin="34" yMin="-27" xMax="711" yMax="865">
      <component glyphName="N" x="0" y="0" flags="0x204"/>
      <component glyphName="caron.cap" x="178" y="0" flags="0x4"/>
    </TTGlyph>
    <TTGlyph name="Ncommaaccent" xMin="34" yMin="-318" xMax="711" yMax="647">
      <component glyphName="N" x="0" y="0" flags="0x204"/>
      <component glyphName="commaaccent" x="179" y="0" flags="0x4"/>
    </TTGlyph>
    <TTGlyph name="Ntilde" xMin="34" yMin="-27" xMax="711" yMax="853">
      <component glyphName="N" x="0" y="0" flags="0x204"/>
      <component glyphName="tilde.cap" x="179" y="0" flags="0x4"/>
    </TTGlyph>
    <TTGlyph name="O" xMin="28" yMin="-12" xMax="646" yMax="654">
      <contour>
        <pt x="340" y="75" on="1"/>
        <pt x="411" y="75" on="0"/>
        <pt x="490" y="185" on="0"/>
        <pt x="490" y="288" on="1"/>
        <pt x="490" y="422" on="0"/>
        <pt x="406" y="557" on="0"/>
        <pt x="328" y="557" on="1"/>
        <pt x="259" y="557" on="0"/>
        <pt x="183" y="447" on="0"/>
        <pt x="183" y="344" on="1"/>
        <pt x="183" y="211" on="0"/>
        <pt x="265" y="75" on="0"/>
      </contour>
      <contour>
        <pt x="315" y="-12" on="1"/>
        <pt x="248" y="-12" on="0"/>
        <pt x="142" y="32" on="0"/>
        <pt x="68" y="114" on="0"/>
        <pt x="28" y="231" on="0"/>
        <pt x="28" y="304" on="1"/>
        <pt x="28" y="383" on="0"/>
        <pt x="75" y="512" on="0"/>
        <pt x="161" y="604" on="0"/>
        <pt x="282" y="654" on="0"/>
        <pt x="356" y="654" on="1"/>
        <pt x="424" y="654" on="0"/>
        <pt x="532" y="611" on="0"/>
        <pt x="607" y="530" on="0"/>
        <pt x="646" y="414" on="0"/>
        <pt x="646" y="341" on="1"/>
        <pt x="646" y="261" on="0"/>
        <pt x="599" y="131" on="0"/>
        <pt x="512" y="39" on="0"/>
        <pt x="390" y="-12" on="0"/>
      </contour>
    </TTGlyph>
    <TTGlyph name="OE" xMin="29" yMin="-11" xMax="901" yMax="654">
      <contour>
        <pt x="589" y="139" on="1"/>
        <pt x="589" y="119" on="0"/>
        <pt x="593" y="95" on="0"/>
        <pt x="606" y="83" on="0"/>
        <pt x="632" y="79" on="0"/>
        <pt x="653" y="79" on="1"/>
        <pt x="699" y="79" on="0"/>
        <pt x="756" y="86" on="0"/>
        <pt x="789" y="110" on="0"/>
        <pt x="804" y="155" on="0"/>
        <pt x="809" y="193" on="1"/>
        <pt x="894" y="200" on="1"/>
        <pt x="901" y="190" on="1"/>
        <pt x="896" y="163" on="0"/>
        <pt x="891" y="133" on="1"/>
        <pt x="886" y="107" on="0"/>
        <pt x="877" y="40" on="0"/>
        <pt x="874" y="4" on="1"/>
        <pt x="864" y="-7" on="1"/>
        <pt x="808" y="-5" on="0"/>
        <pt x="753" y="-3" on="1"/>
        <pt x="705" y="-1" on="0"/>
        <pt x="596" y="2" on="0"/>
        <pt x="550" y="2" on="1"/>
        <pt x="482" y="2" on="0"/>
        <pt x="362" y="-11" on="0"/>
        <pt x="314" y="-11" on="1"/>
        <pt x="248" y="-11" on="0"/>
        <pt x="143" y="33" on="0"/>
        <pt x="69" y="114" on="0"/>
        <pt x="29" y="231" on="0"/>
        <pt x="29" y="304" on="1"/>
        <pt x="29" y="383" on="0"/>
        <pt x="74" y="511" on="0"/>
        <pt x="158" y="601" on="0"/>
        <pt x="277" y="649" on="0"/>
        <pt x="351" y="649" on="1"/>
        <pt x="401" y="649" on="0"/>
        <pt x="509" y="636" on="0"/>
        <pt x="574" y="636" on="1"/>
        <pt x="676" y="636" on="0"/>
        <pt x="838" y="647" on="0"/>
        <pt x="886" y="654" on="1"/>
        <pt x="894" y="643" on="1"/>
        <pt x="888" y="617" on="0"/>
        <pt x="884" y="587" on="1"/>
        <pt x="880" y="561" on="0"/>
        <pt x="873" y="496" on="0"/>
        <pt x="871" y="461" on="1"/>
        <pt x="780" y="455" on="1"/>
        <pt x="780" y="463" on="0"/>
        <pt x="781" y="470" on="1"/>
        <pt x="781" y="476" on="0"/>
        <pt x="782" y="490" on="0"/>
        <pt x="782" y="495" on="1"/>
        <pt x="782" y="516" on="0"/>
        <pt x="774" y="540" on="0"/>
        <pt x="747" y="554" on="0"/>
        <pt x="696" y="558" on="0"/>
        <pt x="654" y="558" on="1"/>
        <pt x="636" y="558" on="0"/>
        <pt x="616" y="556" on="0"/>
        <pt x="605" y="549" on="0"/>
        <pt x="602" y="536" on="0"/>
        <pt x="602" y="525" on="1"/>
        <pt x="595" y="370" on="1"/>
        <pt x="688" y="369" on="1"/>
        <pt x="700" y="369" on="0"/>
        <pt x="739" y="371" on="0"/>
        <pt x="758" y="373" on="1"/>
        <pt x="780" y="375" on="0"/>
        <pt x="804" y="377" on="1"/>
        <pt x="812" y="368" on="1"/>
        <pt x="798" y="282" on="1"/>
        <pt x="775" y="282" on="0"/>
        <pt x="752" y="283" on="1"/>
        <pt x="732" y="284" on="0"/>
        <pt x="687" y="285" on="0"/>
        <pt x="668" y="285" on="1"/>
        <pt x="591" y="279" on="1"/>
      </contour>
      <contour>
        <pt x="337" y="73" on="1"/>
        <pt x="404" y="73" on="0"/>
        <pt x="463" y="132" on="0"/>
        <pt x="464" y="202" on="1"/>
        <pt x="465" y="454" on="1"/>
        <pt x="465" y="516" on="0"/>
        <pt x="405" y="561" on="0"/>
        <pt x="331" y="561" on="1"/>
        <pt x="261" y="561" on="0"/>
        <pt x="182" y="450" on="0"/>
        <pt x="182" y="345" on="1"/>
        <pt x="182" y="210" on="0"/>
        <pt x="262" y="73" on="0"/>
      </contour>
    </TTGlyph>
    <TTGlyph name="Oacute" xMin="28" yMin="-12" xMax="646" yMax="857">
      <component glyphName="O" x="0" y="0" flags="0x204"/>
      <component glyphName="acute.cap" x="149" y="0" flags="0x4"/>
    </TTGlyph>
    <TTGlyph name="Obreve" xMin="28" yMin="-12" xMax="646" yMax="880">
      <component glyphName="O" x="0" y="0" flags="0x204"/>
      <component glyphName="breve" x="126" y="170" flags="0x4"/>
    </TTGlyph>
    <TTGlyph name="Ocircumflex" xMin="28" yMin="-12" xMax="646" yMax="877">
      <component glyphName="O" x="0" y="0" flags="0x204"/>
      <component glyphName="circumflex.cap" x="135" y="0" flags="0x4"/>
    </TTGlyph>
    <TTGlyph name="Odieresis" xMin="28" yMin="-12" xMax="646" yMax="834">
      <component glyphName="O" x="0" y="0" flags="0x204"/>
      <component glyphName="dieresis.cap" x="135" y="0" flags="0x4"/>
    </TTGlyph>
    <TTGlyph name="Ograve" xMin="28" yMin="-12" xMax="646" yMax="857">
      <component glyphName="O" x="0" y="0" flags="0x204"/>
      <component glyphName="grave.cap" x="127" y="0" flags="0x4"/>
    </TTGlyph>
    <TTGlyph name="Ohungarumlaut" xMin="28" yMin="-12" xMax="646" yMax="857">
      <component glyphName="O" x="0" y="0" flags="0x204"/>
      <component glyphName="hungarumlaut.cap" x="141" y="0" flags="0x4"/>
    </TTGlyph>
    <TTGlyph name="Omacron" xMin="28" yMin="-12" xMax="646" yMax="800">
      <component glyphName="O" x="0" y="0" flags="0x204"/>
      <component glyphName="macron.cap" x="134" y="0" flags="0x4"/>
    </TTGlyph>
    <TTGlyph name="Omega" xMin="24" yMin="-5" xMax="831" yMax="654">
      <contour>
        <pt x="800" y="-5" on="1"/>
        <pt x="529" y="6" on="1"/>
        <pt x="473" y="-2" on="1"/>
        <pt x="456" y="47" on="1"/>
        <pt x="491" y="77" on="0"/>
        <pt x="538" y="136" on="0"/>
        <pt x="567" y="202" on="0"/>
        <pt x="580" y="282" on="0"/>
        <pt x="580" y="333" on="1"/>
        <pt x="580" y="442" on="0"/>
        <pt x="503" y="557" on="0"/>
        <pt x="431" y="557" on="1"/>
        <pt x="358" y="557" on="0"/>
        <pt x="273" y="459" on="0"/>
        <pt x="273" y="365" on="1"/>
        <pt x="273" y="253" on="0"/>
        <pt x="334" y="99" on="0"/>
        <pt x="394" y="48" on="1"/>
        <pt x="378" y="-3" on="1"/>
        <pt x="322" y="6" on="1"/>
        <pt x="54" y="-5" on="1"/>
        <pt x="36" y="14" on="1"/>
        <pt x="35" y="45" on="0"/>
        <pt x="32" y="112" on="0"/>
        <pt x="30" y="141" on="1"/>
        <pt x="27" y="174" on="0"/>
        <pt x="24" y="206" on="1"/>
        <pt x="94" y="213" on="1"/>
        <pt x="98" y="178" on="0"/>
        <pt x="111" y="129" on="0"/>
        <pt x="132" y="99" on="0"/>
        <pt x="163" y="84" on="0"/>
        <pt x="185" y="83" on="1"/>
        <pt x="258" y="79" on="1"/>
        <pt x="191" y="137" on="0"/>
        <pt x="118" y="280" on="0"/>
        <pt x="118" y="360" on="1"/>
        <pt x="118" y="423" on="0"/>
        <pt x="166" y="531" on="0"/>
        <pt x="252" y="609" on="0"/>
        <pt x="369" y="654" on="0"/>
        <pt x="437" y="654" on="1"/>
        <pt x="504" y="654" on="0"/>
        <pt x="614" y="615" on="0"/>
        <pt x="693" y="543" on="0"/>
        <pt x="737" y="443" on="0"/>
        <pt x="737" y="382" on="1"/>
        <pt x="737" y="291" on="0"/>
        <pt x="659" y="136" on="0"/>
        <pt x="586" y="78" on="1"/>
        <pt x="669" y="83" on="1"/>
        <pt x="711" y="85" on="0"/>
        <pt x="750" y="139" on="0"/>
        <pt x="759" y="206" on="1"/>
        <pt x="831" y="213" on="1"/>
        <pt x="828" y="178" on="0"/>
        <pt x="825" y="144" on="1"/>
        <pt x="823" y="114" on="0"/>
        <pt x="819" y="45" on="0"/>
        <pt x="819" y="14" on="1"/>
      </contour>
    </TTGlyph>
    <TTGlyph name="Oslash" xMin="28" yMin="-107" xMax="646" yMax="729">
      <contour>
        <pt x="132" y="47" on="1"/>
        <pt x="81" y="88" on="0"/>
        <pt x="28" y="217" on="0"/>
        <pt x="28" y="304" on="1"/>
        <pt x="28" y="383" on="0"/>
        <pt x="75" y="512" on="0"/>
        <pt x="161" y="604" on="0"/>
        <pt x="282" y="654" on="0"/>
        <pt x="356" y="654" on="1"/>
        <pt x="422" y="654" on="0"/>
        <pt x="475" y="633" on="1"/>
        <pt x="534" y="729" on="1"/>
        <pt x="596" y="700" on="1"/>
        <pt x="599" y="687" on="1"/>
        <pt x="542" y="596" on="1"/>
        <pt x="593" y="556" on="0"/>
        <pt x="646" y="427" on="0"/>
        <pt x="646" y="341" on="1"/>
        <pt x="646" y="261" on="0"/>
        <pt x="599" y="131" on="0"/>
        <pt x="512" y="39" on="0"/>
        <pt x="390" y="-12" on="0"/>
        <pt x="315" y="-12" on="1"/>
        <pt x="282" y="-12" on="0"/>
        <pt x="222" y="-1" on="0"/>
        <pt x="196" y="9" on="1"/>
        <pt x="126" y="-107" on="1"/>
        <pt x="66" y="-78" on="1"/>
        <pt x="63" y="-68" on="1"/>
      </contour>
      <contour>
        <pt x="340" y="75" on="1"/>
        <pt x="411" y="75" on="0"/>
        <pt x="490" y="185" on="0"/>
        <pt x="490" y="288" on="1"/>
        <pt x="490" y="395" on="0"/>
        <pt x="461" y="462" on="1"/>
        <pt x="254" y="107" on="1"/>
        <pt x="289" y="75" on="0"/>
      </contour>
      <contour>
        <pt x="183" y="344" on="1"/>
        <pt x="183" y="241" on="0"/>
        <pt x="209" y="175" on="1"/>
        <pt x="413" y="528" on="1"/>
        <pt x="378" y="557" on="0"/>
        <pt x="328" y="557" on="1"/>
        <pt x="259" y="557" on="0"/>
        <pt x="183" y="447" on="0"/>
      </contour>
    </TTGlyph>
    <TTGlyph name="Oslashacute" xMin="28" yMin="-107" xMax="646" yMax="863">
      <component glyphName="Oslash" x="0" y="0" flags="0x204"/>
      <component glyphName="acute.cap" x="129" y="6" flags="0x4"/>
    </TTGlyph>
    <TTGlyph name="Otilde" xMin="28" yMin="-12" xMax="646" yMax="853">
      <component glyphName="O" x="0" y="0" flags="0x204"/>
      <component glyphName="tilde.cap" x="135" y="0" flags="0x4"/>
    </TTGlyph>
    <TTGlyph name="P" xMin="39" yMin="-8" xMax="573" yMax="647">
      <contour>
        <pt x="53" y="643" on="1"/>
        <pt x="62" y="643" on="0"/>
        <pt x="91" y="643" on="0"/>
        <pt x="126" y="642" on="0"/>
        <pt x="163" y="642" on="0"/>
        <pt x="179" y="642" on="1"/>
        <pt x="193" y="642" on="0"/>
        <pt x="242" y="643" on="0"/>
        <pt x="268" y="644" on="1"/>
        <pt x="297" y="645" on="0"/>
        <pt x="331" y="647" on="1"/>
        <pt x="401" y="647" on="0"/>
        <pt x="494" y="614" on="0"/>
        <pt x="550" y="560" on="0"/>
        <pt x="573" y="491" on="0"/>
        <pt x="573" y="454" on="1"/>
        <pt x="573" y="409" on="0"/>
        <pt x="534" y="327" on="0"/>
        <pt x="468" y="264" on="0"/>
        <pt x="381" y="227" on="0"/>
        <pt x="334" y="227" on="1"/>
        <pt x="249" y="227" on="1"/>
        <pt x="248" y="153" on="1"/>
        <pt x="248" y="125" on="0"/>
        <pt x="251" y="91" on="0"/>
        <pt x="261" y="72" on="0"/>
        <pt x="279" y="65" on="0"/>
        <pt x="294" y="65" on="1"/>
        <pt x="301" y="65" on="0"/>
        <pt x="316" y="65" on="0"/>
        <pt x="323" y="66" on="1"/>
        <pt x="331" y="67" on="0"/>
        <pt x="338" y="68" on="1"/>
        <pt x="342" y="62" on="1"/>
        <pt x="332" y="-3" on="1"/>
        <pt x="307" y="-3" on="0"/>
        <pt x="283" y="-2" on="1"/>
        <pt x="263" y="-1" on="0"/>
        <pt x="220" y="0" on="0"/>
        <pt x="206" y="0" on="1"/>
        <pt x="187" y="0" on="0"/>
        <pt x="131" y="-2" on="0"/>
        <pt x="78" y="-5" on="0"/>
        <pt x="40" y="-8" on="0"/>
        <pt x="39" y="-8" on="1"/>
        <pt x="47" y="60" on="1"/>
        <pt x="87" y="67" on="0"/>
        <pt x="116" y="101" on="0"/>
        <pt x="116" y="143" on="1"/>
        <pt x="117" y="523" on="1"/>
        <pt x="117" y="555" on="0"/>
        <pt x="104" y="577" on="0"/>
        <pt x="85" y="577" on="1"/>
        <pt x="80" y="577" on="0"/>
        <pt x="67" y="576" on="0"/>
        <pt x="62" y="576" on="1"/>
        <pt x="56" y="575" on="0"/>
        <pt x="50" y="575" on="1"/>
        <pt x="45" y="583" on="1"/>
      </contour>
      <contour>
        <pt x="339" y="304" on="1"/>
        <pt x="430" y="323" on="0"/>
        <pt x="430" y="440" on="1"/>
        <pt x="430" y="503" on="0"/>
        <pt x="360" y="561" on="0"/>
        <pt x="283" y="561" on="1"/>
        <pt x="269" y="561" on="0"/>
        <pt x="262" y="556" on="0"/>
        <pt x="261" y="543" on="1"/>
        <pt x="257" y="490" on="0"/>
        <pt x="253" y="373" on="0"/>
        <pt x="251" y="316" on="1"/>
      </contour>
    </TTGlyph>
    <TTGlyph name="Q" xMin="28" yMin="-228" xMax="816" yMax="654">
      <contour>
        <pt x="315" y="-12" on="1"/>
        <pt x="248" y="-12" on="0"/>
        <pt x="142" y="32" on="0"/>
        <pt x="68" y="114" on="0"/>
        <pt x="28" y="231" on="0"/>
        <pt x="28" y="304" on="1"/>
        <pt x="28" y="383" on="0"/>
        <pt x="75" y="512" on="0"/>
        <pt x="161" y="604" on="0"/>
        <pt x="282" y="654" on="0"/>
        <pt x="356" y="654" on="1"/>
        <pt x="424" y="654" on="0"/>
        <pt x="532" y="611" on="0"/>
        <pt x="607" y="530" on="0"/>
        <pt x="646" y="414" on="0"/>
        <pt x="646" y="341" on="1"/>
        <pt x="646" y="283" on="0"/>
        <pt x="617" y="181" on="0"/>
        <pt x="564" y="97" on="0"/>
        <pt x="489" y="33" on="0"/>
        <pt x="444" y="15" on="1"/>
        <pt x="444" y="6" on="1"/>
        <pt x="526" y="-51" on="0"/>
        <pt x="657" y="-106" on="0"/>
        <pt x="712" y="-106" on="1"/>
        <pt x="729" y="-106" on="0"/>
        <pt x="760" y="-103" on="0"/>
        <pt x="772" y="-101" on="1"/>
        <pt x="785" y="-99" on="0"/>
        <pt x="797" y="-96" on="1"/>
        <pt x="805" y="-103" on="1"/>
        <pt x="816" y="-145" on="1"/>
        <pt x="785" y="-169" on="0"/>
        <pt x="759" y="-187" on="1"/>
        <pt x="736" y="-203" on="0"/>
        <pt x="693" y="-228" on="0"/>
        <pt x="682" y="-228" on="1"/>
        <pt x="649" y="-228" on="0"/>
        <pt x="588" y="-212" on="0"/>
        <pt x="509" y="-166" on="0"/>
        <pt x="398" y="-81" on="0"/>
      </contour>
      <contour>
        <pt x="340" y="75" on="1"/>
        <pt x="411" y="75" on="0"/>
        <pt x="490" y="185" on="0"/>
        <pt x="490" y="288" on="1"/>
        <pt x="490" y="422" on="0"/>
        <pt x="406" y="557" on="0"/>
        <pt x="328" y="557" on="1"/>
        <pt x="259" y="557" on="0"/>
        <pt x="183" y="447" on="0"/>
        <pt x="183" y="344" on="1"/>
        <pt x="183" y="211" on="0"/>
        <pt x="265" y="75" on="0"/>
      </contour>
    </TTGlyph>
    <TTGlyph name="R" xMin="36" yMin="-16" xMax="640" yMax="647">
      <contour>
        <pt x="249" y="251" on="1"/>
        <pt x="248" y="141" on="1"/>
        <pt x="248" y="116" on="0"/>
        <pt x="252" y="86" on="0"/>
        <pt x="267" y="70" on="0"/>
        <pt x="295" y="65" on="0"/>
        <pt x="319" y="64" on="1"/>
        <pt x="323" y="58" on="1"/>
        <pt x="313" y="-4" on="1"/>
        <pt x="313" y="-4" on="0"/>
        <pt x="284" y="-3" on="0"/>
        <pt x="242" y="-2" on="0"/>
        <pt x="196" y="-1" on="0"/>
        <pt x="179" y="-1" on="1"/>
        <pt x="156" y="-1" on="0"/>
        <pt x="106" y="-2" on="0"/>
        <pt x="85" y="-3" on="1"/>
        <pt x="60" y="-4" on="0"/>
        <pt x="36" y="-6" on="1"/>
        <pt x="45" y="61" on="1"/>
        <pt x="87" y="67" on="0"/>
        <pt x="116" y="100" on="0"/>
        <pt x="116" y="143" on="1"/>
        <pt x="117" y="528" on="1"/>
        <pt x="117" y="557" on="0"/>
        <pt x="104" y="577" on="0"/>
        <pt x="85" y="577" on="1"/>
        <pt x="80" y="577" on="0"/>
        <pt x="67" y="576" on="0"/>
        <pt x="62" y="576" on="1"/>
        <pt x="56" y="575" on="0"/>
        <pt x="50" y="575" on="1"/>
        <pt x="45" y="583" on="1"/>
        <pt x="53" y="644" on="1"/>
        <pt x="77" y="643" on="0"/>
        <pt x="101" y="643" on="1"/>
        <pt x="121" y="642" on="0"/>
        <pt x="164" y="642" on="0"/>
        <pt x="179" y="642" on="1"/>
        <pt x="194" y="642" on="0"/>
        <pt x="246" y="643" on="0"/>
        <pt x="271" y="644" on="1"/>
        <pt x="300" y="645" on="0"/>
        <pt x="332" y="647" on="1"/>
        <pt x="447" y="647" on="0"/>
        <pt x="569" y="559" on="0"/>
        <pt x="569" y="475" on="1"/>
        <pt x="569" y="415" on="0"/>
        <pt x="500" y="318" on="0"/>
        <pt x="435" y="284" on="1"/>
        <pt x="522" y="144" on="1"/>
        <pt x="550" y="99" on="0"/>
        <pt x="601" y="57" on="0"/>
        <pt x="633" y="57" on="1"/>
        <pt x="640" y="48" on="1"/>
        <pt x="633" y="-5" on="1"/>
        <pt x="514" y="-16" on="1"/>
        <pt x="448" y="-16" on="0"/>
        <pt x="405" y="77" on="1"/>
        <pt x="319" y="251" on="1"/>
      </contour>
      <contour>
        <pt x="342" y="331" on="1"/>
        <pt x="350" y="334" on="0"/>
        <pt x="378" y="349" on="0"/>
        <pt x="406" y="378" on="0"/>
        <pt x="427" y="423" on="0"/>
        <pt x="427" y="456" on="1"/>
        <pt x="427" y="564" on="0"/>
        <pt x="278" y="564" on="1"/>
        <pt x="267" y="564" on="0"/>
        <pt x="261" y="556" on="0"/>
        <pt x="260" y="542" on="1"/>
        <pt x="256" y="482" on="0"/>
        <pt x="253" y="387" on="0"/>
        <pt x="252" y="341" on="1"/>
      </contour>
    </TTGlyph>
    <TTGlyph name="Racute" xMin="36" yMin="-16" xMax="640" yMax="857">
      <component glyphName="R" x="0" y="0" flags="0x204"/>
      <component glyphName="acute.cap" x="138" y="0" flags="0x4"/>
    </TTGlyph>
    <TTGlyph name="Rcaron" xMin="36" yMin="-16" xMax="640" yMax="865">
      <component glyphName="R" x="0" y="0" flags="0x204"/>
      <component glyphName="caron.cap" x="124" y="0" flags="0x4"/>
    </TTGlyph>
    <TTGlyph name="Rcommaaccent" xMin="36" yMin="-318" xMax="640" yMax="647">
      <component glyphName="R" x="0" y="0" flags="0x204"/>
      <component glyphName="commaaccent" x="139" y="0" flags="0x4"/>
    </TTGlyph>
    <TTGlyph name="S" xMin="36" yMin="-12" xMax="499" yMax="654">
      <contour>
        <pt x="220" y="-12" on="1"/>
        <pt x="180" y="-12" on="0"/>
        <pt x="116" y="-1" on="0"/>
        <pt x="93" y="7" on="1"/>
        <pt x="66" y="15" on="0"/>
        <pt x="44" y="26" on="1"/>
        <pt x="36" y="40" on="1"/>
        <pt x="40" y="66" on="0"/>
        <pt x="44" y="94" on="1"/>
        <pt x="47" y="118" on="0"/>
        <pt x="51" y="179" on="0"/>
        <pt x="52" y="210" on="1"/>
        <pt x="136" y="217" on="1"/>
        <pt x="136" y="176" on="0"/>
        <pt x="147" y="122" on="0"/>
        <pt x="172" y="90" on="0"/>
        <pt x="214" y="77" on="0"/>
        <pt x="246" y="77" on="1"/>
        <pt x="294" y="77" on="0"/>
        <pt x="350" y="119" on="0"/>
        <pt x="350" y="154" on="1"/>
        <pt x="350" y="175" on="0"/>
        <pt x="325" y="207" on="0"/>
        <pt x="283" y="235" on="0"/>
        <pt x="230" y="260" on="0"/>
        <pt x="202" y="274" on="1"/>
        <pt x="173" y="288" on="0"/>
        <pt x="116" y="321" on="0"/>
        <pt x="71" y="364" on="0"/>
        <pt x="44" y="418" on="0"/>
        <pt x="44" y="454" on="1"/>
        <pt x="44" y="498" on="0"/>
        <pt x="84" y="571" on="0"/>
        <pt x="154" y="624" on="0"/>
        <pt x="252" y="654" on="0"/>
        <pt x="311" y="654" on="1"/>
        <pt x="349" y="654" on="0"/>
        <pt x="411" y="645" on="0"/>
        <pt x="434" y="640" on="1"/>
        <pt x="460" y="634" on="0"/>
        <pt x="483" y="627" on="1"/>
        <pt x="490" y="614" on="1"/>
        <pt x="485" y="590" on="0"/>
        <pt x="481" y="562" on="1"/>
        <pt x="477" y="538" on="0"/>
        <pt x="468" y="476" on="0"/>
        <pt x="466" y="442" on="1"/>
        <pt x="390" y="436" on="1"/>
        <pt x="381" y="443" on="1"/>
        <pt x="381" y="453" on="1"/>
        <pt x="381" y="458" on="0"/>
        <pt x="382" y="470" on="0"/>
        <pt x="382" y="478" on="1"/>
        <pt x="382" y="522" on="0"/>
        <pt x="338" y="559" on="0"/>
        <pt x="285" y="559" on="1"/>
        <pt x="243" y="559" on="0"/>
        <pt x="190" y="520" on="0"/>
        <pt x="190" y="488" on="1"/>
        <pt x="190" y="469" on="0"/>
        <pt x="212" y="438" on="0"/>
        <pt x="248" y="412" on="0"/>
        <pt x="295" y="388" on="0"/>
        <pt x="321" y="376" on="1"/>
        <pt x="352" y="361" on="0"/>
        <pt x="416" y="327" on="0"/>
        <pt x="467" y="284" on="0"/>
        <pt x="499" y="227" on="0"/>
        <pt x="499" y="190" on="1"/>
        <pt x="499" y="144" on="0"/>
        <pt x="459" y="70" on="0"/>
        <pt x="386" y="17" on="0"/>
        <pt x="283" y="-12" on="0"/>
      </contour>
    </TTGlyph>
    <TTGlyph name="Sacute" xMin="36" yMin="-12" xMax="499" yMax="857">
      <component glyphName="S" x="0" y="0" flags="0x204"/>
      <component glyphName="acute.cap" x="57" y="0" flags="0x4"/>
    </TTGlyph>
    <TTGlyph name="Scaron" xMin="36" yMin="-12" xMax="499" yMax="865">
      <component glyphName="S" x="0" y="0" flags="0x204"/>
      <component glyphName="caron.cap" x="43" y="0" flags="0x4"/>
    </TTGlyph>
    <TTGlyph name="Scedilla" xMin="36" yMin="-237" xMax="499" yMax="654">
      <contour>
        <pt x="191" y="-11" on="1"/>
        <pt x="157" y="-9" on="0"/>
        <pt x="104" y="3" on="0"/>
        <pt x="84" y="10" on="1"/>
        <pt x="61" y="17" on="0"/>
        <pt x="44" y="26" on="1"/>
        <pt x="36" y="40" on="1"/>
        <pt x="40" y="66" on="0"/>
        <pt x="44" y="94" on="1"/>
        <pt x="47" y="118" on="0"/>
        <pt x="51" y="179" on="0"/>
        <pt x="52" y="210" on="1"/>
        <pt x="136" y="217" on="1"/>
        <pt x="136" y="176" on="0"/>
        <pt x="147" y="122" on="0"/>
        <pt x="172" y="90" on="0"/>
        <pt x="214" y="77" on="0"/>
        <pt x="246" y="77" on="1"/>
        <pt x="294" y="77" on="0"/>
        <pt x="350" y="119" on="0"/>
        <pt x="350" y="154" on="1"/>
        <pt x="350" y="175" on="0"/>
        <pt x="325" y="207" on="0"/>
        <pt x="283" y="235" on="0"/>
        <pt x="230" y="260" on="0"/>
        <pt x="202" y="274" on="1"/>
        <pt x="173" y="288" on="0"/>
        <pt x="116" y="321" on="0"/>
        <pt x="71" y="364" on="0"/>
        <pt x="44" y="418" on="0"/>
        <pt x="44" y="454" on="1"/>
        <pt x="44" y="498" on="0"/>
        <pt x="84" y="571" on="0"/>
        <pt x="154" y="624" on="0"/>
        <pt x="252" y="654" on="0"/>
        <pt x="311" y="654" on="1"/>
        <pt x="349" y="654" on="0"/>
        <pt x="411" y="645" on="0"/>
        <pt x="434" y="640" on="1"/>
        <pt x="460" y="634" on="0"/>
        <pt x="483" y="627" on="1"/>
        <pt x="490" y="614" on="1"/>
        <pt x="485" y="590" on="0"/>
        <pt x="481" y="562" on="1"/>
        <pt x="477" y="538" on="0"/>
        <pt x="468" y="476" on="0"/>
        <pt x="466" y="442" on="1"/>
        <pt x="390" y="436" on="1"/>
        <pt x="381" y="443" on="1"/>
        <pt x="381" y="453" on="1"/>
        <pt x="381" y="458" on="0"/>
        <pt x="382" y="470" on="0"/>
        <pt x="382" y="478" on="1"/>
        <pt x="382" y="522" on="0"/>
        <pt x="338" y="559" on="0"/>
        <pt x="285" y="559" on="1"/>
        <pt x="243" y="559" on="0"/>
        <pt x="190" y="520" on="0"/>
        <pt x="190" y="488" on="1"/>
        <pt x="190" y="469" on="0"/>
        <pt x="212" y="438" on="0"/>
        <pt x="248" y="412" on="0"/>
        <pt x="295" y="388" on="0"/>
        <pt x="321" y="376" on="1"/>
        <pt x="352" y="361" on="0"/>
        <pt x="416" y="327" on="0"/>
        <pt x="467" y="284" on="0"/>
        <pt x="499" y="227" on="0"/>
        <pt x="499" y="190" on="1"/>
        <pt x="499" y="146" on="0"/>
        <pt x="463" y="74" on="0"/>
        <pt x="395" y="22" on="0"/>
        <pt x="300" y="-8" on="0"/>
        <pt x="242" y="-11" on="1"/>
        <pt x="233" y="-44" on="1"/>
        <pt x="247" y="-52" on="0"/>
        <pt x="281" y="-73" on="0"/>
        <pt x="310" y="-98" on="0"/>
        <pt x="329" y="-126" on="0"/>
        <pt x="329" y="-141" on="1"/>
        <pt x="329" y="-161" on="0"/>
        <pt x="307" y="-196" on="0"/>
        <pt x="269" y="-222" on="0"/>
        <pt x="221" y="-237" on="0"/>
        <pt x="196" y="-237" on="1"/>
        <pt x="183" y="-237" on="0"/>
        <pt x="156" y="-231" on="0"/>
        <pt x="133" y="-220" on="0"/>
        <pt x="118" y="-204" on="0"/>
        <pt x="118" y="-194" on="1"/>
        <pt x="118" y="-188" on="0"/>
        <pt x="125" y="-172" on="0"/>
        <pt x="136" y="-155" on="0"/>
        <pt x="149" y="-138" on="0"/>
        <pt x="155" y="-131" on="1"/>
        <pt x="164" y="-131" on="1"/>
        <pt x="165" y="-159" on="0"/>
        <pt x="193" y="-187" on="0"/>
        <pt x="216" y="-187" on="1"/>
        <pt x="233" y="-187" on="0"/>
        <pt x="256" y="-171" on="0"/>
        <pt x="256" y="-157" on="1"/>
        <pt x="256" y="-148" on="0"/>
        <pt x="240" y="-130" on="0"/>
        <pt x="216" y="-112" on="0"/>
        <pt x="185" y="-94" on="0"/>
        <pt x="170" y="-86" on="1"/>
      </contour>
    </TTGlyph>
    <TTGlyph name="Scircumflex" xMin="36" yMin="-12" xMax="499" yMax="904">
      <component glyphName="S" x="0" y="0" flags="0x204"/>
      <component glyphName="circumflex" x="94" y="174" flags="0x4"/>
    </TTGlyph>
    <TTGlyph name="Scommaaccent" xMin="36" yMin="-318" xMax="499" yMax="654">
      <component glyphName="S" x="0" y="0" flags="0x204"/>
      <component glyphName="commaaccent" x="26" y="0" flags="0x4"/>
    </TTGlyph>
    <TTGlyph name="T" xMin="5" yMin="-6" xMax="563" yMax="653">
      <contour>
        <pt x="216" y="563" on="1"/>
        <pt x="175" y="562" on="0"/>
        <pt x="129" y="553" on="0"/>
        <pt x="104" y="526" on="0"/>
        <pt x="94" y="476" on="0"/>
        <pt x="89" y="433" on="1"/>
        <pt x="5" y="427" on="1"/>
        <pt x="7" y="461" on="0"/>
        <pt x="10" y="498" on="1"/>
        <pt x="12" y="529" on="0"/>
        <pt x="15" y="605" on="0"/>
        <pt x="16" y="642" on="1"/>
        <pt x="27" y="653" on="1"/>
        <pt x="128" y="642" on="1"/>
        <pt x="439" y="642" on="1"/>
        <pt x="542" y="653" on="1"/>
        <pt x="553" y="642" on="1"/>
        <pt x="554" y="604" on="0"/>
        <pt x="557" y="530" on="0"/>
        <pt x="559" y="500" on="1"/>
        <pt x="561" y="465" on="0"/>
        <pt x="563" y="433" on="1"/>
        <pt x="479" y="427" on="1"/>
        <pt x="473" y="473" on="0"/>
        <pt x="463" y="526" on="0"/>
        <pt x="439" y="553" on="0"/>
        <pt x="396" y="562" on="0"/>
        <pt x="358" y="563" on="1"/>
        <pt x="356" y="530" on="0"/>
        <pt x="352" y="429" on="0"/>
        <pt x="349" y="313" on="0"/>
        <pt x="347" y="190" on="0"/>
        <pt x="347" y="135" on="1"/>
        <pt x="347" y="97" on="0"/>
        <pt x="372" y="67" on="0"/>
        <pt x="402" y="67" on="1"/>
        <pt x="413" y="67" on="0"/>
        <pt x="432" y="67" on="0"/>
        <pt x="440" y="68" on="1"/>
        <pt x="448" y="69" on="0"/>
        <pt x="455" y="70" on="1"/>
        <pt x="459" y="65" on="1"/>
        <pt x="450" y="-4" on="1"/>
        <pt x="415" y="-3" on="0"/>
        <pt x="382" y="-2" on="1"/>
        <pt x="354" y="-1" on="0"/>
        <pt x="296" y="0" on="0"/>
        <pt x="276" y="0" on="1"/>
        <pt x="255" y="0" on="0"/>
        <pt x="197" y="-2" on="0"/>
        <pt x="171" y="-3" on="1"/>
        <pt x="140" y="-5" on="0"/>
        <pt x="108" y="-6" on="1"/>
        <pt x="116" y="60" on="1"/>
        <pt x="149" y="63" on="0"/>
        <pt x="188" y="73" on="0"/>
        <pt x="209" y="95" on="0"/>
        <pt x="216" y="133" on="0"/>
        <pt x="216" y="165" on="1"/>
      </contour>
    </TTGlyph>
    <TTGlyph name="Tbar" xMin="5" yMin="-6" xMax="563" yMax="653">
      <contour>
        <pt x="216" y="276" on="1"/>
        <pt x="199" y="275" on="0"/>
        <pt x="168" y="275" on="0"/>
        <pt x="156" y="275" on="1"/>
        <pt x="130" y="275" on="1"/>
        <pt x="120" y="285" on="1"/>
        <pt x="128" y="333" on="1"/>
        <pt x="141" y="332" on="0"/>
        <pt x="155" y="332" on="1"/>
        <pt x="216" y="332" on="1"/>
        <pt x="216" y="563" on="1"/>
        <pt x="175" y="562" on="0"/>
        <pt x="129" y="553" on="0"/>
        <pt x="104" y="526" on="0"/>
        <pt x="94" y="476" on="0"/>
        <pt x="89" y="433" on="1"/>
        <pt x="5" y="427" on="1"/>
        <pt x="7" y="461" on="0"/>
        <pt x="10" y="498" on="1"/>
        <pt x="12" y="529" on="0"/>
        <pt x="15" y="605" on="0"/>
        <pt x="16" y="642" on="1"/>
        <pt x="27" y="653" on="1"/>
        <pt x="128" y="642" on="1"/>
        <pt x="439" y="642" on="1"/>
        <pt x="542" y="653" on="1"/>
        <pt x="553" y="642" on="1"/>
        <pt x="554" y="604" on="0"/>
        <pt x="557" y="530" on="0"/>
        <pt x="559" y="500" on="1"/>
        <pt x="561" y="465" on="0"/>
        <pt x="563" y="433" on="1"/>
        <pt x="479" y="427" on="1"/>
        <pt x="473" y="473" on="0"/>
        <pt x="463" y="526" on="0"/>
        <pt x="439" y="553" on="0"/>
        <pt x="396" y="562" on="0"/>
        <pt x="358" y="563" on="1"/>
        <pt x="355" y="524" on="0"/>
        <pt x="351" y="402" on="0"/>
        <pt x="349" y="333" on="1"/>
        <pt x="363" y="333" on="0"/>
        <pt x="389" y="334" on="0"/>
        <pt x="400" y="335" on="1"/>
        <pt x="412" y="336" on="0"/>
        <pt x="423" y="337" on="1"/>
        <pt x="437" y="323" on="1"/>
        <pt x="433" y="277" on="1"/>
        <pt x="348" y="276" on="1"/>
        <pt x="347" y="240" on="0"/>
        <pt x="347" y="168" on="0"/>
        <pt x="347" y="135" on="1"/>
        <pt x="347" y="97" on="0"/>
        <pt x="372" y="67" on="0"/>
        <pt x="402" y="67" on="1"/>
        <pt x="413" y="67" on="0"/>
        <pt x="432" y="67" on="0"/>
        <pt x="440" y="68" on="1"/>
        <pt x="448" y="69" on="0"/>
        <pt x="455" y="70" on="1"/>
        <pt x="459" y="65" on="1"/>
        <pt x="450" y="-4" on="1"/>
        <pt x="415" y="-3" on="0"/>
        <pt x="382" y="-2" on="1"/>
        <pt x="354" y="-1" on="0"/>
        <pt x="296" y="0" on="0"/>
        <pt x="276" y="0" on="1"/>
        <pt x="255" y="0" on="0"/>
        <pt x="197" y="-2" on="0"/>
        <pt x="171" y="-3" on="1"/>
        <pt x="140" y="-5" on="0"/>
        <pt x="108" y="-6" on="1"/>
        <pt x="116" y="60" on="1"/>
        <pt x="149" y="63" on="0"/>
        <pt x="188" y="73" on="0"/>
        <pt x="209" y="95" on="0"/>
        <pt x="216" y="133" on="0"/>
        <pt x="216" y="165" on="1"/>
      </contour>
    </TTGlyph>
    <TTGlyph name="Tcaron" xMin="5" yMin="-6" xMax="563" yMax="865">
      <component glyphName="T" x="0" y="0" flags="0x204"/>
      <component glyphName="caron.cap" x="89" y="0" flags="0x4"/>
    </TTGlyph>
    <TTGlyph name="Tcedilla" xMin="5" yMin="-237" xMax="563" yMax="653">
      <contour>
        <pt x="256" y="0" on="1"/>
        <pt x="233" y="-1" on="0"/>
        <pt x="183" y="-2" on="0"/>
        <pt x="160" y="-3" on="1"/>
        <pt x="134" y="-4" on="0"/>
        <pt x="108" y="-6" on="1"/>
        <pt x="116" y="60" on="1"/>
        <pt x="149" y="63" on="0"/>
        <pt x="188" y="73" on="0"/>
        <pt x="209" y="95" on="0"/>
        <pt x="216" y="133" on="0"/>
        <pt x="216" y="165" on="1"/>
        <pt x="216" y="563" on="1"/>
        <pt x="175" y="562" on="0"/>
        <pt x="129" y="553" on="0"/>
        <pt x="104" y="526" on="0"/>
        <pt x="94" y="476" on="0"/>
        <pt x="89" y="433" on="1"/>
        <pt x="5" y="427" on="1"/>
        <pt x="7" y="461" on="0"/>
        <pt x="10" y="498" on="1"/>
        <pt x="12" y="529" on="0"/>
        <pt x="15" y="605" on="0"/>
        <pt x="16" y="642" on="1"/>
        <pt x="27" y="653" on="1"/>
        <pt x="128" y="642" on="1"/>
        <pt x="439" y="642" on="1"/>
        <pt x="542" y="653" on="1"/>
        <pt x="553" y="642" on="1"/>
        <pt x="554" y="604" on="0"/>
        <pt x="557" y="530" on="0"/>
        <pt x="559" y="500" on="1"/>
        <pt x="561" y="465" on="0"/>
        <pt x="563" y="433" on="1"/>
        <pt x="479" y="427" on="1"/>
        <pt x="473" y="473" on="0"/>
        <pt x="463" y="526" on="0"/>
        <pt x="439" y="553" on="0"/>
        <pt x="396" y="562" on="0"/>
        <pt x="358" y="563" on="1"/>
        <pt x="356" y="530" on="0"/>
        <pt x="352" y="429" on="0"/>
        <pt x="349" y="313" on="0"/>
        <pt x="347" y="190" on="0"/>
        <pt x="347" y="135" on="1"/>
        <pt x="347" y="97" on="0"/>
        <pt x="372" y="67" on="0"/>
        <pt x="402" y="67" on="1"/>
        <pt x="413" y="67" on="0"/>
        <pt x="432" y="67" on="0"/>
        <pt x="440" y="68" on="1"/>
        <pt x="448" y="69" on="0"/>
        <pt x="455" y="70" on="1"/>
        <pt x="459" y="65" on="1"/>
        <pt x="450" y="-4" on="1"/>
        <pt x="426" y="-3" on="0"/>
        <pt x="401" y="-2" on="1"/>
        <pt x="380" y="-1" on="0"/>
        <pt x="329" y="-1" on="0"/>
        <pt x="307" y="0" on="1"/>
        <pt x="295" y="-44" on="1"/>
        <pt x="309" y="-52" on="0"/>
        <pt x="343" y="-73" on="0"/>
        <pt x="372" y="-98" on="0"/>
        <pt x="391" y="-126" on="0"/>
        <pt x="391" y="-141" on="1"/>
        <pt x="391" y="-161" on="0"/>
        <pt x="369" y="-196" on="0"/>
        <pt x="331" y="-222" on="0"/>
        <pt x="283" y="-237" on="0"/>
        <pt x="258" y="-237" on="1"/>
        <pt x="245" y="-237" on="0"/>
        <pt x="218" y="-231" on="0"/>
        <pt x="195" y="-220" on="0"/>
        <pt x="180" y="-204" on="0"/>
        <pt x="180" y="-194" on="1"/>
        <pt x="180" y="-188" on="0"/>
        <pt x="187" y="-172" on="0"/>
        <pt x="198" y="-155" on="0"/>
        <pt x="211" y="-138" on="0"/>
        <pt x="217" y="-131" on="1"/>
        <pt x="226" y="-131" on="1"/>
        <pt x="227" y="-159" on="0"/>
        <pt x="255" y="-187" on="0"/>
        <pt x="278" y="-187" on="1"/>
        <pt x="295" y="-187" on="0"/>
        <pt x="318" y="-171" on="0"/>
        <pt x="318" y="-157" on="1"/>
        <pt x="318" y="-148" on="0"/>
        <pt x="302" y="-130" on="0"/>
        <pt x="278" y="-112" on="0"/>
        <pt x="247" y="-94" on="0"/>
        <pt x="232" y="-86" on="1"/>
      </contour>
    </TTGlyph>
    <TTGlyph name="Thorn" xMin="36" yMin="-9" xMax="561" yMax="649">
      <contour>
        <pt x="260" y="536" on="1"/>
        <pt x="259" y="527" on="0"/>
        <pt x="258" y="517" on="0"/>
        <pt x="258" y="512" on="1"/>
        <pt x="334" y="512" on="1"/>
        <pt x="561" y="512" on="0"/>
        <pt x="561" y="336" on="1"/>
        <pt x="561" y="295" on="0"/>
        <pt x="524" y="225" on="0"/>
        <pt x="458" y="173" on="0"/>
        <pt x="370" y="144" on="0"/>
        <pt x="319" y="144" on="1"/>
        <pt x="248" y="144" on="1"/>
        <pt x="248" y="114" on="1"/>
        <pt x="248" y="84" on="0"/>
        <pt x="263" y="65" on="0"/>
        <pt x="286" y="65" on="1"/>
        <pt x="296" y="65" on="0"/>
        <pt x="313" y="65" on="0"/>
        <pt x="320" y="66" on="1"/>
        <pt x="328" y="67" on="0"/>
        <pt x="334" y="68" on="1"/>
        <pt x="338" y="61" on="1"/>
        <pt x="329" y="-3" on="1"/>
        <pt x="298" y="-3" on="0"/>
        <pt x="270" y="-2" on="1"/>
        <pt x="245" y="-1" on="0"/>
        <pt x="193" y="0" on="0"/>
        <pt x="176" y="0" on="1"/>
        <pt x="155" y="0" on="0"/>
        <pt x="106" y="-3" on="0"/>
        <pt x="85" y="-5" on="1"/>
        <pt x="60" y="-7" on="0"/>
        <pt x="36" y="-9" on="1"/>
        <pt x="43" y="56" on="1"/>
        <pt x="65" y="60" on="0"/>
        <pt x="93" y="72" on="0"/>
        <pt x="109" y="91" on="0"/>
        <pt x="116" y="119" on="0"/>
        <pt x="116" y="140" on="1"/>
        <pt x="117" y="525" on="1"/>
        <pt x="117" y="556" on="0"/>
        <pt x="103" y="577" on="0"/>
        <pt x="81" y="577" on="1"/>
        <pt x="76" y="577" on="0"/>
        <pt x="63" y="576" on="0"/>
        <pt x="58" y="576" on="1"/>
        <pt x="46" y="576" on="1"/>
        <pt x="41" y="584" on="1"/>
        <pt x="48" y="643" on="1"/>
        <pt x="58" y="643" on="0"/>
        <pt x="90" y="643" on="0"/>
        <pt x="129" y="642" on="0"/>
        <pt x="170" y="642" on="0"/>
        <pt x="188" y="642" on="1"/>
        <pt x="205" y="642" on="0"/>
        <pt x="252" y="643" on="0"/>
        <pt x="275" y="645" on="1"/>
        <pt x="301" y="647" on="0"/>
        <pt x="330" y="649" on="1"/>
        <pt x="324" y="582" on="1"/>
        <pt x="304" y="579" on="0"/>
        <pt x="280" y="572" on="0"/>
        <pt x="266" y="562" on="0"/>
        <pt x="261" y="547" on="0"/>
      </contour>
      <contour>
        <pt x="254" y="417" on="1"/>
        <pt x="252" y="362" on="0"/>
        <pt x="249" y="264" on="0"/>
        <pt x="249" y="232" on="1"/>
        <pt x="268" y="227" on="0"/>
        <pt x="317" y="218" on="0"/>
        <pt x="332" y="218" on="1"/>
        <pt x="419" y="231" on="0"/>
        <pt x="419" y="326" on="1"/>
        <pt x="419" y="381" on="0"/>
        <pt x="351" y="431" on="0"/>
        <pt x="277" y="431" on="1"/>
        <pt x="263" y="431" on="0"/>
        <pt x="255" y="425" on="0"/>
      </contour>
    </TTGlyph>
    <TTGlyph name="U" xMin="18" yMin="-12" xMax="638" yMax="648">
      <contour>
        <pt x="219" y="236" on="1"/>
        <pt x="219" y="161" on="0"/>
        <pt x="283" y="79" on="0"/>
        <pt x="343" y="79" on="1"/>
        <pt x="465" y="79" on="0"/>
        <pt x="465" y="209" on="1"/>
        <pt x="465" y="221" on="0"/>
        <pt x="465" y="262" on="0"/>
        <pt x="464" y="311" on="0"/>
        <pt x="463" y="365" on="0"/>
        <pt x="463" y="391" on="1"/>
        <pt x="462" y="453" on="0"/>
        <pt x="461" y="523" on="1"/>
        <pt x="460" y="556" on="0"/>
        <pt x="448" y="577" on="0"/>
        <pt x="429" y="577" on="1"/>
        <pt x="424" y="577" on="0"/>
        <pt x="413" y="576" on="0"/>
        <pt x="408" y="576" on="1"/>
        <pt x="402" y="575" on="0"/>
        <pt x="396" y="575" on="1"/>
        <pt x="394" y="579" on="1"/>
        <pt x="402" y="645" on="1"/>
        <pt x="424" y="644" on="0"/>
        <pt x="446" y="643" on="1"/>
        <pt x="464" y="642" on="0"/>
        <pt x="505" y="642" on="0"/>
        <pt x="519" y="642" on="1"/>
        <pt x="538" y="642" on="0"/>
        <pt x="581" y="643" on="0"/>
        <pt x="598" y="645" on="1"/>
        <pt x="618" y="646" on="0"/>
        <pt x="638" y="648" on="1"/>
        <pt x="632" y="581" on="1"/>
        <pt x="613" y="577" on="0"/>
        <pt x="590" y="569" on="0"/>
        <pt x="578" y="559" on="0"/>
        <pt x="574" y="543" on="0"/>
        <pt x="574" y="531" on="1"/>
        <pt x="574" y="220" on="1"/>
        <pt x="574" y="107" on="0"/>
        <pt x="442" y="-12" on="0"/>
        <pt x="316" y="-12" on="1"/>
        <pt x="84" y="-12" on="0"/>
        <pt x="84" y="204" on="1"/>
        <pt x="84" y="523" on="1"/>
        <pt x="84" y="556" on="0"/>
        <pt x="72" y="577" on="0"/>
        <pt x="52" y="577" on="1"/>
        <pt x="47" y="577" on="0"/>
        <pt x="37" y="576" on="0"/>
        <pt x="32" y="576" on="1"/>
        <pt x="26" y="575" on="0"/>
        <pt x="20" y="575" on="1"/>
        <pt x="18" y="579" on="1"/>
        <pt x="27" y="645" on="1"/>
        <pt x="51" y="644" on="0"/>
        <pt x="77" y="643" on="1"/>
        <pt x="99" y="642" on="0"/>
        <pt x="148" y="642" on="0"/>
        <pt x="170" y="642" on="1"/>
        <pt x="185" y="642" on="0"/>
        <pt x="226" y="643" on="0"/>
        <pt x="245" y="645" on="1"/>
        <pt x="267" y="646" on="0"/>
        <pt x="289" y="648" on="1"/>
        <pt x="282" y="580" on="1"/>
        <pt x="250" y="576" on="0"/>
        <pt x="228" y="553" on="0"/>
        <pt x="226" y="527" on="1"/>
      </contour>
    </TTGlyph>
    <TTGlyph name="Uacute" xMin="18" yMin="-12" xMax="638" yMax="857">
      <component glyphName="U" x="0" y="0" flags="0x204"/>
      <component glyphName="acute.cap" x="155" y="0" flags="0x4"/>
    </TTGlyph>
    <TTGlyph name="Ubreve" xMin="18" yMin="-12" xMax="638" yMax="885">
      <component glyphName="U" x="0" y="0" flags="0x204"/>
      <component glyphName="breve" x="134" y="175" flags="0x4"/>
    </TTGlyph>
    <TTGlyph name="Ucircumflex" xMin="18" yMin="-12" xMax="638" yMax="877">
      <component glyphName="U" x="0" y="0" flags="0x204"/>
      <component glyphName="circumflex.cap" x="142" y="0" flags="0x4"/>
    </TTGlyph>
    <TTGlyph name="Udieresis" xMin="18" yMin="-12" xMax="638" yMax="834">
      <component glyphName="U" x="0" y="0" flags="0x204"/>
      <component glyphName="dieresis.cap" x="141" y="0" flags="0x4"/>
    </TTGlyph>
    <TTGlyph name="Ugrave" xMin="18" yMin="-12" xMax="638" yMax="857">
      <component glyphName="U" x="0" y="0" flags="0x204"/>
      <component glyphName="grave.cap" x="133" y="0" flags="0x4"/>
    </TTGlyph>
    <TTGlyph name="Uhungarumlaut" xMin="18" yMin="-12" xMax="638" yMax="857">
      <component glyphName="U" x="0" y="0" flags="0x204"/>
      <component glyphName="hungarumlaut.cap" x="148" y="0" flags="0x4"/>
    </TTGlyph>
    <TTGlyph name="Umacron" xMin="18" yMin="-12" xMax="638" yMax="800">
      <component glyphName="U" x="0" y="0" flags="0x204"/>
      <component glyphName="macron.cap" x="140" y="0" flags="0x4"/>
    </TTGlyph>
    <TTGlyph name="Uogonek" xMin="18" yMin="-241" xMax="638" yMax="648">
      <contour>
        <pt x="538" y="-175" on="1"/>
        <pt x="523" y="-190" on="0"/>
        <pt x="506" y="-202" on="1"/>
        <pt x="492" y="-213" on="0"/>
        <pt x="455" y="-235" on="0"/>
        <pt x="436" y="-241" on="1"/>
        <pt x="380" y="-241" on="0"/>
        <pt x="316" y="-192" on="0"/>
        <pt x="316" y="-150" on="1"/>
        <pt x="316" y="-120" on="0"/>
        <pt x="356" y="-53" on="0"/>
        <pt x="404" y="-2" on="1"/>
        <pt x="367" y="-12" on="0"/>
        <pt x="316" y="-12" on="1"/>
        <pt x="84" y="-12" on="0"/>
        <pt x="84" y="204" on="1"/>
        <pt x="84" y="523" on="1"/>
        <pt x="84" y="556" on="0"/>
        <pt x="72" y="577" on="0"/>
        <pt x="52" y="577" on="1"/>
        <pt x="47" y="577" on="0"/>
        <pt x="37" y="576" on="0"/>
        <pt x="32" y="576" on="1"/>
        <pt x="26" y="575" on="0"/>
        <pt x="20" y="575" on="1"/>
        <pt x="18" y="579" on="1"/>
        <pt x="27" y="645" on="1"/>
        <pt x="51" y="644" on="0"/>
        <pt x="77" y="643" on="1"/>
        <pt x="99" y="642" on="0"/>
        <pt x="148" y="642" on="0"/>
        <pt x="170" y="642" on="1"/>
        <pt x="185" y="642" on="0"/>
        <pt x="226" y="643" on="0"/>
        <pt x="245" y="645" on="1"/>
        <pt x="267" y="646" on="0"/>
        <pt x="289" y="648" on="1"/>
        <pt x="282" y="580" on="1"/>
        <pt x="250" y="576" on="0"/>
        <pt x="228" y="553" on="0"/>
        <pt x="226" y="527" on="1"/>
        <pt x="219" y="236" on="1"/>
        <pt x="219" y="160" on="0"/>
        <pt x="283" y="79" on="0"/>
        <pt x="343" y="79" on="1"/>
        <pt x="465" y="79" on="0"/>
        <pt x="465" y="209" on="1"/>
        <pt x="465" y="221" on="0"/>
        <pt x="465" y="262" on="0"/>
        <pt x="464" y="311" on="0"/>
        <pt x="463" y="365" on="0"/>
        <pt x="463" y="391" on="1"/>
        <pt x="462" y="453" on="0"/>
        <pt x="461" y="523" on="1"/>
        <pt x="460" y="556" on="0"/>
        <pt x="448" y="577" on="0"/>
        <pt x="429" y="577" on="1"/>
        <pt x="424" y="577" on="0"/>
        <pt x="413" y="576" on="0"/>
        <pt x="408" y="576" on="1"/>
        <pt x="402" y="575" on="0"/>
        <pt x="396" y="575" on="1"/>
        <pt x="394" y="579" on="1"/>
        <pt x="402" y="645" on="1"/>
        <pt x="424" y="644" on="0"/>
        <pt x="446" y="643" on="1"/>
        <pt x="464" y="642" on="0"/>
        <pt x="505" y="642" on="0"/>
        <pt x="519" y="642" on="1"/>
        <pt x="538" y="642" on="0"/>
        <pt x="581" y="643" on="0"/>
        <pt x="598" y="645" on="1"/>
        <pt x="618" y="646" on="0"/>
        <pt x="638" y="648" on="1"/>
        <pt x="632" y="581" on="1"/>
        <pt x="613" y="577" on="0"/>
        <pt x="590" y="569" on="0"/>
        <pt x="578" y="559" on="0"/>
        <pt x="574" y="543" on="0"/>
        <pt x="574" y="531" on="1"/>
        <pt x="574" y="220" on="1"/>
        <pt x="574" y="168" on="0"/>
        <pt x="542" y="85" on="0"/>
        <pt x="510" y="48" on="1"/>
        <pt x="474" y="7" on="0"/>
        <pt x="430" y="-46" on="0"/>
        <pt x="406" y="-82" on="0"/>
        <pt x="398" y="-109" on="0"/>
        <pt x="398" y="-122" on="1"/>
        <pt x="398" y="-144" on="0"/>
        <pt x="425" y="-170" on="0"/>
        <pt x="448" y="-170" on="1"/>
        <pt x="461" y="-170" on="0"/>
        <pt x="485" y="-163" on="0"/>
        <pt x="496" y="-158" on="1"/>
        <pt x="507" y="-153" on="0"/>
        <pt x="519" y="-146" on="1"/>
      </contour>
    </TTGlyph>
    <TTGlyph name="Uring" xMin="18" yMin="-12" xMax="638" yMax="864">
      <component glyphName="U" x="0" y="0" flags="0x204"/>
      <component glyphName="ring.cap" x="141" y="0" flags="0x4"/>
    </TTGlyph>
    <TTGlyph name="Utilde" xMin="18" yMin="-12" xMax="638" yMax="889">
      <component glyphName="U" x="0" y="0" flags="0x204"/>
      <component glyphName="tilde" x="132" y="175" flags="0x4"/>
    </TTGlyph>
    <TTGlyph name="V" xMin="-7" yMin="-15" xMax="628" yMax="650">
      <contour>
        <pt x="72" y="515" on="1"/>
        <pt x="63" y="547" on="0"/>
        <pt x="28" y="575" on="0"/>
        <pt x="-3" y="577" on="1"/>
        <pt x="-7" y="584" on="1"/>
        <pt x="0" y="644" on="1"/>
        <pt x="24" y="643" on="0"/>
        <pt x="47" y="643" on="1"/>
        <pt x="67" y="642" on="0"/>
        <pt x="109" y="642" on="0"/>
        <pt x="126" y="642" on="1"/>
        <pt x="154" y="642" on="0"/>
        <pt x="214" y="644" on="0"/>
        <pt x="239" y="646" on="1"/>
        <pt x="268" y="648" on="0"/>
        <pt x="296" y="650" on="1"/>
        <pt x="302" y="642" on="1"/>
        <pt x="297" y="581" on="1"/>
        <pt x="272" y="579" on="0"/>
        <pt x="242" y="574" on="0"/>
        <pt x="225" y="566" on="0"/>
        <pt x="220" y="553" on="0"/>
        <pt x="220" y="543" on="1"/>
        <pt x="220" y="536" on="0"/>
        <pt x="228" y="493" on="0"/>
        <pt x="240" y="433" on="0"/>
        <pt x="256" y="360" on="0"/>
        <pt x="265" y="323" on="1"/>
        <pt x="285" y="236" on="0"/>
        <pt x="311" y="131" on="1"/>
        <pt x="326" y="131" on="1"/>
        <pt x="333" y="148" on="0"/>
        <pt x="357" y="219" on="0"/>
        <pt x="385" y="307" on="0"/>
        <pt x="414" y="401" on="0"/>
        <pt x="437" y="481" on="0"/>
        <pt x="452" y="539" on="0"/>
        <pt x="452" y="547" on="1"/>
        <pt x="452" y="564" on="0"/>
        <pt x="430" y="578" on="0"/>
        <pt x="401" y="578" on="1"/>
        <pt x="362" y="578" on="1"/>
        <pt x="357" y="585" on="1"/>
        <pt x="364" y="647" on="1"/>
        <pt x="388" y="645" on="0"/>
        <pt x="414" y="644" on="1"/>
        <pt x="436" y="643" on="0"/>
        <pt x="488" y="642" on="0"/>
        <pt x="512" y="642" on="1"/>
        <pt x="532" y="642" on="0"/>
        <pt x="572" y="642" on="0"/>
        <pt x="589" y="643" on="1"/>
        <pt x="608" y="643" on="0"/>
        <pt x="628" y="644" on="1"/>
        <pt x="621" y="578" on="1"/>
        <pt x="597" y="574" on="0"/>
        <pt x="577" y="554" on="0"/>
        <pt x="567" y="526" on="1"/>
        <pt x="383" y="5" on="1"/>
        <pt x="218" y="-15" on="1"/>
        <pt x="192" y="84" on="0"/>
        <pt x="166" y="180" on="1"/>
        <pt x="155" y="221" on="0"/>
        <pt x="131" y="309" on="0"/>
        <pt x="106" y="397" on="0"/>
        <pt x="82" y="480" on="0"/>
      </contour>
    </TTGlyph>
    <TTGlyph name="W" xMin="-6" yMin="-15" xMax="966" yMax="650">
      <contour>
        <pt x="572" y="-15" on="1"/>
        <pt x="569" y="2" on="0"/>
        <pt x="553" y="73" on="0"/>
        <pt x="530" y="169" on="0"/>
        <pt x="502" y="282" on="0"/>
        <pt x="486" y="342" on="1"/>
        <pt x="476" y="342" on="1"/>
        <pt x="372" y="5" on="1"/>
        <pt x="211" y="-15" on="1"/>
        <pt x="186" y="84" on="0"/>
        <pt x="161" y="180" on="1"/>
        <pt x="150" y="221" on="0"/>
        <pt x="127" y="309" on="0"/>
        <pt x="104" y="397" on="0"/>
        <pt x="80" y="480" on="0"/>
        <pt x="70" y="515" on="1"/>
        <pt x="61" y="547" on="0"/>
        <pt x="27" y="575" on="0"/>
        <pt x="-2" y="577" on="1"/>
        <pt x="-6" y="584" on="1"/>
        <pt x="1" y="644" on="1"/>
        <pt x="24" y="643" on="0"/>
        <pt x="46" y="643" on="1"/>
        <pt x="65" y="642" on="0"/>
        <pt x="107" y="642" on="0"/>
        <pt x="123" y="642" on="1"/>
        <pt x="153" y="642" on="0"/>
        <pt x="212" y="644" on="0"/>
        <pt x="235" y="646" on="1"/>
        <pt x="262" y="648" on="0"/>
        <pt x="287" y="650" on="1"/>
        <pt x="292" y="642" on="1"/>
        <pt x="287" y="581" on="1"/>
        <pt x="263" y="579" on="0"/>
        <pt x="234" y="574" on="0"/>
        <pt x="217" y="566" on="0"/>
        <pt x="212" y="554" on="0"/>
        <pt x="212" y="544" on="1"/>
        <pt x="212" y="536" on="0"/>
        <pt x="220" y="493" on="0"/>
        <pt x="232" y="432" on="0"/>
        <pt x="248" y="359" on="0"/>
        <pt x="256" y="322" on="1"/>
        <pt x="275" y="236" on="0"/>
        <pt x="301" y="131" on="1"/>
        <pt x="314" y="131" on="1"/>
        <pt x="323" y="156" on="0"/>
        <pt x="351" y="244" on="0"/>
        <pt x="382" y="346" on="0"/>
        <pt x="412" y="450" on="0"/>
        <pt x="424" y="491" on="1"/>
        <pt x="422" y="503" on="0"/>
        <pt x="418" y="524" on="0"/>
        <pt x="416" y="533" on="1"/>
        <pt x="411" y="558" on="0"/>
        <pt x="378" y="576" on="0"/>
        <pt x="343" y="577" on="1"/>
        <pt x="338" y="584" on="1"/>
        <pt x="346" y="644" on="1"/>
        <pt x="371" y="643" on="0"/>
        <pt x="397" y="643" on="1"/>
        <pt x="418" y="642" on="0"/>
        <pt x="466" y="642" on="0"/>
        <pt x="483" y="642" on="1"/>
        <pt x="511" y="642" on="0"/>
        <pt x="570" y="644" on="0"/>
        <pt x="593" y="646" on="1"/>
        <pt x="620" y="648" on="0"/>
        <pt x="646" y="650" on="1"/>
        <pt x="651" y="642" on="1"/>
        <pt x="646" y="581" on="1"/>
        <pt x="622" y="579" on="0"/>
        <pt x="592" y="574" on="0"/>
        <pt x="576" y="566" on="0"/>
        <pt x="571" y="553" on="0"/>
        <pt x="571" y="543" on="1"/>
        <pt x="571" y="536" on="0"/>
        <pt x="579" y="493" on="0"/>
        <pt x="591" y="433" on="0"/>
        <pt x="607" y="360" on="0"/>
        <pt x="615" y="323" on="1"/>
        <pt x="634" y="236" on="0"/>
        <pt x="660" y="131" on="1"/>
        <pt x="673" y="131" on="1"/>
        <pt x="679" y="149" on="0"/>
        <pt x="703" y="220" on="0"/>
        <pt x="730" y="308" on="0"/>
        <pt x="758" y="402" on="0"/>
        <pt x="781" y="484" on="0"/>
        <pt x="796" y="542" on="0"/>
        <pt x="796" y="550" on="1"/>
        <pt x="796" y="566" on="0"/>
        <pt x="774" y="578" on="0"/>
        <pt x="746" y="578" on="1"/>
        <pt x="708" y="578" on="1"/>
        <pt x="703" y="585" on="1"/>
        <pt x="711" y="647" on="1"/>
        <pt x="735" y="645" on="0"/>
        <pt x="760" y="644" on="1"/>
        <pt x="781" y="643" on="0"/>
        <pt x="831" y="642" on="0"/>
        <pt x="854" y="642" on="1"/>
        <pt x="873" y="642" on="0"/>
        <pt x="912" y="642" on="0"/>
        <pt x="929" y="643" on="1"/>
        <pt x="948" y="643" on="0"/>
        <pt x="966" y="644" on="1"/>
        <pt x="959" y="578" on="1"/>
        <pt x="948" y="576" on="0"/>
        <pt x="932" y="570" on="0"/>
        <pt x="921" y="559" on="0"/>
        <pt x="912" y="541" on="0"/>
        <pt x="907" y="526" on="1"/>
        <pt x="731" y="5" on="1"/>
      </contour>
    </TTGlyph>
    <TTGlyph name="Wacute" xMin="-6" yMin="-15" xMax="966" yMax="857">
      <component glyphName="W" x="0" y="0" flags="0x204"/>
      <component glyphName="acute.cap" x="306" y="0" flags="0x4"/>
    </TTGlyph>
    <TTGlyph name="Wcircumflex" xMin="-6" yMin="-15" xMax="966" yMax="877">
      <component glyphName="W" x="0" y="0" flags="0x204"/>
      <component glyphName="circumflex.cap" x="293" y="0" flags="0x4"/>
    </TTGlyph>
    <TTGlyph name="Wdieresis" xMin="-6" yMin="-15" xMax="966" yMax="834">
      <component glyphName="W" x="0" y="0" flags="0x204"/>
      <component glyphName="dieresis.cap" x="292" y="0" flags="0x4"/>
    </TTGlyph>
    <TTGlyph name="Wgrave" xMin="-6" yMin="-15" xMax="966" yMax="857">
      <component glyphName="W" x="0" y="0" flags="0x204"/>
      <component glyphName="grave.cap" x="285" y="0" flags="0x4"/>
    </TTGlyph>
    <TTGlyph name="X" xMin="7" yMin="-7" xMax="675" yMax="649">
      <contour>
        <pt x="257" y="331" on="1"/>
        <pt x="150" y="491" on="1"/>
        <pt x="121" y="533" on="0"/>
        <pt x="63" y="567" on="0"/>
        <pt x="22" y="575" on="1"/>
        <pt x="18" y="580" on="1"/>
        <pt x="26" y="644" on="1"/>
        <pt x="51" y="643" on="0"/>
        <pt x="77" y="643" on="1"/>
        <pt x="100" y="642" on="0"/>
        <pt x="156" y="642" on="0"/>
        <pt x="185" y="642" on="1"/>
        <pt x="208" y="642" on="0"/>
        <pt x="262" y="643" on="0"/>
        <pt x="285" y="645" on="1"/>
        <pt x="311" y="647" on="0"/>
        <pt x="338" y="649" on="1"/>
        <pt x="343" y="640" on="1"/>
        <pt x="338" y="582" on="1"/>
        <pt x="306" y="580" on="0"/>
        <pt x="278" y="566" on="0"/>
        <pt x="278" y="552" on="1"/>
        <pt x="278" y="536" on="0"/>
        <pt x="328" y="458" on="0"/>
        <pt x="367" y="400" on="1"/>
        <pt x="380" y="420" on="0"/>
        <pt x="414" y="467" on="0"/>
        <pt x="444" y="512" on="0"/>
        <pt x="465" y="548" on="0"/>
        <pt x="465" y="557" on="1"/>
        <pt x="465" y="569" on="0"/>
        <pt x="443" y="580" on="0"/>
        <pt x="416" y="582" on="1"/>
        <pt x="414" y="587" on="1"/>
        <pt x="420" y="645" on="1"/>
        <pt x="429" y="645" on="0"/>
        <pt x="461" y="644" on="0"/>
        <pt x="497" y="643" on="0"/>
        <pt x="535" y="642" on="0"/>
        <pt x="552" y="642" on="1"/>
        <pt x="570" y="642" on="0"/>
        <pt x="609" y="642" on="0"/>
        <pt x="626" y="643" on="1"/>
        <pt x="645" y="644" on="0"/>
        <pt x="664" y="645" on="1"/>
        <pt x="668" y="638" on="1"/>
        <pt x="663" y="577" on="1"/>
        <pt x="640" y="569" on="0"/>
        <pt x="605" y="551" on="0"/>
        <pt x="576" y="527" on="0"/>
        <pt x="548" y="493" on="0"/>
        <pt x="531" y="470" on="1"/>
        <pt x="423" y="321" on="1"/>
        <pt x="540" y="152" on="1"/>
        <pt x="569" y="110" on="0"/>
        <pt x="630" y="70" on="0"/>
        <pt x="672" y="68" on="1"/>
        <pt x="675" y="64" on="1"/>
        <pt x="667" y="-2" on="1"/>
        <pt x="642" y="-2" on="0"/>
        <pt x="618" y="-1" on="1"/>
        <pt x="598" y="0" on="0"/>
        <pt x="553" y="1" on="0"/>
        <pt x="537" y="1" on="1"/>
        <pt x="517" y="1" on="0"/>
        <pt x="457" y="-1" on="0"/>
        <pt x="428" y="-3" on="1"/>
        <pt x="394" y="-5" on="0"/>
        <pt x="357" y="-7" on="1"/>
        <pt x="352" y="0" on="1"/>
        <pt x="358" y="61" on="1"/>
        <pt x="412" y="64" on="0"/>
        <pt x="412" y="89" on="1"/>
        <pt x="412" y="102" on="0"/>
        <pt x="397" y="125" on="1"/>
        <pt x="311" y="252" on="1"/>
        <pt x="245" y="159" on="1"/>
        <pt x="226" y="133" on="0"/>
        <pt x="210" y="104" on="0"/>
        <pt x="210" y="93" on="1"/>
        <pt x="210" y="66" on="0"/>
        <pt x="259" y="63" on="1"/>
        <pt x="263" y="56" on="1"/>
        <pt x="257" y="-6" on="1"/>
        <pt x="230" y="-5" on="0"/>
        <pt x="205" y="-3" on="1"/>
        <pt x="184" y="-1" on="0"/>
        <pt x="140" y="1" on="0"/>
        <pt x="127" y="1" on="1"/>
        <pt x="112" y="1" on="0"/>
        <pt x="72" y="-1" on="0"/>
        <pt x="54" y="-2" on="1"/>
        <pt x="33" y="-3" on="0"/>
        <pt x="11" y="-4" on="1"/>
        <pt x="7" y="6" on="1"/>
        <pt x="13" y="66" on="1"/>
        <pt x="47" y="78" on="0"/>
        <pt x="121" y="152" on="0"/>
        <pt x="158" y="200" on="1"/>
      </contour>
    </TTGlyph>
    <TTGlyph name="Y" xMin="-10" yMin="-11" xMax="608" yMax="649">
      <contour>
        <pt x="227" y="552" on="1"/>
        <pt x="227" y="543" on="0"/>
        <pt x="251" y="484" on="0"/>
        <pt x="281" y="415" on="0"/>
        <pt x="308" y="355" on="0"/>
        <pt x="312" y="346" on="1"/>
        <pt x="322" y="346" on="1"/>
        <pt x="401" y="511" on="1"/>
        <pt x="415" y="539" on="0"/>
        <pt x="415" y="559" on="1"/>
        <pt x="415" y="570" on="0"/>
        <pt x="391" y="580" on="0"/>
        <pt x="364" y="582" on="1"/>
        <pt x="362" y="587" on="1"/>
        <pt x="369" y="645" on="1"/>
        <pt x="378" y="645" on="0"/>
        <pt x="410" y="644" on="0"/>
        <pt x="447" y="642" on="0"/>
        <pt x="485" y="641" on="0"/>
        <pt x="502" y="641" on="1"/>
        <pt x="519" y="641" on="0"/>
        <pt x="555" y="642" on="0"/>
        <pt x="570" y="643" on="1"/>
        <pt x="588" y="644" on="0"/>
        <pt x="604" y="645" on="1"/>
        <pt x="608" y="638" on="1"/>
        <pt x="601" y="577" on="1"/>
        <pt x="580" y="570" on="0"/>
        <pt x="549" y="550" on="0"/>
        <pt x="522" y="520" on="0"/>
        <pt x="496" y="477" on="0"/>
        <pt x="480" y="449" on="1"/>
        <pt x="384" y="270" on="1"/>
        <pt x="377" y="256" on="0"/>
        <pt x="370" y="231" on="0"/>
        <pt x="367" y="199" on="0"/>
        <pt x="366" y="159" on="0"/>
        <pt x="366" y="132" on="1"/>
        <pt x="365" y="95" on="0"/>
        <pt x="385" y="67" on="0"/>
        <pt x="413" y="67" on="1"/>
        <pt x="421" y="67" on="0"/>
        <pt x="438" y="67" on="0"/>
        <pt x="446" y="68" on="1"/>
        <pt x="455" y="69" on="0"/>
        <pt x="463" y="70" on="1"/>
        <pt x="466" y="65" on="1"/>
        <pt x="457" y="-4" on="1"/>
        <pt x="424" y="-3" on="0"/>
        <pt x="393" y="-2" on="1"/>
        <pt x="367" y="-1" on="0"/>
        <pt x="311" y="0" on="0"/>
        <pt x="292" y="0" on="1"/>
        <pt x="270" y="0" on="0"/>
        <pt x="217" y="-4" on="0"/>
        <pt x="193" y="-6" on="1"/>
        <pt x="165" y="-9" on="0"/>
        <pt x="136" y="-11" on="1"/>
        <pt x="143" y="58" on="1"/>
        <pt x="172" y="62" on="0"/>
        <pt x="208" y="73" on="0"/>
        <pt x="227" y="94" on="0"/>
        <pt x="233" y="127" on="0"/>
        <pt x="233" y="152" on="1"/>
        <pt x="233" y="182" on="1"/>
        <pt x="233" y="208" on="0"/>
        <pt x="221" y="251" on="0"/>
        <pt x="204" y="284" on="1"/>
        <pt x="106" y="475" on="1"/>
        <pt x="95" y="497" on="0"/>
        <pt x="74" y="531" on="0"/>
        <pt x="49" y="555" on="0"/>
        <pt x="16" y="570" on="0"/>
        <pt x="-7" y="575" on="1"/>
        <pt x="-10" y="580" on="1"/>
        <pt x="-2" y="644" on="1"/>
        <pt x="23" y="643" on="0"/>
        <pt x="47" y="642" on="1"/>
        <pt x="67" y="641" on="0"/>
        <pt x="112" y="641" on="0"/>
        <pt x="127" y="641" on="1"/>
        <pt x="146" y="641" on="0"/>
        <pt x="200" y="643" on="0"/>
        <pt x="226" y="645" on="1"/>
        <pt x="256" y="647" on="0"/>
        <pt x="287" y="649" on="1"/>
        <pt x="292" y="640" on="1"/>
        <pt x="287" y="582" on="1"/>
        <pt x="253" y="580" on="0"/>
        <pt x="227" y="567" on="0"/>
      </contour>
    </TTGlyph>
    <TTGlyph name="Yacute" xMin="-10" yMin="-11" xMax="608" yMax="857">
      <component glyphName="Y" x="0" y="0" flags="0x204"/>
      <component glyphName="acute.cap" x="138" y="0" flags="0x4"/>
    </TTGlyph>
    <TTGlyph name="Ycircumflex" xMin="-10" yMin="-11" xMax="608" yMax="877">
      <component glyphName="Y" x="0" y="0" flags="0x204"/>
      <component glyphName="circumflex.cap" x="125" y="0" flags="0x4"/>
    </TTGlyph>
    <TTGlyph name="Ydieresis" xMin="-10" yMin="-11" xMax="608" yMax="834">
      <component glyphName="Y" x="0" y="0" flags="0x204"/>
      <component glyphName="dieresis.cap" x="124" y="0" flags="0x4"/>
    </TTGlyph>
    <TTGlyph name="Ygrave" xMin="-10" yMin="-11" xMax="608" yMax="857">
      <component glyphName="Y" x="0" y="0" flags="0x204"/>
      <component glyphName="grave.cap" x="117" y="0" flags="0x4"/>
    </TTGlyph>
    <TTGlyph name="Z" xMin="19" yMin="-5" xMax="559" yMax="654">
      <contour>
        <pt x="514" y="-3" on="1"/>
        <pt x="119" y="3" on="1"/>
        <pt x="44" y="-5" on="1"/>
        <pt x="19" y="40" on="1"/>
        <pt x="370" y="569" on="1"/>
        <pt x="243" y="561" on="1"/>
        <pt x="211" y="557" on="0"/>
        <pt x="169" y="543" on="0"/>
        <pt x="143" y="514" on="0"/>
        <pt x="131" y="469" on="0"/>
        <pt x="128" y="434" on="1"/>
        <pt x="43" y="428" on="1"/>
        <pt x="46" y="463" on="0"/>
        <pt x="50" y="501" on="1"/>
        <pt x="53" y="533" on="0"/>
        <pt x="58" y="609" on="0"/>
        <pt x="60" y="644" on="1"/>
        <pt x="70" y="654" on="1"/>
        <pt x="248" y="643" on="1"/>
        <pt x="541" y="640" on="1"/>
        <pt x="559" y="599" on="1"/>
        <pt x="495" y="514" on="0"/>
        <pt x="380" y="350" on="0"/>
        <pt x="286" y="209" on="0"/>
        <pt x="216" y="101" on="0"/>
        <pt x="198" y="73" on="1"/>
        <pt x="354" y="84" on="1"/>
        <pt x="405" y="89" on="0"/>
        <pt x="459" y="160" on="0"/>
        <pt x="471" y="238" on="1"/>
        <pt x="556" y="245" on="1"/>
        <pt x="550" y="207" on="0"/>
        <pt x="545" y="167" on="1"/>
        <pt x="540" y="133" on="0"/>
        <pt x="533" y="53" on="0"/>
        <pt x="531" y="16" on="1"/>
      </contour>
    </TTGlyph>
    <TTGlyph name="Zacute" xMin="19" yMin="-5" xMax="559" yMax="857">
      <component glyphName="Z" x="0" y="0" flags="0x204"/>
      <component glyphName="acute.cap" x="126" y="0" flags="0x4"/>
    </TTGlyph>
    <TTGlyph name="Zcaron" xMin="19" yMin="-5" xMax="559" yMax="865">
      <component glyphName="Z" x="0" y="0" flags="0x204"/>
      <component glyphName="caron.cap" x="112" y="0" flags="0x4"/>
    </TTGlyph>
    <TTGlyph name="Zdotaccent" xMin="19" yMin="-5" xMax="559" yMax="854">
      <component glyphName="Z" x="0" y="0" flags="0x204"/>
      <component glyphName="dotaccent.cap" x="113" y="0" flags="0x4"/>
    </TTGlyph>
    <TTGlyph name="a" xMin="27" yMin="-12" xMax="480" yMax="474">
      <contour>
        <pt x="278" y="289" on="1"/>
        <pt x="278" y="332" on="0"/>
        <pt x="234" y="379" on="0"/>
        <pt x="193" y="379" on="1"/>
        <pt x="170" y="379" on="0"/>
        <pt x="129" y="364" on="0"/>
        <pt x="112" y="355" on="1"/>
        <pt x="93" y="344" on="0"/>
        <pt x="76" y="332" on="1"/>
        <pt x="67" y="337" on="1"/>
        <pt x="49" y="397" on="1"/>
        <pt x="88" y="418" on="0"/>
        <pt x="123" y="435" on="1"/>
        <pt x="153" y="449" on="0"/>
        <pt x="216" y="474" on="0"/>
        <pt x="234" y="474" on="1"/>
        <pt x="278" y="474" on="0"/>
        <pt x="341" y="453" on="0"/>
        <pt x="382" y="416" on="0"/>
        <pt x="401" y="366" on="0"/>
        <pt x="401" y="337" on="1"/>
        <pt x="401" y="324" on="0"/>
        <pt x="395" y="269" on="0"/>
        <pt x="387" y="207" on="0"/>
        <pt x="381" y="148" on="0"/>
        <pt x="381" y="132" on="1"/>
        <pt x="381" y="114" on="0"/>
        <pt x="400" y="92" on="0"/>
        <pt x="417" y="92" on="1"/>
        <pt x="426" y="92" on="0"/>
        <pt x="442" y="97" on="0"/>
        <pt x="449" y="100" on="1"/>
        <pt x="457" y="104" on="0"/>
        <pt x="464" y="109" on="1"/>
        <pt x="480" y="88" on="1"/>
        <pt x="465" y="63" on="0"/>
        <pt x="449" y="43" on="1"/>
        <pt x="435" y="26" on="0"/>
        <pt x="401" y="-7" on="0"/>
        <pt x="383" y="-12" on="1"/>
        <pt x="291" y="-12" on="0"/>
        <pt x="282" y="65" on="1"/>
        <pt x="274" y="68" on="1"/>
        <pt x="244" y="38" on="0"/>
        <pt x="183" y="-8" on="0"/>
        <pt x="164" y="-8" on="1"/>
        <pt x="135" y="-8" on="0"/>
        <pt x="85" y="14" on="0"/>
        <pt x="48" y="53" on="0"/>
        <pt x="27" y="107" on="0"/>
        <pt x="27" y="138" on="1"/>
        <pt x="27" y="169" on="0"/>
        <pt x="59" y="215" on="0"/>
        <pt x="85" y="221" on="1"/>
        <pt x="277" y="266" on="1"/>
      </contour>
      <contour>
        <pt x="275" y="211" on="1"/>
        <pt x="170" y="182" on="1"/>
        <pt x="147" y="175" on="0"/>
        <pt x="147" y="150" on="1"/>
        <pt x="147" y="124" on="0"/>
        <pt x="177" y="89" on="0"/>
        <pt x="202" y="89" on="1"/>
        <pt x="217" y="89" on="0"/>
        <pt x="256" y="105" on="0"/>
        <pt x="273" y="117" on="1"/>
      </contour>
    </TTGlyph>
    <TTGlyph name="a.sups" xMin="23" yMin="331" xMax="334" yMax="650">
      <contour>
        <pt x="192" y="526" on="1"/>
        <pt x="192" y="552" on="0"/>
        <pt x="163" y="580" on="0"/>
        <pt x="137" y="580" on="1"/>
        <pt x="123" y="580" on="0"/>
        <pt x="95" y="570" on="0"/>
        <pt x="84" y="565" on="1"/>
        <pt x="71" y="559" on="0"/>
        <pt x="59" y="551" on="1"/>
        <pt x="53" y="554" on="1"/>
        <pt x="39" y="598" on="1"/>
        <pt x="66" y="613" on="0"/>
        <pt x="91" y="624" on="1"/>
        <pt x="112" y="634" on="0"/>
        <pt x="155" y="650" on="0"/>
        <pt x="167" y="650" on="1"/>
        <pt x="233" y="650" on="0"/>
        <pt x="287" y="596" on="0"/>
        <pt x="287" y="559" on="1"/>
        <pt x="287" y="551" on="0"/>
        <pt x="283" y="516" on="0"/>
        <pt x="278" y="478" on="0"/>
        <pt x="274" y="443" on="0"/>
        <pt x="274" y="434" on="1"/>
        <pt x="274" y="409" on="0"/>
        <pt x="295" y="409" on="1"/>
        <pt x="300" y="409" on="0"/>
        <pt x="310" y="411" on="0"/>
        <pt x="315" y="413" on="1"/>
        <pt x="319" y="415" on="0"/>
        <pt x="324" y="418" on="1"/>
        <pt x="334" y="402" on="1"/>
        <pt x="323" y="385" on="0"/>
        <pt x="312" y="370" on="1"/>
        <pt x="302" y="357" on="0"/>
        <pt x="278" y="334" on="0"/>
        <pt x="267" y="331" on="1"/>
        <pt x="202" y="331" on="0"/>
        <pt x="197" y="381" on="1"/>
        <pt x="190" y="383" on="1"/>
        <pt x="172" y="365" on="0"/>
        <pt x="130" y="334" on="0"/>
        <pt x="116" y="334" on="1"/>
        <pt x="96" y="334" on="0"/>
        <pt x="63" y="350" on="0"/>
        <pt x="37" y="377" on="0"/>
        <pt x="23" y="415" on="0"/>
        <pt x="23" y="436" on="1"/>
        <pt x="23" y="456" on="0"/>
        <pt x="45" y="486" on="0"/>
        <pt x="63" y="491" on="1"/>
        <pt x="192" y="517" on="1"/>
      </contour>
      <contour>
        <pt x="191" y="477" on="1"/>
        <pt x="130" y="462" on="1"/>
        <pt x="116" y="458" on="0"/>
        <pt x="116" y="443" on="1"/>
        <pt x="116" y="427" on="0"/>
        <pt x="134" y="406" on="0"/>
        <pt x="148" y="406" on="1"/>
        <pt x="157" y="406" on="0"/>
        <pt x="180" y="413" on="0"/>
        <pt x="189" y="418" on="1"/>
      </contour>
    </TTGlyph>
    <TTGlyph name="aacute" xMin="27" yMin="-12" xMax="480" yMax="738">
      <component glyphName="a" x="0" y="0" flags="0x204"/>
      <component glyphName="acute" x="29" y="1" flags="0x4"/>
    </TTGlyph>
    <TTGlyph name="abreve" xMin="27" yMin="-12" xMax="480" yMax="711">
      <component glyphName="a" x="0" y="0" flags="0x204"/>
      <component glyphName="breve" x="29" y="1" flags="0x4"/>
    </TTGlyph>
    <TTGlyph name="acircumflex" xMin="27" yMin="-12" xMax="480" yMax="730">
      <component glyphName="a" x="0" y="0" flags="0x204"/>
      <component glyphName="circumflex" x="30" y="0" flags="0x4"/>
    </TTGlyph>
    <TTGlyph name="acute" xMin="115" yMin="523" xMax="350" yMax="737">
      <contour>
        <pt x="349" y="652" on="1"/>
        <pt x="321" y="634" on="0"/>
        <pt x="289" y="613" on="1"/>
        <pt x="262" y="595" on="0"/>
        <pt x="195" y="549" on="0"/>
        <pt x="160" y="523" on="1"/>
        <pt x="145" y="527" on="1"/>
        <pt x="115" y="566" on="1"/>
        <pt x="146" y="596" on="0"/>
        <pt x="205" y="656" on="0"/>
        <pt x="229" y="681" on="1"/>
        <pt x="256" y="710" on="0"/>
        <pt x="282" y="737" on="1"/>
        <pt x="296" y="736" on="1"/>
        <pt x="350" y="666" on="1"/>
      </contour>
    </TTGlyph>
    <TTGlyph name="acute.cap" xMin="98" yMin="697" xMax="359" yMax="857">
      <contour>
        <pt x="353" y="762" on="1"/>
        <pt x="319" y="754" on="0"/>
        <pt x="281" y="743" on="1"/>
        <pt x="249" y="734" on="0"/>
        <pt x="167" y="711" on="0"/>
        <pt x="124" y="697" on="1"/>
        <pt x="111" y="706" on="1"/>
        <pt x="98" y="753" on="1"/>
        <pt x="139" y="770" on="0"/>
        <pt x="218" y="808" on="0"/>
        <pt x="250" y="823" on="1"/>
        <pt x="287" y="841" on="0"/>
        <pt x="321" y="857" on="1"/>
        <pt x="333" y="852" on="1"/>
        <pt x="359" y="775" on="1"/>
      </contour>
    </TTGlyph>
    <TTGlyph name="adieresis" xMin="27" yMin="-12" xMax="480" yMax="692">
      <component glyphName="a" x="0" y="0" flags="0x204"/>
      <component glyphName="dieresis" x="28" y="1" flags="0x4"/>
    </TTGlyph>
    <TTGlyph name="ae" xMin="18" yMin="-12" xMax="653" yMax="474">
      <contour>
        <pt x="653" y="62" on="1"/>
        <pt x="625" y="41" on="0"/>
        <pt x="596" y="25" on="1"/>
        <pt x="571" y="11" on="0"/>
        <pt x="513" y="-12" on="0"/>
        <pt x="487" y="-12" on="1"/>
        <pt x="421" y="-12" on="0"/>
        <pt x="322" y="38" on="0"/>
        <pt x="296" y="86" on="1"/>
        <pt x="253" y="45" on="0"/>
        <pt x="179" y="-4" on="0"/>
        <pt x="156" y="-8" on="1"/>
        <pt x="127" y="-8" on="0"/>
        <pt x="76" y="14" on="0"/>
        <pt x="39" y="53" on="0"/>
        <pt x="18" y="105" on="0"/>
        <pt x="18" y="136" on="1"/>
        <pt x="18" y="169" on="0"/>
        <pt x="54" y="217" on="0"/>
        <pt x="83" y="223" on="1"/>
        <pt x="264" y="261" on="1"/>
        <pt x="265" y="292" on="1"/>
        <pt x="265" y="334" on="0"/>
        <pt x="221" y="380" on="0"/>
        <pt x="181" y="380" on="1"/>
        <pt x="158" y="380" on="0"/>
        <pt x="116" y="365" on="0"/>
        <pt x="99" y="356" on="1"/>
        <pt x="80" y="345" on="0"/>
        <pt x="62" y="332" on="1"/>
        <pt x="53" y="337" on="1"/>
        <pt x="35" y="397" on="1"/>
        <pt x="75" y="418" on="0"/>
        <pt x="110" y="435" on="1"/>
        <pt x="140" y="449" on="0"/>
        <pt x="202" y="474" on="0"/>
        <pt x="220" y="474" on="1"/>
        <pt x="304" y="474" on="0"/>
        <pt x="344" y="409" on="1"/>
        <pt x="403" y="474" on="0"/>
        <pt x="494" y="474" on="1"/>
        <pt x="566" y="474" on="0"/>
        <pt x="648" y="385" on="0"/>
        <pt x="648" y="306" on="1"/>
        <pt x="648" y="300" on="0"/>
        <pt x="647" y="289" on="0"/>
        <pt x="647" y="285" on="1"/>
        <pt x="646" y="281" on="0"/>
        <pt x="646" y="277" on="1"/>
        <pt x="636" y="265" on="1"/>
        <pt x="380" y="221" on="1"/>
        <pt x="387" y="155" on="0"/>
        <pt x="452" y="84" on="0"/>
        <pt x="509" y="84" on="1"/>
        <pt x="532" y="84" on="0"/>
        <pt x="575" y="94" on="0"/>
        <pt x="592" y="100" on="1"/>
        <pt x="611" y="107" on="0"/>
        <pt x="629" y="116" on="1"/>
        <pt x="637" y="113" on="1"/>
      </contour>
      <contour>
        <pt x="166" y="182" on="1"/>
        <pt x="137" y="176" on="0"/>
        <pt x="137" y="147" on="1"/>
        <pt x="137" y="121" on="0"/>
        <pt x="168" y="87" on="0"/>
        <pt x="191" y="87" on="1"/>
        <pt x="208" y="87" on="0"/>
        <pt x="253" y="108" on="0"/>
        <pt x="277" y="128" on="1"/>
        <pt x="264" y="165" on="0"/>
        <pt x="264" y="208" on="1"/>
      </contour>
      <contour>
        <pt x="377" y="274" on="1"/>
        <pt x="505" y="306" on="1"/>
        <pt x="522" y="311" on="0"/>
        <pt x="522" y="321" on="1"/>
        <pt x="522" y="352" on="0"/>
        <pt x="491" y="390" on="0"/>
        <pt x="465" y="390" on="1"/>
        <pt x="424" y="390" on="0"/>
        <pt x="378" y="337" on="0"/>
        <pt x="377" y="292" on="1"/>
      </contour>
    </TTGlyph>
    <TTGlyph name="aeacute" xMin="18" yMin="-12" xMax="653" yMax="737">
      <component glyphName="ae" x="0" y="0" flags="0x204"/>
      <component glyphName="acute" x="154" y="0" flags="0x4"/>
    </TTGlyph>
    <TTGlyph name="agrave" xMin="27" yMin="-12" xMax="480" yMax="737">
      <component glyphName="a" x="0" y="0" flags="0x204"/>
      <component glyphName="grave" x="27" y="1" flags="0x4"/>
    </TTGlyph>
    <TTGlyph name="amacron" xMin="27" yMin="-12" xMax="480" yMax="673">
      <component glyphName="a" x="0" y="0" flags="0x204"/>
      <component glyphName="macron" x="27" y="1" flags="0x4"/>
    </TTGlyph>
    <TTGlyph name="ampersand" xMin="41" yMin="-34" xMax="720" yMax="654">
      <contour>
        <pt x="483" y="192" on="1"/>
        <pt x="496" y="229" on="0"/>
        <pt x="496" y="267" on="1"/>
        <pt x="496" y="315" on="0"/>
        <pt x="461" y="360" on="0"/>
        <pt x="423" y="360" on="1"/>
        <pt x="412" y="360" on="0"/>
        <pt x="394" y="358" on="0"/>
        <pt x="386" y="356" on="1"/>
        <pt x="377" y="354" on="0"/>
        <pt x="370" y="353" on="1"/>
        <pt x="350" y="420" on="1"/>
        <pt x="357" y="424" on="0"/>
        <pt x="368" y="428" on="1"/>
        <pt x="377" y="431" on="0"/>
        <pt x="402" y="436" on="0"/>
        <pt x="419" y="437" on="1"/>
        <pt x="624" y="449" on="1"/>
        <pt x="669" y="453" on="0"/>
        <pt x="705" y="458" on="0"/>
        <pt x="706" y="460" on="1"/>
        <pt x="720" y="437" on="1"/>
        <pt x="702" y="387" on="1"/>
        <pt x="695" y="370" on="0"/>
        <pt x="667" y="359" on="0"/>
        <pt x="633" y="359" on="1"/>
        <pt x="550" y="359" on="1"/>
        <pt x="547" y="352" on="1"/>
        <pt x="577" y="319" on="0"/>
        <pt x="577" y="270" on="1"/>
        <pt x="577" y="238" on="0"/>
        <pt x="553" y="175" on="0"/>
        <pt x="535" y="148" on="1"/>
        <pt x="672" y="32" on="1"/>
        <pt x="672" y="16" on="1"/>
        <pt x="654" y="2" on="0"/>
        <pt x="636" y="-9" on="1"/>
        <pt x="621" y="-19" on="0"/>
        <pt x="589" y="-34" on="0"/>
        <pt x="578" y="-34" on="1"/>
        <pt x="565" y="-34" on="0"/>
        <pt x="456" y="64" on="1"/>
        <pt x="411" y="28" on="0"/>
        <pt x="312" y="-12" on="0"/>
        <pt x="266" y="-12" on="1"/>
        <pt x="160" y="-12" on="0"/>
        <pt x="41" y="81" on="0"/>
        <pt x="41" y="163" on="1"/>
        <pt x="41" y="207" on="0"/>
        <pt x="80" y="267" on="0"/>
        <pt x="103" y="287" on="1"/>
        <pt x="130" y="310" on="0"/>
        <pt x="165" y="325" on="1"/>
        <pt x="165" y="334" on="1"/>
        <pt x="122" y="379" on="0"/>
        <pt x="86" y="448" on="0"/>
        <pt x="86" y="484" on="1"/>
        <pt x="86" y="522" on="0"/>
        <pt x="119" y="584" on="0"/>
        <pt x="177" y="629" on="0"/>
        <pt x="259" y="654" on="0"/>
        <pt x="309" y="654" on="1"/>
        <pt x="341" y="654" on="0"/>
        <pt x="391" y="647" on="0"/>
        <pt x="410" y="642" on="1"/>
        <pt x="431" y="637" on="0"/>
        <pt x="449" y="631" on="1"/>
        <pt x="451" y="614" on="1"/>
        <pt x="403" y="523" on="1"/>
        <pt x="385" y="522" on="1"/>
        <pt x="356" y="548" on="0"/>
        <pt x="309" y="568" on="0"/>
        <pt x="280" y="568" on="1"/>
        <pt x="245" y="568" on="0"/>
        <pt x="204" y="533" on="0"/>
        <pt x="204" y="502" on="1"/>
        <pt x="204" y="481" on="0"/>
        <pt x="217" y="443" on="0"/>
        <pt x="247" y="400" on="0"/>
        <pt x="298" y="350" on="0"/>
        <pt x="336" y="318" on="1"/>
      </contour>
      <contour>
        <pt x="212" y="287" on="1"/>
        <pt x="186" y="270" on="0"/>
        <pt x="156" y="217" on="0"/>
        <pt x="156" y="188" on="1"/>
        <pt x="156" y="137" on="0"/>
        <pt x="234" y="74" on="0"/>
        <pt x="297" y="74" on="1"/>
        <pt x="360" y="74" on="0"/>
        <pt x="409" y="106" on="1"/>
      </contour>
    </TTGlyph>
    <TTGlyph name="aogonek" xMin="27" yMin="-241" xMax="485" yMax="474">
      <contour>
        <pt x="485" y="-174" on="1"/>
        <pt x="469" y="-188" on="0"/>
        <pt x="452" y="-201" on="1"/>
        <pt x="438" y="-212" on="0"/>
        <pt x="401" y="-235" on="0"/>
        <pt x="383" y="-241" on="1"/>
        <pt x="327" y="-241" on="0"/>
        <pt x="263" y="-192" on="0"/>
        <pt x="263" y="-149" on="1"/>
        <pt x="263" y="-120" on="0"/>
        <pt x="300" y="-56" on="0"/>
        <pt x="346" y="-8" on="1"/>
        <pt x="288" y="4" on="0"/>
        <pt x="282" y="65" on="1"/>
        <pt x="274" y="68" on="1"/>
        <pt x="239" y="33" on="0"/>
        <pt x="180" y="-8" on="0"/>
        <pt x="164" y="-8" on="1"/>
        <pt x="135" y="-8" on="0"/>
        <pt x="85" y="14" on="0"/>
        <pt x="48" y="53" on="0"/>
        <pt x="27" y="107" on="0"/>
        <pt x="27" y="138" on="1"/>
        <pt x="27" y="169" on="0"/>
        <pt x="59" y="215" on="0"/>
        <pt x="85" y="221" on="1"/>
        <pt x="277" y="266" on="1"/>
        <pt x="278" y="289" on="1"/>
        <pt x="278" y="332" on="0"/>
        <pt x="234" y="379" on="0"/>
        <pt x="193" y="379" on="1"/>
        <pt x="170" y="379" on="0"/>
        <pt x="129" y="364" on="0"/>
        <pt x="112" y="355" on="1"/>
        <pt x="93" y="344" on="0"/>
        <pt x="76" y="332" on="1"/>
        <pt x="67" y="337" on="1"/>
        <pt x="49" y="397" on="1"/>
        <pt x="83" y="415" on="0"/>
        <pt x="115" y="431" on="1"/>
        <pt x="142" y="444" on="0"/>
        <pt x="200" y="468" on="0"/>
        <pt x="220" y="471" on="1"/>
        <pt x="236" y="474" on="0"/>
        <pt x="252" y="472" on="1"/>
        <pt x="314" y="467" on="0"/>
        <pt x="388" y="411" on="0"/>
        <pt x="397" y="362" on="1"/>
        <pt x="399" y="352" on="0"/>
        <pt x="401" y="330" on="0"/>
        <pt x="399" y="310" on="1"/>
        <pt x="396" y="272" on="0"/>
        <pt x="390" y="214" on="0"/>
        <pt x="384" y="172" on="0"/>
        <pt x="381" y="142" on="0"/>
        <pt x="381" y="132" on="1"/>
        <pt x="381" y="114" on="0"/>
        <pt x="400" y="92" on="0"/>
        <pt x="417" y="92" on="1"/>
        <pt x="426" y="92" on="0"/>
        <pt x="442" y="97" on="0"/>
        <pt x="449" y="100" on="1"/>
        <pt x="457" y="104" on="0"/>
        <pt x="464" y="109" on="1"/>
        <pt x="482" y="84" on="1"/>
        <pt x="444" y="40" on="0"/>
        <pt x="391" y="-26" on="0"/>
        <pt x="358" y="-75" on="0"/>
        <pt x="344" y="-109" on="0"/>
        <pt x="344" y="-122" on="1"/>
        <pt x="344" y="-143" on="0"/>
        <pt x="371" y="-170" on="0"/>
        <pt x="394" y="-170" on="1"/>
        <pt x="407" y="-170" on="0"/>
        <pt x="432" y="-163" on="0"/>
        <pt x="443" y="-158" on="1"/>
        <pt x="455" y="-153" on="0"/>
        <pt x="466" y="-146" on="1"/>
      </contour>
      <contour>
        <pt x="275" y="211" on="1"/>
        <pt x="170" y="182" on="1"/>
        <pt x="147" y="175" on="0"/>
        <pt x="147" y="150" on="1"/>
        <pt x="147" y="123" on="0"/>
        <pt x="178" y="89" on="0"/>
        <pt x="202" y="89" on="1"/>
        <pt x="218" y="89" on="0"/>
        <pt x="256" y="104" on="0"/>
        <pt x="273" y="117" on="1"/>
      </contour>
    </TTGlyph>
    <TTGlyph name="approxequal" xMin="28" yMin="78" xMax="479" yMax="430">
      <contour>
        <pt x="63" y="259" on="1"/>
        <pt x="28" y="296" on="1"/>
        <pt x="28" y="307" on="1"/>
        <pt x="119" y="408" on="1"/>
        <pt x="138" y="412" on="1"/>
        <pt x="157" y="412" on="0"/>
        <pt x="218" y="400" on="0"/>
        <pt x="284" y="385" on="0"/>
        <pt x="342" y="373" on="0"/>
        <pt x="358" y="373" on="1"/>
        <pt x="368" y="373" on="0"/>
        <pt x="395" y="390" on="0"/>
        <pt x="406" y="401" on="1"/>
        <pt x="419" y="413" on="0"/>
        <pt x="433" y="430" on="1"/>
        <pt x="444" y="430" on="1"/>
        <pt x="479" y="392" on="1"/>
        <pt x="479" y="382" on="1"/>
        <pt x="388" y="280" on="1"/>
        <pt x="369" y="276" on="1"/>
        <pt x="350" y="276" on="0"/>
        <pt x="289" y="288" on="0"/>
        <pt x="224" y="303" on="0"/>
        <pt x="165" y="315" on="0"/>
        <pt x="149" y="315" on="1"/>
        <pt x="138" y="315" on="0"/>
        <pt x="112" y="298" on="0"/>
        <pt x="101" y="287" on="1"/>
        <pt x="88" y="275" on="0"/>
        <pt x="74" y="259" on="1"/>
      </contour>
      <contour>
        <pt x="63" y="78" on="1"/>
        <pt x="28" y="116" on="1"/>
        <pt x="28" y="126" on="1"/>
        <pt x="119" y="228" on="1"/>
        <pt x="138" y="232" on="1"/>
        <pt x="157" y="232" on="0"/>
        <pt x="218" y="220" on="0"/>
        <pt x="284" y="205" on="0"/>
        <pt x="342" y="193" on="0"/>
        <pt x="358" y="193" on="1"/>
        <pt x="368" y="193" on="0"/>
        <pt x="395" y="210" on="0"/>
        <pt x="406" y="221" on="1"/>
        <pt x="419" y="233" on="0"/>
        <pt x="433" y="250" on="1"/>
        <pt x="444" y="250" on="1"/>
        <pt x="479" y="212" on="1"/>
        <pt x="479" y="202" on="1"/>
        <pt x="388" y="100" on="1"/>
        <pt x="369" y="96" on="1"/>
        <pt x="350" y="96" on="0"/>
        <pt x="289" y="108" on="0"/>
        <pt x="224" y="123" on="0"/>
        <pt x="165" y="135" on="0"/>
        <pt x="149" y="135" on="1"/>
        <pt x="138" y="135" on="0"/>
        <pt x="112" y="117" on="0"/>
        <pt x="101" y="106" on="1"/>
        <pt x="88" y="94" on="0"/>
        <pt x="74" y="78" on="1"/>
      </contour>
    </TTGlyph>
    <TTGlyph name="aring" xMin="27" yMin="-12" xMax="480" yMax="730">
      <component glyphName="a" x="0" y="0" flags="0x204"/>
      <component glyphName="ring" x="30" y="1" flags="0x4"/>
    </TTGlyph>
    <TTGlyph name="aringacute" xMin="27" yMin="-12" xMax="480" yMax="795">
      <contour>
        <pt x="278" y="289" on="1"/>
        <pt x="278" y="332" on="0"/>
        <pt x="234" y="379" on="0"/>
        <pt x="193" y="379" on="1"/>
        <pt x="170" y="379" on="0"/>
        <pt x="129" y="364" on="0"/>
        <pt x="112" y="355" on="1"/>
        <pt x="93" y="344" on="0"/>
        <pt x="76" y="332" on="1"/>
        <pt x="67" y="337" on="1"/>
        <pt x="49" y="397" on="1"/>
        <pt x="88" y="418" on="0"/>
        <pt x="123" y="435" on="1"/>
        <pt x="153" y="449" on="0"/>
        <pt x="216" y="474" on="0"/>
        <pt x="234" y="474" on="1"/>
        <pt x="278" y="474" on="0"/>
        <pt x="341" y="453" on="0"/>
        <pt x="382" y="416" on="0"/>
        <pt x="401" y="366" on="0"/>
        <pt x="401" y="337" on="1"/>
        <pt x="401" y="324" on="0"/>
        <pt x="395" y="269" on="0"/>
        <pt x="387" y="207" on="0"/>
        <pt x="381" y="148" on="0"/>
        <pt x="381" y="132" on="1"/>
        <pt x="381" y="114" on="0"/>
        <pt x="400" y="92" on="0"/>
        <pt x="417" y="92" on="1"/>
        <pt x="426" y="92" on="0"/>
        <pt x="442" y="97" on="0"/>
        <pt x="449" y="100" on="1"/>
        <pt x="457" y="104" on="0"/>
        <pt x="464" y="109" on="1"/>
        <pt x="480" y="88" on="1"/>
        <pt x="465" y="63" on="0"/>
        <pt x="449" y="43" on="1"/>
        <pt x="435" y="26" on="0"/>
        <pt x="401" y="-7" on="0"/>
        <pt x="383" y="-12" on="1"/>
        <pt x="291" y="-12" on="0"/>
        <pt x="282" y="65" on="1"/>
        <pt x="274" y="68" on="1"/>
        <pt x="244" y="38" on="0"/>
        <pt x="183" y="-8" on="0"/>
        <pt x="164" y="-8" on="1"/>
        <pt x="135" y="-8" on="0"/>
        <pt x="85" y="14" on="0"/>
        <pt x="48" y="53" on="0"/>
        <pt x="27" y="107" on="0"/>
        <pt x="27" y="138" on="1"/>
        <pt x="27" y="169" on="0"/>
        <pt x="59" y="215" on="0"/>
        <pt x="85" y="221" on="1"/>
        <pt x="277" y="266" on="1"/>
      </contour>
      <contour>
        <pt x="275" y="211" on="1"/>
        <pt x="170" y="182" on="1"/>
        <pt x="147" y="175" on="0"/>
        <pt x="147" y="150" on="1"/>
        <pt x="147" y="124" on="0"/>
        <pt x="177" y="89" on="0"/>
        <pt x="202" y="89" on="1"/>
        <pt x="217" y="89" on="0"/>
        <pt x="256" y="105" on="0"/>
        <pt x="273" y="117" on="1"/>
      </contour>
      <contour>
        <pt x="246" y="539" on="1"/>
        <pt x="256" y="539" on="0"/>
        <pt x="282" y="550" on="0"/>
        <pt x="282" y="571" on="1"/>
        <pt x="282" y="588" on="0"/>
        <pt x="261" y="609" on="0"/>
        <pt x="241" y="609" on="1"/>
        <pt x="205" y="609" on="0"/>
        <pt x="205" y="577" on="1"/>
        <pt x="205" y="556" on="0"/>
        <pt x="233" y="539" on="0"/>
      </contour>
      <contour>
        <pt x="240" y="491" on="1"/>
        <pt x="201" y="491" on="0"/>
        <pt x="160" y="536" on="0"/>
        <pt x="160" y="573" on="1"/>
        <pt x="160" y="610" on="0"/>
        <pt x="208" y="659" on="0"/>
        <pt x="247" y="659" on="1"/>
        <pt x="290" y="659" on="0"/>
        <pt x="327" y="610" on="0"/>
        <pt x="327" y="580" on="1"/>
        <pt x="327" y="545" on="0"/>
        <pt x="282" y="491" on="0"/>
      </contour>
      <contour>
        <pt x="360" y="710" on="1"/>
        <pt x="329" y="703" on="0"/>
        <pt x="295" y="693" on="1"/>
        <pt x="266" y="685" on="0"/>
        <pt x="192" y="663" on="0"/>
        <pt x="154" y="651" on="1"/>
        <pt x="142" y="659" on="1"/>
        <pt x="130" y="702" on="1"/>
        <pt x="166" y="718" on="0"/>
        <pt x="238" y="750" on="0"/>
        <pt x="267" y="764" on="1"/>
        <pt x="300" y="780" on="0"/>
        <pt x="331" y="795" on="1"/>
        <pt x="342" y="791" on="1"/>
        <pt x="365" y="721" on="1"/>
      </contour>
    </TTGlyph>
    <TTGlyph name="asciicircum" xMin="32" yMin="76" xMax="457" yMax="482">
      <contour>
        <pt x="299" y="474" on="1"/>
        <pt x="313" y="439" on="0"/>
        <pt x="328" y="405" on="1"/>
        <pt x="341" y="376" on="0"/>
        <pt x="369" y="308" on="0"/>
        <pt x="381" y="282" on="1"/>
        <pt x="394" y="253" on="0"/>
        <pt x="421" y="194" on="0"/>
        <pt x="432" y="171" on="1"/>
        <pt x="445" y="144" on="0"/>
        <pt x="457" y="118" on="1"/>
        <pt x="392" y="76" on="1"/>
        <pt x="376" y="81" on="1"/>
        <pt x="364" y="107" on="0"/>
        <pt x="352" y="134" on="1"/>
        <pt x="341" y="157" on="0"/>
        <pt x="316" y="215" on="0"/>
        <pt x="303" y="244" on="1"/>
        <pt x="243" y="381" on="1"/>
        <pt x="236" y="381" on="1"/>
        <pt x="186" y="257" on="1"/>
        <pt x="173" y="228" on="0"/>
        <pt x="149" y="164" on="0"/>
        <pt x="139" y="138" on="1"/>
        <pt x="128" y="107" on="0"/>
        <pt x="116" y="77" on="1"/>
        <pt x="39" y="97" on="1"/>
        <pt x="32" y="110" on="1"/>
        <pt x="44" y="137" on="0"/>
        <pt x="56" y="167" on="1"/>
        <pt x="67" y="193" on="0"/>
        <pt x="93" y="255" on="0"/>
        <pt x="107" y="287" on="1"/>
        <pt x="189" y="478" on="1"/>
        <pt x="286" y="482" on="1"/>
      </contour>
    </TTGlyph>
    <TTGlyph name="asciitilde" xMin="27" yMin="178" xMax="480" yMax="349">
      <contour>
        <pt x="62" y="178" on="1"/>
        <pt x="27" y="215" on="1"/>
        <pt x="27" y="226" on="1"/>
        <pt x="118" y="327" on="1"/>
        <pt x="137" y="331" on="1"/>
        <pt x="156" y="331" on="0"/>
        <pt x="218" y="319" on="0"/>
        <pt x="284" y="304" on="0"/>
        <pt x="343" y="292" on="0"/>
        <pt x="359" y="292" on="1"/>
        <pt x="370" y="292" on="0"/>
        <pt x="396" y="309" on="0"/>
        <pt x="407" y="320" on="1"/>
        <pt x="420" y="332" on="0"/>
        <pt x="434" y="349" on="1"/>
        <pt x="445" y="349" on="1"/>
        <pt x="480" y="311" on="1"/>
        <pt x="480" y="301" on="1"/>
        <pt x="389" y="199" on="1"/>
        <pt x="370" y="195" on="1"/>
        <pt x="351" y="195" on="0"/>
        <pt x="289" y="207" on="0"/>
        <pt x="223" y="222" on="0"/>
        <pt x="164" y="234" on="0"/>
        <pt x="148" y="234" on="1"/>
        <pt x="137" y="234" on="0"/>
        <pt x="111" y="217" on="0"/>
        <pt x="100" y="206" on="1"/>
        <pt x="87" y="194" on="0"/>
        <pt x="73" y="178" on="1"/>
      </contour>
    </TTGlyph>
    <TTGlyph name="asterisk" xMin="40" yMin="403" xMax="382" yMax="744">
      <contour>
        <pt x="62" y="673" on="1"/>
        <pt x="77" y="665" on="0"/>
        <pt x="94" y="655" on="1"/>
        <pt x="108" y="646" on="0"/>
        <pt x="145" y="622" on="0"/>
        <pt x="165" y="607" on="1"/>
        <pt x="157" y="566" on="1"/>
        <pt x="150" y="560" on="1"/>
        <pt x="130" y="566" on="0"/>
        <pt x="92" y="577" on="0"/>
        <pt x="76" y="581" on="1"/>
        <pt x="58" y="585" on="0"/>
        <pt x="41" y="590" on="1"/>
        <pt x="40" y="603" on="0"/>
        <pt x="42" y="617" on="1"/>
        <pt x="44" y="642" on="0"/>
        <pt x="53" y="670" on="1"/>
      </contour>
      <contour>
        <pt x="62" y="469" on="1"/>
        <pt x="74" y="480" on="0"/>
        <pt x="89" y="493" on="1"/>
        <pt x="102" y="504" on="0"/>
        <pt x="136" y="532" on="0"/>
        <pt x="157" y="546" on="1"/>
        <pt x="193" y="526" on="1"/>
        <pt x="196" y="518" on="1"/>
        <pt x="184" y="501" on="0"/>
        <pt x="161" y="468" on="0"/>
        <pt x="153" y="454" on="1"/>
        <pt x="143" y="438" on="0"/>
        <pt x="135" y="423" on="1"/>
        <pt x="122" y="428" on="0"/>
        <pt x="110" y="433" on="1"/>
        <pt x="99" y="438" on="0"/>
        <pt x="73" y="451" on="0"/>
        <pt x="62" y="459" on="1"/>
      </contour>
      <contour>
        <pt x="256" y="406" on="1"/>
        <pt x="249" y="421" on="0"/>
        <pt x="241" y="439" on="1"/>
        <pt x="234" y="454" on="0"/>
        <pt x="219" y="496" on="0"/>
        <pt x="212" y="520" on="1"/>
        <pt x="242" y="549" on="1"/>
        <pt x="252" y="549" on="1"/>
        <pt x="264" y="532" on="0"/>
        <pt x="288" y="500" on="0"/>
        <pt x="299" y="488" on="1"/>
        <pt x="310" y="473" on="0"/>
        <pt x="322" y="461" on="1"/>
        <pt x="314" y="451" on="0"/>
        <pt x="305" y="440" on="1"/>
        <pt x="297" y="431" on="0"/>
        <pt x="277" y="411" on="0"/>
        <pt x="266" y="403" on="1"/>
      </contour>
      <contour>
        <pt x="376" y="571" on="1"/>
        <pt x="359" y="569" on="0"/>
        <pt x="340" y="567" on="1"/>
        <pt x="323" y="565" on="0"/>
        <pt x="279" y="563" on="0"/>
        <pt x="254" y="564" on="1"/>
        <pt x="236" y="601" on="1"/>
        <pt x="239" y="611" on="1"/>
        <pt x="259" y="617" on="0"/>
        <pt x="296" y="631" on="0"/>
        <pt x="311" y="637" on="1"/>
        <pt x="329" y="644" on="0"/>
        <pt x="344" y="651" on="1"/>
        <pt x="352" y="640" on="0"/>
        <pt x="359" y="628" on="1"/>
        <pt x="365" y="617" on="0"/>
        <pt x="377" y="592" on="0"/>
        <pt x="382" y="579" on="1"/>
      </contour>
      <contour>
        <pt x="257" y="736" on="1"/>
        <pt x="253" y="720" on="0"/>
        <pt x="249" y="701" on="1"/>
        <pt x="245" y="684" on="0"/>
        <pt x="233" y="641" on="0"/>
        <pt x="225" y="618" on="1"/>
        <pt x="183" y="613" on="1"/>
        <pt x="176" y="617" on="1"/>
        <pt x="175" y="638" on="0"/>
        <pt x="174" y="678" on="0"/>
        <pt x="173" y="694" on="1"/>
        <pt x="172" y="712" on="0"/>
        <pt x="170" y="730" on="1"/>
        <pt x="182" y="733" on="0"/>
        <pt x="196" y="737" on="1"/>
        <pt x="207" y="739" on="0"/>
        <pt x="236" y="744" on="0"/>
        <pt x="250" y="744" on="1"/>
      </contour>
    </TTGlyph>
    <TTGlyph name="at" xMin="24" yMin="-224" xMax="839" yMax="642">
      <contour>
        <pt x="493" y="-12" on="1"/>
        <pt x="472" y="-12" on="0"/>
        <pt x="449" y="10" on="0"/>
        <pt x="449" y="29" on="1"/>
        <pt x="449" y="35" on="0"/>
        <pt x="457" y="76" on="0"/>
        <pt x="467" y="126" on="0"/>
        <pt x="479" y="177" on="0"/>
        <pt x="483" y="193" on="1"/>
        <pt x="475" y="194" on="1"/>
        <pt x="429" y="111" on="0"/>
        <pt x="352" y="15" on="0"/>
        <pt x="314" y="-12" on="1"/>
        <pt x="258" y="-12" on="0"/>
        <pt x="199" y="67" on="0"/>
        <pt x="199" y="134" on="1"/>
        <pt x="199" y="195" on="0"/>
        <pt x="242" y="315" on="0"/>
        <pt x="311" y="408" on="0"/>
        <pt x="397" y="466" on="0"/>
        <pt x="440" y="466" on="1"/>
        <pt x="527" y="448" on="1"/>
        <pt x="534" y="470" on="1"/>
        <pt x="546" y="477" on="1"/>
        <pt x="626" y="463" on="1"/>
        <pt x="634" y="446" on="1"/>
        <pt x="618" y="386" on="0"/>
        <pt x="604" y="324" on="1"/>
        <pt x="592" y="270" on="0"/>
        <pt x="566" y="144" on="0"/>
        <pt x="557" y="84" on="1"/>
        <pt x="563" y="78" on="1"/>
        <pt x="608" y="78" on="0"/>
        <pt x="678" y="110" on="0"/>
        <pt x="727" y="167" on="0"/>
        <pt x="752" y="247" on="0"/>
        <pt x="752" y="294" on="1"/>
        <pt x="752" y="357" on="0"/>
        <pt x="710" y="457" on="0"/>
        <pt x="632" y="526" on="0"/>
        <pt x="522" y="562" on="0"/>
        <pt x="453" y="562" on="1"/>
        <pt x="377" y="562" on="0"/>
        <pt x="252" y="506" on="0"/>
        <pt x="162" y="409" on="0"/>
        <pt x="113" y="279" on="0"/>
        <pt x="113" y="205" on="1"/>
        <pt x="113" y="126" on="0"/>
        <pt x="160" y="-5" on="0"/>
        <pt x="254" y="-100" on="0"/>
        <pt x="397" y="-155" on="0"/>
        <pt x="493" y="-158" on="1"/>
        <pt x="493" y="-162" on="0"/>
        <pt x="492" y="-170" on="0"/>
        <pt x="492" y="-174" on="1"/>
        <pt x="461" y="-224" on="1"/>
        <pt x="356" y="-222" on="0"/>
        <pt x="194" y="-160" on="0"/>
        <pt x="82" y="-54" on="0"/>
        <pt x="24" y="92" on="0"/>
        <pt x="24" y="179" on="1"/>
        <pt x="24" y="270" on="0"/>
        <pt x="94" y="437" on="0"/>
        <pt x="216" y="565" on="0"/>
        <pt x="383" y="642" on="0"/>
        <pt x="481" y="642" on="1"/>
        <pt x="562" y="642" on="0"/>
        <pt x="695" y="596" on="0"/>
        <pt x="788" y="512" on="0"/>
        <pt x="839" y="396" on="0"/>
        <pt x="839" y="326" on="1"/>
        <pt x="839" y="255" on="0"/>
        <pt x="793" y="131" on="0"/>
        <pt x="704" y="40" on="0"/>
        <pt x="575" y="-12" on="0"/>
      </contour>
      <contour>
        <pt x="346" y="105" on="1"/>
        <pt x="356" y="105" on="0"/>
        <pt x="392" y="145" on="0"/>
        <pt x="434" y="214" on="0"/>
        <pt x="478" y="306" on="0"/>
        <pt x="498" y="358" on="1"/>
        <pt x="495" y="359" on="0"/>
        <pt x="478" y="369" on="0"/>
        <pt x="454" y="379" on="0"/>
        <pt x="425" y="387" on="0"/>
        <pt x="410" y="387" on="1"/>
        <pt x="394" y="387" on="0"/>
        <pt x="363" y="353" on="0"/>
        <pt x="339" y="298" on="0"/>
        <pt x="324" y="226" on="0"/>
        <pt x="324" y="189" on="1"/>
        <pt x="324" y="154" on="0"/>
        <pt x="336" y="105" on="0"/>
      </contour>
    </TTGlyph>
    <TTGlyph name="atilde" xMin="27" yMin="-12" xMax="480" yMax="715">
      <component glyphName="a" x="0" y="0" flags="0x204"/>
      <component glyphName="tilde" x="26" y="1" flags="0x4"/>
    </TTGlyph>
    <TTGlyph name="b" xMin="-2" yMin="-10" xMax="488" yMax="742">
      <contour>
        <pt x="67" y="597" on="1"/>
        <pt x="67" y="629" on="0"/>
        <pt x="49" y="653" on="0"/>
        <pt x="25" y="653" on="1"/>
        <pt x="17" y="653" on="0"/>
        <pt x="4" y="652" on="0"/>
        <pt x="2" y="652" on="1"/>
        <pt x="-2" y="656" on="1"/>
        <pt x="3" y="710" on="1"/>
        <pt x="38" y="715" on="0"/>
        <pt x="111" y="725" on="0"/>
        <pt x="141" y="730" on="1"/>
        <pt x="176" y="735" on="0"/>
        <pt x="209" y="742" on="1"/>
        <pt x="217" y="723" on="1"/>
        <pt x="207" y="712" on="0"/>
        <pt x="194" y="544" on="0"/>
        <pt x="190" y="406" on="1"/>
        <pt x="230" y="435" on="0"/>
        <pt x="289" y="471" on="0"/>
        <pt x="298" y="471" on="1"/>
        <pt x="342" y="471" on="0"/>
        <pt x="412" y="440" on="0"/>
        <pt x="462" y="383" on="0"/>
        <pt x="488" y="301" on="0"/>
        <pt x="488" y="250" on="1"/>
        <pt x="488" y="193" on="0"/>
        <pt x="451" y="97" on="0"/>
        <pt x="384" y="28" on="0"/>
        <pt x="291" y="-10" on="0"/>
        <pt x="236" y="-10" on="1"/>
        <pt x="206" y="-10" on="0"/>
        <pt x="149" y="-5" on="0"/>
        <pt x="126" y="-2" on="1"/>
        <pt x="100" y="2" on="0"/>
        <pt x="77" y="6" on="1"/>
        <pt x="67" y="16" on="1"/>
      </contour>
      <contour>
        <pt x="185" y="88" on="1"/>
        <pt x="195" y="83" on="0"/>
        <pt x="237" y="73" on="0"/>
        <pt x="258" y="73" on="1"/>
        <pt x="306" y="73" on="0"/>
        <pt x="358" y="145" on="0"/>
        <pt x="358" y="212" on="1"/>
        <pt x="358" y="287" on="0"/>
        <pt x="305" y="375" on="0"/>
        <pt x="261" y="375" on="1"/>
        <pt x="243" y="375" on="0"/>
        <pt x="202" y="357" on="0"/>
        <pt x="188" y="343" on="1"/>
      </contour>
    </TTGlyph>
</ttFont>
